M48
;DRILL file {Pcbnew (2013-07-07 BZR 4022)-stable} date 7/27/2015 3:09:45 PM
;FORMAT={-:-/ absolute / inch / decimal}
FMAT,2
INCH,TZ
T1C0.025
T2C0.032
T3C0.032
T4C0.050
T5C0.102
T6C0.120
T7C0.122
%
G90
G05
M72
T1
X4.45Y-5.2
X4.45Y-5.275
X4.6Y-2.5
X4.6Y-3.525
X4.625Y-4.95
X4.625Y-5.275
X4.95Y-5.65
X5.05Y-5.15
X5.05Y-5.55
X5.075Y-3.
X5.1Y-3.5
X5.1Y-4.
X5.1Y-4.5
X5.1Y-4.6625
X5.2Y-5.7
X5.25Y-3.05
X5.25Y-3.45
X5.25Y-3.95
X5.25Y-4.075
X5.3Y-3.5
X5.3Y-4.
X5.3Y-4.5
X5.375Y-5.525
X5.45Y-3.075
X5.525Y-2.825
X5.775Y-4.8
X5.95Y-2.275
X6.Y-4.3
X6.025Y-3.775
X6.05Y-3.275
X6.1Y-2.325
X6.1Y-2.775
X6.149Y-2.275
T2
X6.4106Y-5.15
X6.4894Y-5.15
T3
X3.1Y-2.45
X3.1Y-2.75
X3.1Y-2.85
X3.1Y-3.15
X3.1Y-3.65
X3.1Y-3.95
X3.1Y-4.05
X3.1Y-4.35
X3.1Y-4.85
X3.1Y-5.15
X3.1Y-5.25
X3.1Y-5.55
X3.2Y-2.45
X3.2Y-2.75
X3.2Y-2.85
X3.2Y-3.15
X3.2Y-3.35
X3.2Y-3.45
X3.2Y-3.65
X3.2Y-3.95
X3.2Y-4.05
X3.2Y-4.35
X3.2Y-4.55
X3.2Y-4.65
X3.2Y-4.85
X3.2Y-5.15
X3.2Y-5.25
X3.2Y-5.55
X3.25Y-3.25
X3.25Y-3.55
X3.25Y-4.45
X3.25Y-4.75
X3.3Y-2.45
X3.3Y-2.75
X3.3Y-2.85
X3.3Y-3.15
X3.3Y-3.65
X3.3Y-3.95
X3.3Y-4.05
X3.3Y-4.35
X3.3Y-4.85
X3.3Y-5.15
X3.3Y-5.25
X3.3Y-5.55
X3.4Y-2.45
X3.4Y-2.75
X3.4Y-2.85
X3.4Y-3.15
X3.4Y-3.65
X3.4Y-3.95
X3.4Y-4.05
X3.4Y-4.35
X3.4Y-4.85
X3.4Y-5.15
X3.4Y-5.25
X3.4Y-5.55
X3.5Y-2.45
X3.5Y-2.75
X3.5Y-2.85
X3.5Y-3.15
X3.5Y-3.65
X3.5Y-3.95
X3.5Y-4.05
X3.5Y-4.35
X3.5Y-4.85
X3.5Y-5.15
X3.5Y-5.25
X3.5Y-5.55
X3.55Y-3.25
X3.55Y-3.55
X3.55Y-4.45
X3.55Y-4.75
X3.6Y-2.45
X3.6Y-2.75
X3.6Y-2.85
X3.6Y-3.15
X3.6Y-3.35
X3.6Y-3.45
X3.6Y-3.65
X3.6Y-3.95
X3.6Y-4.05
X3.6Y-4.35
X3.6Y-4.55
X3.6Y-4.65
X3.6Y-4.85
X3.6Y-5.15
X3.6Y-5.25
X3.6Y-5.55
X3.7Y-2.45
X3.7Y-2.75
X3.7Y-2.85
X3.7Y-3.15
X3.7Y-3.65
X3.7Y-3.95
X3.7Y-4.05
X3.7Y-4.35
X3.7Y-4.85
X3.7Y-5.15
X3.7Y-5.25
X3.7Y-5.55
X3.85Y-5.1
X3.85Y-5.4
X3.85Y-5.6
X3.85Y-5.9
X4.Y-2.1
X4.Y-2.4
X4.Y-2.6
X4.Y-2.9
X4.Y-3.1
X4.Y-3.4
X4.Y-3.6
X4.Y-3.9
X4.Y-4.1
X4.Y-4.4
X4.Y-4.6
X4.Y-4.9
X4.Y-5.1
X4.Y-5.4
X4.Y-5.6
X4.Y-5.9
X4.1Y-2.1
X4.1Y-2.4
X4.1Y-2.6
X4.1Y-2.9
X4.1Y-3.1
X4.1Y-3.4
X4.1Y-3.6
X4.1Y-3.9
X4.1Y-4.1
X4.1Y-4.4
X4.1Y-4.6
X4.1Y-4.9
X4.1Y-5.1
X4.1Y-5.4
X4.1Y-5.6
X4.1Y-5.9
X4.2Y-2.1
X4.2Y-2.4
X4.2Y-2.6
X4.2Y-2.9
X4.2Y-3.1
X4.2Y-3.4
X4.2Y-3.6
X4.2Y-3.9
X4.2Y-4.1
X4.2Y-4.4
X4.2Y-4.6
X4.2Y-4.9
X4.2Y-5.1
X4.2Y-5.4
X4.2Y-5.6
X4.2Y-5.9
X4.3Y-2.1
X4.3Y-2.4
X4.3Y-2.6
X4.3Y-2.9
X4.3Y-3.1
X4.3Y-3.4
X4.3Y-3.6
X4.3Y-3.9
X4.3Y-4.1
X4.3Y-4.4
X4.3Y-4.6
X4.3Y-4.9
X4.3Y-5.1
X4.3Y-5.4
X4.3Y-5.6
X4.3Y-5.9
X4.4Y-2.1
X4.4Y-2.4
X4.4Y-2.6
X4.4Y-2.9
X4.4Y-3.1
X4.4Y-3.4
X4.4Y-3.6
X4.4Y-3.9
X4.4Y-4.1
X4.4Y-4.4
X4.4Y-4.6
X4.4Y-4.9
X4.4Y-5.1
X4.4Y-5.4
X4.4Y-5.6
X4.4Y-5.9
X4.5Y-2.1
X4.5Y-2.4
X4.5Y-2.6
X4.5Y-2.9
X4.5Y-3.1
X4.5Y-3.4
X4.5Y-3.6
X4.5Y-3.9
X4.5Y-4.1
X4.5Y-4.4
X4.5Y-4.6
X4.5Y-4.9
X4.5Y-5.1
X4.5Y-5.4
X4.5Y-5.6
X4.5Y-5.9
X4.6Y-2.1
X4.6Y-2.4
X4.6Y-2.6
X4.6Y-2.9
X4.6Y-3.1
X4.6Y-3.4
X4.6Y-3.6
X4.6Y-3.9
X4.6Y-4.1
X4.6Y-4.4
X4.6Y-4.6
X4.6Y-4.9
X4.6Y-5.1
X4.6Y-5.4
X4.6Y-5.6
X4.6Y-5.9
X4.75Y-2.1
X4.75Y-2.4
X4.75Y-2.6
X4.75Y-2.9
X4.75Y-3.1
X4.75Y-3.4
X4.75Y-3.6
X4.75Y-3.9
X4.75Y-4.1
X4.75Y-4.4
X4.75Y-4.6
X4.75Y-4.9
X4.75Y-5.1
X4.75Y-5.4
X4.75Y-5.6
X4.75Y-5.9
X4.9Y-2.1
X4.9Y-2.4
X4.9Y-2.6
X4.9Y-2.9
X4.9Y-3.1
X4.9Y-3.4
X4.9Y-3.6
X4.9Y-3.9
X4.9Y-4.1
X4.9Y-4.4
X4.9Y-4.6
X4.9Y-4.9
X4.9Y-5.1
X4.9Y-5.4
X4.9Y-5.6
X4.9Y-5.9
X5.Y-2.1
X5.Y-2.4
X5.Y-2.6
X5.Y-2.9
X5.Y-3.1
X5.Y-3.4
X5.Y-3.6
X5.Y-3.9
X5.Y-4.1
X5.Y-4.4
X5.Y-4.6
X5.Y-4.9
X5.Y-5.1
X5.Y-5.4
X5.Y-5.6
X5.Y-5.9
X5.1Y-2.1
X5.1Y-2.4
X5.1Y-2.6
X5.1Y-2.9
X5.1Y-3.1
X5.1Y-3.4
X5.1Y-3.6
X5.1Y-3.9
X5.1Y-4.1
X5.1Y-4.4
X5.1Y-4.6
X5.1Y-4.9
X5.1Y-5.1
X5.1Y-5.4
X5.1Y-5.6
X5.1Y-5.9
X5.2Y-2.1
X5.2Y-2.4
X5.2Y-2.6
X5.2Y-2.9
X5.2Y-3.1
X5.2Y-3.4
X5.2Y-3.6
X5.2Y-3.9
X5.2Y-4.1
X5.2Y-4.4
X5.2Y-4.6
X5.2Y-4.9
X5.2Y-5.1
X5.2Y-5.4
X5.2Y-5.6
X5.2Y-5.9
X5.3Y-2.1
X5.3Y-2.4
X5.3Y-2.6
X5.3Y-2.9
X5.3Y-3.1
X5.3Y-3.4
X5.3Y-3.6
X5.3Y-3.9
X5.3Y-4.1
X5.3Y-4.4
X5.3Y-4.6
X5.3Y-4.9
X5.3Y-5.1
X5.3Y-5.4
X5.3Y-5.6
X5.3Y-5.9
X5.4Y-2.1
X5.4Y-2.4
X5.4Y-2.6
X5.4Y-2.9
X5.4Y-3.1
X5.4Y-3.4
X5.4Y-3.6
X5.4Y-3.9
X5.4Y-4.1
X5.4Y-4.4
X5.4Y-4.6
X5.4Y-4.9
X5.4Y-5.1
X5.4Y-5.4
X5.4Y-5.6
X5.4Y-5.9
X5.5Y-2.1
X5.5Y-2.4
X5.5Y-2.6
X5.5Y-2.9
X5.5Y-3.1
X5.5Y-3.4
X5.5Y-3.6
X5.5Y-3.9
X5.5Y-4.1
X5.5Y-4.4
X5.5Y-4.6
X5.5Y-4.9
X5.5Y-5.1
X5.5Y-5.4
X5.5Y-5.6
X5.5Y-5.9
X5.6Y-2.1
X5.6Y-2.4
X5.6Y-2.6
X5.6Y-2.9
X5.6Y-3.1
X5.6Y-3.4
X5.6Y-3.6
X5.6Y-3.9
X5.6Y-4.1
X5.6Y-4.4
X5.6Y-4.6
X5.6Y-4.9
X5.6Y-5.6
X5.6Y-5.9
X5.75Y-2.1
X5.75Y-2.4
X5.75Y-2.6
X5.75Y-2.9
X5.75Y-3.1
X5.75Y-3.4
X5.75Y-3.6
X5.75Y-3.9
X5.75Y-4.1
X5.75Y-4.4
X5.75Y-4.6
X5.75Y-4.9
X5.775Y-5.25
X5.775Y-5.55
X5.775Y-5.65
X5.775Y-5.85
X5.875Y-5.25
X5.875Y-5.55
X5.9Y-2.1
X5.9Y-2.4
X5.9Y-2.6
X5.9Y-2.9
X5.9Y-3.1
X5.9Y-3.4
X5.9Y-3.6
X5.9Y-3.9
X5.9Y-4.1
X5.9Y-4.4
X5.9Y-4.6
X5.9Y-4.9
X6.Y-2.1
X6.Y-2.4
X6.Y-2.6
X6.Y-2.9
X6.Y-3.1
X6.Y-3.4
X6.Y-3.6
X6.Y-3.9
X6.Y-4.1
X6.Y-4.4
X6.Y-4.6
X6.Y-4.9
X6.Y-5.35
X6.Y-5.55
X6.05Y-5.65
X6.05Y-5.85
X6.1Y-2.1
X6.1Y-2.4
X6.1Y-2.6
X6.1Y-2.9
X6.1Y-3.1
X6.1Y-3.4
X6.1Y-3.6
X6.1Y-3.9
X6.1Y-4.1
X6.1Y-4.4
X6.1Y-4.6
X6.1Y-4.9
X6.1Y-5.35
X6.1Y-5.55
X6.2Y-2.1
X6.2Y-2.4
X6.2Y-2.6
X6.2Y-2.9
X6.2Y-3.1
X6.2Y-3.4
X6.2Y-3.6
X6.2Y-3.9
X6.2Y-4.1
X6.2Y-4.4
X6.2Y-4.6
X6.2Y-4.9
X6.3Y-2.1
X6.3Y-2.4
X6.3Y-2.6
X6.3Y-2.9
X6.3Y-3.1
X6.3Y-3.4
X6.3Y-3.6
X6.3Y-3.9
X6.3Y-4.1
X6.3Y-4.4
X6.3Y-4.6
X6.3Y-4.9
X6.4Y-2.1
X6.4Y-2.4
X6.4Y-2.6
X6.4Y-2.9
X6.4Y-3.1
X6.4Y-3.4
X6.4Y-3.6
X6.4Y-3.9
X6.4Y-4.1
X6.4Y-4.4
X6.4Y-4.6
X6.4Y-4.9
X6.5Y-2.1
X6.5Y-2.4
X6.5Y-2.6
X6.5Y-2.9
X6.5Y-3.1
X6.5Y-3.4
X6.5Y-3.6
X6.5Y-3.9
X6.5Y-4.1
X6.5Y-4.4
X6.5Y-4.6
X6.5Y-4.9
X6.7Y-2.7
X6.7Y-3.
X6.725Y-5.
X6.725Y-5.3
X6.8Y-2.7
X6.8Y-3.
X6.825Y-5.
X6.825Y-5.3
X6.9Y-2.7
X6.9Y-3.
T4
X6.8Y-3.2
X6.8Y-3.4
X6.8Y-3.6
X6.8Y-3.8
X6.8Y-4.
X6.8Y-4.2
X6.8Y-4.4
X6.8Y-4.6
X6.8Y-4.8
T5
X6.4409Y-5.6693
X6.6299Y-5.5512
T6
X3.2Y-2.2
X3.2Y-5.8
X6.8Y-2.2
X6.8Y-5.8
T7
X6.4409Y-5.4252
T0
M30
