M48
; DRILL file {KiCad (5.1.8)-1} date 11/22/20 12:44:23
; FORMAT={-:-/ absolute / inch / decimal}
; #@! TF.CreationDate,2020-11-22T12:44:23-08:00
; #@! TF.GenerationSoftware,Kicad,Pcbnew,(5.1.8)-1
FMAT,2
INCH
T1C0.0197
T2C0.0250
T3C0.0315
T4C0.0320
T5C0.0354
T6C0.0394
T7C0.0500
T8C0.0512
T9C0.1024
T10C0.1181
T11C0.1220
%
G90
G05
T1
X6.7421Y-6.8307
X6.7681Y-6.7681
X6.7681Y-6.8933
X6.8307Y-6.7421
X6.8307Y-6.9193
X6.8933Y-6.7681
X6.8933Y-6.8933
X6.9193Y-6.8307
X3.0807Y-3.1693
X3.1067Y-3.1067
X3.1067Y-3.2319
X3.1693Y-3.0807
X3.1693Y-3.2579
X3.2319Y-3.1067
X3.2319Y-3.2319
X3.2579Y-3.1693
X6.7382Y-3.1693
X6.7641Y-3.1067
X6.7641Y-3.2319
X6.8268Y-3.0807
X6.8268Y-3.2579
X6.8894Y-3.1067
X6.8894Y-3.2319
X6.9154Y-3.1693
X3.0807Y-6.8307
X3.1067Y-6.7681
X3.1067Y-6.8933
X3.1693Y-6.7421
X3.1693Y-6.9193
X3.2319Y-6.7681
X3.2319Y-6.8933
X3.2579Y-6.8307
T2
X4.45Y-6.2
X4.45Y-6.275
X4.625Y-6.275
X4.95Y-6.65
X5.05Y-6.15
X5.05Y-6.55
X5.075Y-4.0
X5.1Y-4.5
X5.1Y-5.0
X5.1Y-5.5
X5.1Y-5.6625
X5.2Y-6.7
X5.25Y-4.05
X5.25Y-4.45
X5.25Y-4.95
X5.25Y-5.075
X5.3Y-4.5
X5.3Y-5.0
X5.3Y-5.5
X5.375Y-6.525
X5.45Y-4.075
X5.525Y-3.825
X5.775Y-5.8
X5.95Y-3.275
X6.0Y-5.3
X6.025Y-4.775
X6.05Y-4.275
X6.1Y-3.325
X6.1Y-3.775
X6.149Y-3.275
T3
X6.4125Y-6.15
X6.5109Y-6.15
T4
X5.9Y-5.6
X5.9Y-5.9
X6.0Y-5.6
X6.0Y-5.9
X6.1Y-5.6
X6.1Y-5.9
X6.2Y-5.6
X6.2Y-5.9
X6.3Y-5.6
X6.3Y-5.9
X6.4Y-5.6
X6.4Y-5.9
X6.5Y-5.6
X6.5Y-5.9
X4.0Y-6.6
X4.0Y-6.9
X4.1Y-6.6
X4.1Y-6.9
X4.2Y-6.6
X4.2Y-6.9
X4.3Y-6.6
X4.3Y-6.9
X4.4Y-6.6
X4.4Y-6.9
X4.5Y-6.6
X4.5Y-6.9
X4.6Y-6.6
X4.6Y-6.9
X6.8Y-3.7
X6.8Y-4.0
X5.775Y-6.65
X5.775Y-6.85
X5.75Y-5.6
X5.75Y-5.9
X3.9Y-5.1
X3.9Y-5.4
X4.0Y-5.1
X4.0Y-5.4
X4.1Y-5.1
X4.1Y-5.4
X4.2Y-5.1
X4.2Y-5.4
X4.3Y-5.1
X4.3Y-5.4
X4.4Y-5.1
X4.4Y-5.4
X4.5Y-5.1
X4.5Y-5.4
X4.6Y-5.1
X4.6Y-5.4
X4.9Y-3.1
X4.9Y-3.4
X5.0Y-3.1
X5.0Y-3.4
X5.1Y-3.1
X5.1Y-3.4
X5.2Y-3.1
X5.2Y-3.4
X5.3Y-3.1
X5.3Y-3.4
X5.4Y-3.1
X5.4Y-3.4
X5.5Y-3.1
X5.5Y-3.4
X5.6Y-3.1
X5.6Y-3.4
X5.9Y-5.1
X5.9Y-5.4
X6.0Y-5.1
X6.0Y-5.4
X6.1Y-5.1
X6.1Y-5.4
X6.2Y-5.1
X6.2Y-5.4
X6.3Y-5.1
X6.3Y-5.4
X6.4Y-5.1
X6.4Y-5.4
X6.5Y-5.1
X6.5Y-5.4
X4.0Y-6.1
X4.0Y-6.4
X4.1Y-6.1
X4.1Y-6.4
X4.2Y-6.1
X4.2Y-6.4
X4.3Y-6.1
X4.3Y-6.4
X4.4Y-6.1
X4.4Y-6.4
X4.5Y-6.1
X4.5Y-6.4
X4.6Y-6.1
X4.6Y-6.4
X6.825Y-6.0
X6.825Y-6.3
X5.75Y-3.6
X5.75Y-3.9
X5.75Y-4.1
X5.75Y-4.4
X4.75Y-3.6
X4.75Y-3.9
X4.75Y-3.1
X4.75Y-3.4
X5.9Y-4.1
X5.9Y-4.4
X6.0Y-4.1
X6.0Y-4.4
X6.1Y-4.1
X6.1Y-4.4
X6.2Y-4.1
X6.2Y-4.4
X6.3Y-4.1
X6.3Y-4.4
X6.4Y-4.1
X6.4Y-4.4
X6.5Y-4.1
X6.5Y-4.4
X4.9Y-4.1
X4.9Y-4.4
X5.0Y-4.1
X5.0Y-4.4
X5.1Y-4.1
X5.1Y-4.4
X5.2Y-4.1
X5.2Y-4.4
X5.3Y-4.1
X5.3Y-4.4
X5.4Y-4.1
X5.4Y-4.4
X5.5Y-4.1
X5.5Y-4.4
X5.6Y-4.1
X5.6Y-4.4
X6.7Y-3.7
X6.7Y-4.0
X5.75Y-3.1
X5.75Y-3.4
X5.75Y-4.6
X5.75Y-4.9
X4.75Y-6.1
X4.75Y-6.4
X3.9Y-3.6
X3.9Y-3.9
X4.0Y-3.6
X4.0Y-3.9
X4.1Y-3.6
X4.1Y-3.9
X4.2Y-3.6
X4.2Y-3.9
X4.3Y-3.6
X4.3Y-3.9
X4.4Y-3.6
X4.4Y-3.9
X4.5Y-3.6
X4.5Y-3.9
X4.6Y-3.6
X4.6Y-3.9
X4.9Y-5.1
X4.9Y-5.4
X5.0Y-5.1
X5.0Y-5.4
X5.1Y-5.1
X5.1Y-5.4
X5.2Y-5.1
X5.2Y-5.4
X5.3Y-5.1
X5.3Y-5.4
X5.4Y-5.1
X5.4Y-5.4
X5.5Y-5.1
X5.5Y-5.4
X5.6Y-5.1
X5.6Y-5.4
X5.9Y-3.6
X5.9Y-3.9
X6.0Y-3.6
X6.0Y-3.9
X6.1Y-3.6
X6.1Y-3.9
X6.2Y-3.6
X6.2Y-3.9
X6.3Y-3.6
X6.3Y-3.9
X6.4Y-3.6
X6.4Y-3.9
X6.5Y-3.6
X6.5Y-3.9
X4.9Y-5.6
X4.9Y-5.9
X5.0Y-5.6
X5.0Y-5.9
X5.1Y-5.6
X5.1Y-5.9
X5.2Y-5.6
X5.2Y-5.9
X5.3Y-5.6
X5.3Y-5.9
X5.4Y-5.6
X5.4Y-5.9
X5.5Y-5.6
X5.5Y-5.9
X5.6Y-5.6
X5.6Y-5.9
X3.9Y-5.6
X3.9Y-5.9
X4.0Y-5.6
X4.0Y-5.9
X4.1Y-5.6
X4.1Y-5.9
X4.2Y-5.6
X4.2Y-5.9
X4.3Y-5.6
X4.3Y-5.9
X4.4Y-5.6
X4.4Y-5.9
X4.5Y-5.6
X4.5Y-5.9
X4.6Y-5.6
X4.6Y-5.9
X3.9Y-3.1
X3.9Y-3.4
X4.0Y-3.1
X4.0Y-3.4
X4.1Y-3.1
X4.1Y-3.4
X4.2Y-3.1
X4.2Y-3.4
X4.3Y-3.1
X4.3Y-3.4
X4.4Y-3.1
X4.4Y-3.4
X4.5Y-3.1
X4.5Y-3.4
X4.6Y-3.1
X4.6Y-3.4
X5.75Y-5.1
X5.75Y-5.4
X3.85Y-6.1
X3.85Y-6.4
X6.0Y-6.35
X6.0Y-6.55
X6.1Y-6.35
X6.1Y-6.55
X5.9Y-3.1
X5.9Y-3.4
X6.0Y-3.1
X6.0Y-3.4
X6.1Y-3.1
X6.1Y-3.4
X6.2Y-3.1
X6.2Y-3.4
X6.3Y-3.1
X6.3Y-3.4
X6.4Y-3.1
X6.4Y-3.4
X6.5Y-3.1
X6.5Y-3.4
X5.875Y-6.25
X5.875Y-6.55
X6.725Y-6.0
X6.725Y-6.3
X4.75Y-5.6
X4.75Y-5.9
X4.75Y-5.1
X4.75Y-5.4
X4.75Y-6.6
X4.75Y-6.9
X4.9Y-6.1
X4.9Y-6.4
X5.0Y-6.1
X5.0Y-6.4
X5.1Y-6.1
X5.1Y-6.4
X5.2Y-6.1
X5.2Y-6.4
X5.3Y-6.1
X5.3Y-6.4
X5.4Y-6.1
X5.4Y-6.4
X5.5Y-6.1
X5.5Y-6.4
X4.9Y-4.6
X4.9Y-4.9
X5.0Y-4.6
X5.0Y-4.9
X5.1Y-4.6
X5.1Y-4.9
X5.2Y-4.6
X5.2Y-4.9
X5.3Y-4.6
X5.3Y-4.9
X5.4Y-4.6
X5.4Y-4.9
X5.5Y-4.6
X5.5Y-4.9
X5.6Y-4.6
X5.6Y-4.9
X6.9Y-3.7
X6.9Y-4.0
X4.75Y-4.6
X4.75Y-4.9
X3.9Y-4.1
X3.9Y-4.4
X4.0Y-4.1
X4.0Y-4.4
X4.1Y-4.1
X4.1Y-4.4
X4.2Y-4.1
X4.2Y-4.4
X4.3Y-4.1
X4.3Y-4.4
X4.4Y-4.1
X4.4Y-4.4
X4.5Y-4.1
X4.5Y-4.4
X4.6Y-4.1
X4.6Y-4.4
X5.9Y-4.6
X5.9Y-4.9
X6.0Y-4.6
X6.0Y-4.9
X6.1Y-4.6
X6.1Y-4.9
X6.2Y-4.6
X6.2Y-4.9
X6.3Y-4.6
X6.3Y-4.9
X6.4Y-4.6
X6.4Y-4.9
X6.5Y-4.6
X6.5Y-4.9
X4.9Y-3.6
X4.9Y-3.9
X5.0Y-3.6
X5.0Y-3.9
X5.1Y-3.6
X5.1Y-3.9
X5.2Y-3.6
X5.2Y-3.9
X5.3Y-3.6
X5.3Y-3.9
X5.4Y-3.6
X5.4Y-3.9
X5.5Y-3.6
X5.5Y-3.9
X5.6Y-3.6
X5.6Y-3.9
X5.775Y-6.25
X5.775Y-6.55
X4.75Y-4.1
X4.75Y-4.4
X3.85Y-6.6
X3.85Y-6.9
X3.9Y-4.6
X3.9Y-4.9
X4.0Y-4.6
X4.0Y-4.9
X4.1Y-4.6
X4.1Y-4.9
X4.2Y-4.6
X4.2Y-4.9
X4.3Y-4.6
X4.3Y-4.9
X4.4Y-4.6
X4.4Y-4.9
X4.5Y-4.6
X4.5Y-4.9
X4.6Y-4.6
X4.6Y-4.9
X4.9Y-6.6
X4.9Y-6.9
X5.0Y-6.6
X5.0Y-6.9
X5.1Y-6.6
X5.1Y-6.9
X5.2Y-6.6
X5.2Y-6.9
X5.3Y-6.6
X5.3Y-6.9
X5.4Y-6.6
X5.4Y-6.9
X5.5Y-6.6
X5.5Y-6.9
X5.6Y-6.6
X5.6Y-6.9
T5
X3.2Y-5.55
X3.2Y-5.65
X3.2Y-4.35
X3.2Y-4.45
X3.6Y-5.55
X3.6Y-5.65
X3.6Y-4.35
X3.6Y-4.45
T6
X3.1Y-4.6
X3.1Y-4.7
X3.1Y-4.8
X3.1Y-4.9
X3.1Y-5.0
X3.1Y-5.1
X3.1Y-5.2
X3.1Y-5.3
X3.1Y-5.4
X3.7Y-4.6
X3.7Y-4.7
X3.7Y-4.8
X3.7Y-4.9
X3.7Y-5.0
X3.7Y-5.1
X3.7Y-5.2
X3.7Y-5.3
X3.7Y-5.4
X3.1Y-3.4
X3.1Y-3.5
X3.1Y-3.6
X3.1Y-3.7
X3.1Y-3.8
X3.1Y-3.9
X3.1Y-4.0
X3.1Y-4.1
X3.1Y-4.2
X3.7Y-3.4
X3.7Y-3.5
X3.7Y-3.6
X3.7Y-3.7
X3.7Y-3.8
X3.7Y-3.9
X3.7Y-4.0
X3.7Y-4.1
X3.7Y-4.2
X3.1Y-5.8
X3.1Y-5.9
X3.1Y-6.0
X3.1Y-6.1
X3.1Y-6.2
X3.1Y-6.3
X3.1Y-6.4
X3.1Y-6.5
X3.1Y-6.6
X3.7Y-5.8
X3.7Y-5.9
X3.7Y-6.0
X3.7Y-6.1
X3.7Y-6.2
X3.7Y-6.3
X3.7Y-6.4
X3.7Y-6.5
X3.7Y-6.6
T7
X6.8Y-5.4
X6.8Y-5.6
X6.8Y-5.8
X6.8Y-4.2
X6.8Y-4.4
X6.8Y-4.6
X6.8Y-4.8
X6.8Y-5.0
X6.8Y-5.2
T8
X6.05Y-6.65
X6.05Y-6.85
T9
X6.4409Y-6.6693
X6.6299Y-6.5512
T10
X3.1693Y-3.1693
X6.8268Y-3.1693
X3.1693Y-6.8307
X6.8307Y-6.8307
T11
X6.4409Y-6.4252
T0
M30
