G04 #@! TF.GenerationSoftware,KiCad,Pcbnew,(5.1.8)-1*
G04 #@! TF.CreationDate,2020-11-22T12:43:29-08:00*
G04 #@! TF.ProjectId,ttl_clock,74746c5f-636c-46f6-936b-2e6b69636164,rev?*
G04 #@! TF.SameCoordinates,Original*
G04 #@! TF.FileFunction,Legend,Top*
G04 #@! TF.FilePolarity,Positive*
%FSLAX46Y46*%
G04 Gerber Fmt 4.6, Leading zero omitted, Abs format (unit mm)*
G04 Created by KiCad (PCBNEW (5.1.8)-1) date 2020-11-22 12:43:29*
%MOMM*%
%LPD*%
G01*
G04 APERTURE LIST*
%ADD10C,0.203200*%
%ADD11C,0.304800*%
%ADD12C,0.200000*%
%ADD13C,0.254000*%
%ADD14C,0.120000*%
%ADD15C,0.152400*%
%ADD16C,0.150000*%
G04 APERTURE END LIST*
D10*
X89847057Y-83126942D02*
X89895438Y-83170485D01*
X89943819Y-83301114D01*
X89943819Y-83388200D01*
X89895438Y-83518828D01*
X89798676Y-83605914D01*
X89701914Y-83649457D01*
X89508390Y-83693000D01*
X89363247Y-83693000D01*
X89169723Y-83649457D01*
X89072961Y-83605914D01*
X88976200Y-83518828D01*
X88927819Y-83388200D01*
X88927819Y-83301114D01*
X88976200Y-83170485D01*
X89024580Y-83126942D01*
X89943819Y-82604428D02*
X89895438Y-82691514D01*
X89847057Y-82735057D01*
X89750295Y-82778600D01*
X89460009Y-82778600D01*
X89363247Y-82735057D01*
X89314866Y-82691514D01*
X89266485Y-82604428D01*
X89266485Y-82473800D01*
X89314866Y-82386714D01*
X89363247Y-82343171D01*
X89460009Y-82299628D01*
X89750295Y-82299628D01*
X89847057Y-82343171D01*
X89895438Y-82386714D01*
X89943819Y-82473800D01*
X89943819Y-82604428D01*
X89266485Y-81907742D02*
X90282485Y-81907742D01*
X89314866Y-81907742D02*
X89266485Y-81820657D01*
X89266485Y-81646485D01*
X89314866Y-81559400D01*
X89363247Y-81515857D01*
X89460009Y-81472314D01*
X89750295Y-81472314D01*
X89847057Y-81515857D01*
X89895438Y-81559400D01*
X89943819Y-81646485D01*
X89943819Y-81820657D01*
X89895438Y-81907742D01*
X89266485Y-81167514D02*
X89943819Y-80949800D01*
X89266485Y-80732085D02*
X89943819Y-80949800D01*
X90185723Y-81036885D01*
X90234104Y-81080428D01*
X90282485Y-81167514D01*
X89943819Y-80383742D02*
X89266485Y-80383742D01*
X89460009Y-80383742D02*
X89363247Y-80340200D01*
X89314866Y-80296657D01*
X89266485Y-80209571D01*
X89266485Y-80122485D01*
X89943819Y-79817685D02*
X89266485Y-79817685D01*
X88927819Y-79817685D02*
X88976200Y-79861228D01*
X89024580Y-79817685D01*
X88976200Y-79774142D01*
X88927819Y-79817685D01*
X89024580Y-79817685D01*
X89266485Y-78990371D02*
X90088961Y-78990371D01*
X90185723Y-79033914D01*
X90234104Y-79077457D01*
X90282485Y-79164542D01*
X90282485Y-79295171D01*
X90234104Y-79382257D01*
X89895438Y-78990371D02*
X89943819Y-79077457D01*
X89943819Y-79251628D01*
X89895438Y-79338714D01*
X89847057Y-79382257D01*
X89750295Y-79425800D01*
X89460009Y-79425800D01*
X89363247Y-79382257D01*
X89314866Y-79338714D01*
X89266485Y-79251628D01*
X89266485Y-79077457D01*
X89314866Y-78990371D01*
X89943819Y-78554942D02*
X88927819Y-78554942D01*
X89943819Y-78163057D02*
X89411628Y-78163057D01*
X89314866Y-78206600D01*
X89266485Y-78293685D01*
X89266485Y-78424314D01*
X89314866Y-78511400D01*
X89363247Y-78554942D01*
X89266485Y-77858257D02*
X89266485Y-77509914D01*
X88927819Y-77727628D02*
X89798676Y-77727628D01*
X89895438Y-77684085D01*
X89943819Y-77597000D01*
X89943819Y-77509914D01*
X92058066Y-83322885D02*
X92009685Y-83366428D01*
X91864542Y-83453514D01*
X91767780Y-83497057D01*
X91622638Y-83540600D01*
X91380733Y-83584142D01*
X91187209Y-83584142D01*
X90945304Y-83540600D01*
X90800161Y-83497057D01*
X90703400Y-83453514D01*
X90558257Y-83366428D01*
X90509876Y-83322885D01*
X91574257Y-82452028D02*
X91622638Y-82495571D01*
X91671019Y-82626200D01*
X91671019Y-82713285D01*
X91622638Y-82843914D01*
X91525876Y-82931000D01*
X91429114Y-82974542D01*
X91235590Y-83018085D01*
X91090447Y-83018085D01*
X90896923Y-82974542D01*
X90800161Y-82931000D01*
X90703400Y-82843914D01*
X90655019Y-82713285D01*
X90655019Y-82626200D01*
X90703400Y-82495571D01*
X90751780Y-82452028D01*
X92058066Y-82147228D02*
X92009685Y-82103685D01*
X91864542Y-82016600D01*
X91767780Y-81973057D01*
X91622638Y-81929514D01*
X91380733Y-81885971D01*
X91187209Y-81885971D01*
X90945304Y-81929514D01*
X90800161Y-81973057D01*
X90703400Y-82016600D01*
X90558257Y-82103685D01*
X90509876Y-82147228D01*
X90751780Y-80797400D02*
X90703400Y-80753857D01*
X90655019Y-80666771D01*
X90655019Y-80449057D01*
X90703400Y-80361971D01*
X90751780Y-80318428D01*
X90848542Y-80274885D01*
X90945304Y-80274885D01*
X91090447Y-80318428D01*
X91671019Y-80840942D01*
X91671019Y-80274885D01*
X90655019Y-79708828D02*
X90655019Y-79621742D01*
X90703400Y-79534657D01*
X90751780Y-79491114D01*
X90848542Y-79447571D01*
X91042066Y-79404028D01*
X91283971Y-79404028D01*
X91477495Y-79447571D01*
X91574257Y-79491114D01*
X91622638Y-79534657D01*
X91671019Y-79621742D01*
X91671019Y-79708828D01*
X91622638Y-79795914D01*
X91574257Y-79839457D01*
X91477495Y-79883000D01*
X91283971Y-79926542D01*
X91042066Y-79926542D01*
X90848542Y-79883000D01*
X90751780Y-79839457D01*
X90703400Y-79795914D01*
X90655019Y-79708828D01*
X90751780Y-79055685D02*
X90703400Y-79012142D01*
X90655019Y-78925057D01*
X90655019Y-78707342D01*
X90703400Y-78620257D01*
X90751780Y-78576714D01*
X90848542Y-78533171D01*
X90945304Y-78533171D01*
X91090447Y-78576714D01*
X91671019Y-79099228D01*
X91671019Y-78533171D01*
X90655019Y-77967114D02*
X90655019Y-77880028D01*
X90703400Y-77792942D01*
X90751780Y-77749400D01*
X90848542Y-77705857D01*
X91042066Y-77662314D01*
X91283971Y-77662314D01*
X91477495Y-77705857D01*
X91574257Y-77749400D01*
X91622638Y-77792942D01*
X91671019Y-77880028D01*
X91671019Y-77967114D01*
X91622638Y-78054200D01*
X91574257Y-78097742D01*
X91477495Y-78141285D01*
X91283971Y-78184828D01*
X91042066Y-78184828D01*
X90848542Y-78141285D01*
X90751780Y-78097742D01*
X90703400Y-78054200D01*
X90655019Y-77967114D01*
X93349838Y-82735057D02*
X93398219Y-82604428D01*
X93398219Y-82386714D01*
X93349838Y-82299628D01*
X93301457Y-82256085D01*
X93204695Y-82212542D01*
X93107933Y-82212542D01*
X93011171Y-82256085D01*
X92962790Y-82299628D01*
X92914409Y-82386714D01*
X92866028Y-82560885D01*
X92817647Y-82647971D01*
X92769266Y-82691514D01*
X92672504Y-82735057D01*
X92575742Y-82735057D01*
X92478980Y-82691514D01*
X92430600Y-82647971D01*
X92382219Y-82560885D01*
X92382219Y-82343171D01*
X92430600Y-82212542D01*
X93349838Y-81472314D02*
X93398219Y-81559400D01*
X93398219Y-81733571D01*
X93349838Y-81820657D01*
X93253076Y-81864200D01*
X92866028Y-81864200D01*
X92769266Y-81820657D01*
X92720885Y-81733571D01*
X92720885Y-81559400D01*
X92769266Y-81472314D01*
X92866028Y-81428771D01*
X92962790Y-81428771D01*
X93059552Y-81864200D01*
X93398219Y-81036885D02*
X92720885Y-81036885D01*
X92914409Y-81036885D02*
X92817647Y-80993342D01*
X92769266Y-80949800D01*
X92720885Y-80862714D01*
X92720885Y-80775628D01*
X92720885Y-80078942D02*
X93543361Y-80078942D01*
X93640123Y-80122485D01*
X93688504Y-80166028D01*
X93736885Y-80253114D01*
X93736885Y-80383742D01*
X93688504Y-80470828D01*
X93349838Y-80078942D02*
X93398219Y-80166028D01*
X93398219Y-80340200D01*
X93349838Y-80427285D01*
X93301457Y-80470828D01*
X93204695Y-80514371D01*
X92914409Y-80514371D01*
X92817647Y-80470828D01*
X92769266Y-80427285D01*
X92720885Y-80340200D01*
X92720885Y-80166028D01*
X92769266Y-80078942D01*
X93349838Y-79295171D02*
X93398219Y-79382257D01*
X93398219Y-79556428D01*
X93349838Y-79643514D01*
X93253076Y-79687057D01*
X92866028Y-79687057D01*
X92769266Y-79643514D01*
X92720885Y-79556428D01*
X92720885Y-79382257D01*
X92769266Y-79295171D01*
X92866028Y-79251628D01*
X92962790Y-79251628D01*
X93059552Y-79687057D01*
X92720885Y-78946828D02*
X93398219Y-78729114D01*
X92720885Y-78511400D02*
X93398219Y-78729114D01*
X93640123Y-78816200D01*
X93688504Y-78859742D01*
X93736885Y-78946828D01*
X95125419Y-82843914D02*
X94109419Y-82843914D01*
X95125419Y-82321400D02*
X94544847Y-82713285D01*
X94109419Y-82321400D02*
X94689990Y-82843914D01*
X95125419Y-81929514D02*
X94448085Y-81929514D01*
X94109419Y-81929514D02*
X94157800Y-81973057D01*
X94206180Y-81929514D01*
X94157800Y-81885971D01*
X94109419Y-81929514D01*
X94206180Y-81929514D01*
X95077038Y-81537628D02*
X95125419Y-81450542D01*
X95125419Y-81276371D01*
X95077038Y-81189285D01*
X94980276Y-81145742D01*
X94931895Y-81145742D01*
X94835133Y-81189285D01*
X94786752Y-81276371D01*
X94786752Y-81407000D01*
X94738371Y-81494085D01*
X94641609Y-81537628D01*
X94593228Y-81537628D01*
X94496466Y-81494085D01*
X94448085Y-81407000D01*
X94448085Y-81276371D01*
X94496466Y-81189285D01*
X95077038Y-80405514D02*
X95125419Y-80492600D01*
X95125419Y-80666771D01*
X95077038Y-80753857D01*
X94980276Y-80797400D01*
X94593228Y-80797400D01*
X94496466Y-80753857D01*
X94448085Y-80666771D01*
X94448085Y-80492600D01*
X94496466Y-80405514D01*
X94593228Y-80361971D01*
X94689990Y-80361971D01*
X94786752Y-80797400D01*
X95125419Y-79839457D02*
X95077038Y-79926542D01*
X94980276Y-79970085D01*
X94109419Y-79970085D01*
X95077038Y-79142771D02*
X95125419Y-79229857D01*
X95125419Y-79404028D01*
X95077038Y-79491114D01*
X94980276Y-79534657D01*
X94593228Y-79534657D01*
X94496466Y-79491114D01*
X94448085Y-79404028D01*
X94448085Y-79229857D01*
X94496466Y-79142771D01*
X94593228Y-79099228D01*
X94689990Y-79099228D01*
X94786752Y-79534657D01*
X94448085Y-78794428D02*
X95125419Y-78576714D01*
X94448085Y-78359000D01*
D11*
X85157128Y-174987857D02*
X85157128Y-174117000D01*
X86681128Y-174552428D02*
X85157128Y-174552428D01*
X85157128Y-173826714D02*
X85157128Y-172955857D01*
X86681128Y-173391285D02*
X85157128Y-173391285D01*
X86681128Y-171722142D02*
X86681128Y-172447857D01*
X85157128Y-172447857D01*
X89126785Y-175241857D02*
X89199357Y-175314428D01*
X89271928Y-175532142D01*
X89271928Y-175677285D01*
X89199357Y-175895000D01*
X89054214Y-176040142D01*
X88909071Y-176112714D01*
X88618785Y-176185285D01*
X88401071Y-176185285D01*
X88110785Y-176112714D01*
X87965642Y-176040142D01*
X87820500Y-175895000D01*
X87747928Y-175677285D01*
X87747928Y-175532142D01*
X87820500Y-175314428D01*
X87893071Y-175241857D01*
X89271928Y-174371000D02*
X89199357Y-174516142D01*
X89054214Y-174588714D01*
X87747928Y-174588714D01*
X89271928Y-173572714D02*
X89199357Y-173717857D01*
X89126785Y-173790428D01*
X88981642Y-173863000D01*
X88546214Y-173863000D01*
X88401071Y-173790428D01*
X88328500Y-173717857D01*
X88255928Y-173572714D01*
X88255928Y-173355000D01*
X88328500Y-173209857D01*
X88401071Y-173137285D01*
X88546214Y-173064714D01*
X88981642Y-173064714D01*
X89126785Y-173137285D01*
X89199357Y-173209857D01*
X89271928Y-173355000D01*
X89271928Y-173572714D01*
X89199357Y-171758428D02*
X89271928Y-171903571D01*
X89271928Y-172193857D01*
X89199357Y-172339000D01*
X89126785Y-172411571D01*
X88981642Y-172484142D01*
X88546214Y-172484142D01*
X88401071Y-172411571D01*
X88328500Y-172339000D01*
X88255928Y-172193857D01*
X88255928Y-171903571D01*
X88328500Y-171758428D01*
X89271928Y-171105285D02*
X87747928Y-171105285D01*
X88691357Y-170960142D02*
X89271928Y-170524714D01*
X88255928Y-170524714D02*
X88836500Y-171105285D01*
X90338728Y-175677285D02*
X91862728Y-175169285D01*
X90338728Y-174661285D01*
X91862728Y-173355000D02*
X91862728Y-174225857D01*
X91862728Y-173790428D02*
X90338728Y-173790428D01*
X90556442Y-173935571D01*
X90701585Y-174080714D01*
X90774157Y-174225857D01*
X91717585Y-172701857D02*
X91790157Y-172629285D01*
X91862728Y-172701857D01*
X91790157Y-172774428D01*
X91717585Y-172701857D01*
X91862728Y-172701857D01*
X91862728Y-171177857D02*
X91862728Y-172048714D01*
X91862728Y-171613285D02*
X90338728Y-171613285D01*
X90556442Y-171758428D01*
X90701585Y-171903571D01*
X90774157Y-172048714D01*
D12*
X86360000Y-79184500D02*
X87630000Y-77914500D01*
X85725000Y-81089500D02*
X86995000Y-79819500D01*
X86360000Y-79819500D02*
X87630000Y-79819500D01*
X85725000Y-79184500D02*
X86995000Y-79184500D01*
X85090000Y-81089500D02*
X86360000Y-81089500D01*
X87630000Y-82359500D02*
X87630000Y-83629500D01*
X86360000Y-81089500D02*
X87630000Y-82359500D01*
X87630000Y-79819500D02*
X86360000Y-81089500D01*
X86995000Y-79184500D02*
X87630000Y-79819500D01*
X87630000Y-78549500D02*
X86995000Y-79184500D01*
X87630000Y-77279500D02*
X87630000Y-78549500D01*
X85725000Y-79184500D02*
X87630000Y-77279500D01*
X86360000Y-79819500D02*
X85725000Y-79184500D01*
X85090000Y-81089500D02*
X86360000Y-79819500D01*
X87630000Y-83629500D02*
X85090000Y-81089500D01*
D13*
X97790000Y-167650000D02*
X97790000Y-169550000D01*
X97790000Y-173350000D02*
X97790000Y-175250000D01*
X98740000Y-169550000D02*
X96840000Y-169550000D01*
X96540000Y-169850000D02*
X96540000Y-173050000D01*
X96840000Y-173350000D02*
X98740000Y-173350000D01*
X99040000Y-173050000D02*
X99040000Y-169850000D01*
X96540000Y-173050000D02*
G75*
G03*
X96840000Y-173350000I300000J0D01*
G01*
X98740000Y-173350000D02*
G75*
G03*
X99040000Y-173050000I0J300000D01*
G01*
X96840000Y-169550000D02*
G75*
G03*
X96540000Y-169850000I0J-300000D01*
G01*
X99040000Y-169850000D02*
G75*
G03*
X98740000Y-169550000I-300000J0D01*
G01*
D14*
X96005000Y-144850000D02*
X96005000Y-170100000D01*
X76715000Y-144850000D02*
X96005000Y-144850000D01*
X76715000Y-170100000D02*
X76715000Y-144850000D01*
X96005000Y-170100000D02*
X76715000Y-170100000D01*
X96260000Y-170350000D02*
X96260000Y-167640000D01*
X96260000Y-170350000D02*
X93980000Y-170350000D01*
D13*
X97282000Y-135890000D02*
X97282000Y-130810000D01*
X118618000Y-135890000D02*
X97282000Y-135890000D01*
X118618000Y-130810000D02*
X118618000Y-135890000D01*
X97282000Y-130810000D02*
X118618000Y-130810000D01*
X97282000Y-134366000D02*
G75*
G03*
X98298000Y-133350000I0J1016000D01*
G01*
X98298000Y-133350000D02*
G75*
G03*
X97282000Y-132334000I-1016000J0D01*
G01*
X97282000Y-118110000D02*
X118618000Y-118110000D01*
X118618000Y-118110000D02*
X118618000Y-123190000D01*
X118618000Y-123190000D02*
X97282000Y-123190000D01*
X97282000Y-123190000D02*
X97282000Y-118110000D01*
X98298000Y-120650000D02*
G75*
G03*
X97282000Y-119634000I-1016000J0D01*
G01*
X97282000Y-121666000D02*
G75*
G03*
X98298000Y-120650000I0J1016000D01*
G01*
X97282000Y-110490000D02*
X97282000Y-105410000D01*
X118618000Y-110490000D02*
X97282000Y-110490000D01*
X118618000Y-105410000D02*
X118618000Y-110490000D01*
X97282000Y-105410000D02*
X118618000Y-105410000D01*
X97282000Y-108966000D02*
G75*
G03*
X98298000Y-107950000I0J1016000D01*
G01*
X98298000Y-107950000D02*
G75*
G03*
X97282000Y-106934000I-1016000J0D01*
G01*
D14*
X96005000Y-83890000D02*
X96005000Y-109140000D01*
X76715000Y-83890000D02*
X96005000Y-83890000D01*
X76715000Y-109140000D02*
X76715000Y-83890000D01*
X96005000Y-109140000D02*
X76715000Y-109140000D01*
X96260000Y-109390000D02*
X96260000Y-106680000D01*
X96260000Y-109390000D02*
X93980000Y-109390000D01*
D13*
X97282000Y-97790000D02*
X97282000Y-92710000D01*
X118618000Y-97790000D02*
X97282000Y-97790000D01*
X118618000Y-92710000D02*
X118618000Y-97790000D01*
X97282000Y-92710000D02*
X118618000Y-92710000D01*
X97282000Y-96266000D02*
G75*
G03*
X98298000Y-95250000I0J1016000D01*
G01*
X98298000Y-95250000D02*
G75*
G03*
X97282000Y-94234000I-1016000J0D01*
G01*
X121900000Y-84150000D02*
X121900000Y-80950000D01*
X119700000Y-84450000D02*
X121600000Y-84450000D01*
X119400000Y-80950000D02*
X119400000Y-84150000D01*
X121600000Y-80650000D02*
X119700000Y-80650000D01*
X120650000Y-84450000D02*
X120650000Y-86350000D01*
X120650000Y-78750000D02*
X120650000Y-80650000D01*
X121900000Y-80950000D02*
G75*
G03*
X121600000Y-80650000I-300000J0D01*
G01*
X119700000Y-80650000D02*
G75*
G03*
X119400000Y-80950000I0J-300000D01*
G01*
X121600000Y-84450000D02*
G75*
G03*
X121900000Y-84150000I0J300000D01*
G01*
X119400000Y-84150000D02*
G75*
G03*
X119700000Y-84450000I300000J0D01*
G01*
X97282000Y-80010000D02*
X118618000Y-80010000D01*
X118618000Y-80010000D02*
X118618000Y-85090000D01*
X118618000Y-85090000D02*
X97282000Y-85090000D01*
X97282000Y-85090000D02*
X97282000Y-80010000D01*
X98298000Y-82550000D02*
G75*
G03*
X97282000Y-81534000I-1016000J0D01*
G01*
X97282000Y-83566000D02*
G75*
G03*
X98298000Y-82550000I0J1016000D01*
G01*
X121900000Y-173050000D02*
X121900000Y-169850000D01*
X119700000Y-173350000D02*
X121600000Y-173350000D01*
X119400000Y-169850000D02*
X119400000Y-173050000D01*
X121600000Y-169550000D02*
X119700000Y-169550000D01*
X120650000Y-173350000D02*
X120650000Y-175250000D01*
X120650000Y-167650000D02*
X120650000Y-169550000D01*
X121900000Y-169850000D02*
G75*
G03*
X121600000Y-169550000I-300000J0D01*
G01*
X119700000Y-169550000D02*
G75*
G03*
X119400000Y-169850000I0J-300000D01*
G01*
X121600000Y-173350000D02*
G75*
G03*
X121900000Y-173050000I0J300000D01*
G01*
X119400000Y-173050000D02*
G75*
G03*
X119700000Y-173350000I300000J0D01*
G01*
X97790000Y-154950000D02*
X97790000Y-156850000D01*
X97790000Y-160650000D02*
X97790000Y-162550000D01*
X98740000Y-156850000D02*
X96840000Y-156850000D01*
X96540000Y-157150000D02*
X96540000Y-160350000D01*
X96840000Y-160650000D02*
X98740000Y-160650000D01*
X99040000Y-160350000D02*
X99040000Y-157150000D01*
X96540000Y-160350000D02*
G75*
G03*
X96840000Y-160650000I300000J0D01*
G01*
X98740000Y-160650000D02*
G75*
G03*
X99040000Y-160350000I0J300000D01*
G01*
X96840000Y-156850000D02*
G75*
G03*
X96540000Y-157150000I0J-300000D01*
G01*
X99040000Y-157150000D02*
G75*
G03*
X98740000Y-156850000I-300000J0D01*
G01*
X121900000Y-160350000D02*
X121900000Y-157150000D01*
X119700000Y-160650000D02*
X121600000Y-160650000D01*
X119400000Y-157150000D02*
X119400000Y-160350000D01*
X121600000Y-156850000D02*
X119700000Y-156850000D01*
X120650000Y-160650000D02*
X120650000Y-162550000D01*
X120650000Y-154950000D02*
X120650000Y-156850000D01*
X121900000Y-157150000D02*
G75*
G03*
X121600000Y-156850000I-300000J0D01*
G01*
X119700000Y-156850000D02*
G75*
G03*
X119400000Y-157150000I0J-300000D01*
G01*
X121600000Y-160650000D02*
G75*
G03*
X121900000Y-160350000I0J300000D01*
G01*
X119400000Y-160350000D02*
G75*
G03*
X119700000Y-160650000I300000J0D01*
G01*
X120650000Y-91450000D02*
X120650000Y-93350000D01*
X120650000Y-97150000D02*
X120650000Y-99050000D01*
X121600000Y-93350000D02*
X119700000Y-93350000D01*
X119400000Y-93650000D02*
X119400000Y-96850000D01*
X119700000Y-97150000D02*
X121600000Y-97150000D01*
X121900000Y-96850000D02*
X121900000Y-93650000D01*
X119400000Y-96850000D02*
G75*
G03*
X119700000Y-97150000I300000J0D01*
G01*
X121600000Y-97150000D02*
G75*
G03*
X121900000Y-96850000I0J300000D01*
G01*
X119700000Y-93350000D02*
G75*
G03*
X119400000Y-93650000I0J-300000D01*
G01*
X121900000Y-93650000D02*
G75*
G03*
X121600000Y-93350000I-300000J0D01*
G01*
X121900000Y-109550000D02*
X121900000Y-106350000D01*
X119700000Y-109850000D02*
X121600000Y-109850000D01*
X119400000Y-106350000D02*
X119400000Y-109550000D01*
X121600000Y-106050000D02*
X119700000Y-106050000D01*
X120650000Y-109850000D02*
X120650000Y-111750000D01*
X120650000Y-104150000D02*
X120650000Y-106050000D01*
X121900000Y-106350000D02*
G75*
G03*
X121600000Y-106050000I-300000J0D01*
G01*
X119700000Y-106050000D02*
G75*
G03*
X119400000Y-106350000I0J-300000D01*
G01*
X121600000Y-109850000D02*
G75*
G03*
X121900000Y-109550000I0J300000D01*
G01*
X119400000Y-109550000D02*
G75*
G03*
X119700000Y-109850000I300000J0D01*
G01*
X120650000Y-116850000D02*
X120650000Y-118750000D01*
X120650000Y-122550000D02*
X120650000Y-124450000D01*
X121600000Y-118750000D02*
X119700000Y-118750000D01*
X119400000Y-119050000D02*
X119400000Y-122250000D01*
X119700000Y-122550000D02*
X121600000Y-122550000D01*
X121900000Y-122250000D02*
X121900000Y-119050000D01*
X119400000Y-122250000D02*
G75*
G03*
X119700000Y-122550000I300000J0D01*
G01*
X121600000Y-122550000D02*
G75*
G03*
X121900000Y-122250000I0J300000D01*
G01*
X119700000Y-118750000D02*
G75*
G03*
X119400000Y-119050000I0J-300000D01*
G01*
X121900000Y-119050000D02*
G75*
G03*
X121600000Y-118750000I-300000J0D01*
G01*
X121900000Y-134950000D02*
X121900000Y-131750000D01*
X119700000Y-135250000D02*
X121600000Y-135250000D01*
X119400000Y-131750000D02*
X119400000Y-134950000D01*
X121600000Y-131450000D02*
X119700000Y-131450000D01*
X120650000Y-135250000D02*
X120650000Y-137150000D01*
X120650000Y-129550000D02*
X120650000Y-131450000D01*
X121900000Y-131750000D02*
G75*
G03*
X121600000Y-131450000I-300000J0D01*
G01*
X119700000Y-131450000D02*
G75*
G03*
X119400000Y-131750000I0J-300000D01*
G01*
X121600000Y-135250000D02*
G75*
G03*
X121900000Y-134950000I0J300000D01*
G01*
X119400000Y-134950000D02*
G75*
G03*
X119700000Y-135250000I300000J0D01*
G01*
X120650000Y-142250000D02*
X120650000Y-144150000D01*
X120650000Y-147950000D02*
X120650000Y-149850000D01*
X121600000Y-144150000D02*
X119700000Y-144150000D01*
X119400000Y-144450000D02*
X119400000Y-147650000D01*
X119700000Y-147950000D02*
X121600000Y-147950000D01*
X121900000Y-147650000D02*
X121900000Y-144450000D01*
X119400000Y-147650000D02*
G75*
G03*
X119700000Y-147950000I300000J0D01*
G01*
X121600000Y-147950000D02*
G75*
G03*
X121900000Y-147650000I0J300000D01*
G01*
X119700000Y-144150000D02*
G75*
G03*
X119400000Y-144450000I0J-300000D01*
G01*
X121900000Y-144450000D02*
G75*
G03*
X121600000Y-144150000I-300000J0D01*
G01*
X144800000Y-80950000D02*
X144800000Y-84150000D01*
X147000000Y-80650000D02*
X145100000Y-80650000D01*
X147300000Y-84150000D02*
X147300000Y-80950000D01*
X145100000Y-84450000D02*
X147000000Y-84450000D01*
X146050000Y-80650000D02*
X146050000Y-78750000D01*
X146050000Y-86350000D02*
X146050000Y-84450000D01*
X144800000Y-84150000D02*
G75*
G03*
X145100000Y-84450000I300000J0D01*
G01*
X147000000Y-84450000D02*
G75*
G03*
X147300000Y-84150000I0J300000D01*
G01*
X145100000Y-80650000D02*
G75*
G03*
X144800000Y-80950000I0J-300000D01*
G01*
X147300000Y-80950000D02*
G75*
G03*
X147000000Y-80650000I-300000J0D01*
G01*
X146050000Y-99050000D02*
X146050000Y-97150000D01*
X146050000Y-93350000D02*
X146050000Y-91450000D01*
X145100000Y-97150000D02*
X147000000Y-97150000D01*
X147300000Y-96850000D02*
X147300000Y-93650000D01*
X147000000Y-93350000D02*
X145100000Y-93350000D01*
X144800000Y-93650000D02*
X144800000Y-96850000D01*
X147300000Y-93650000D02*
G75*
G03*
X147000000Y-93350000I-300000J0D01*
G01*
X145100000Y-93350000D02*
G75*
G03*
X144800000Y-93650000I0J-300000D01*
G01*
X147000000Y-97150000D02*
G75*
G03*
X147300000Y-96850000I0J300000D01*
G01*
X144800000Y-96850000D02*
G75*
G03*
X145100000Y-97150000I300000J0D01*
G01*
X144800000Y-106350000D02*
X144800000Y-109550000D01*
X147000000Y-106050000D02*
X145100000Y-106050000D01*
X147300000Y-109550000D02*
X147300000Y-106350000D01*
X145100000Y-109850000D02*
X147000000Y-109850000D01*
X146050000Y-106050000D02*
X146050000Y-104150000D01*
X146050000Y-111750000D02*
X146050000Y-109850000D01*
X144800000Y-109550000D02*
G75*
G03*
X145100000Y-109850000I300000J0D01*
G01*
X147000000Y-109850000D02*
G75*
G03*
X147300000Y-109550000I0J300000D01*
G01*
X145100000Y-106050000D02*
G75*
G03*
X144800000Y-106350000I0J-300000D01*
G01*
X147300000Y-106350000D02*
G75*
G03*
X147000000Y-106050000I-300000J0D01*
G01*
X146050000Y-124450000D02*
X146050000Y-122550000D01*
X146050000Y-118750000D02*
X146050000Y-116850000D01*
X145100000Y-122550000D02*
X147000000Y-122550000D01*
X147300000Y-122250000D02*
X147300000Y-119050000D01*
X147000000Y-118750000D02*
X145100000Y-118750000D01*
X144800000Y-119050000D02*
X144800000Y-122250000D01*
X147300000Y-119050000D02*
G75*
G03*
X147000000Y-118750000I-300000J0D01*
G01*
X145100000Y-118750000D02*
G75*
G03*
X144800000Y-119050000I0J-300000D01*
G01*
X147000000Y-122550000D02*
G75*
G03*
X147300000Y-122250000I0J300000D01*
G01*
X144800000Y-122250000D02*
G75*
G03*
X145100000Y-122550000I300000J0D01*
G01*
X146050000Y-137150000D02*
X146050000Y-135250000D01*
X146050000Y-131450000D02*
X146050000Y-129550000D01*
X145100000Y-135250000D02*
X147000000Y-135250000D01*
X147300000Y-134950000D02*
X147300000Y-131750000D01*
X147000000Y-131450000D02*
X145100000Y-131450000D01*
X144800000Y-131750000D02*
X144800000Y-134950000D01*
X147300000Y-131750000D02*
G75*
G03*
X147000000Y-131450000I-300000J0D01*
G01*
X145100000Y-131450000D02*
G75*
G03*
X144800000Y-131750000I0J-300000D01*
G01*
X147000000Y-135250000D02*
G75*
G03*
X147300000Y-134950000I0J300000D01*
G01*
X144800000Y-134950000D02*
G75*
G03*
X145100000Y-135250000I300000J0D01*
G01*
X144800000Y-144450000D02*
X144800000Y-147650000D01*
X147000000Y-144150000D02*
X145100000Y-144150000D01*
X147300000Y-147650000D02*
X147300000Y-144450000D01*
X145100000Y-147950000D02*
X147000000Y-147950000D01*
X146050000Y-144150000D02*
X146050000Y-142250000D01*
X146050000Y-149850000D02*
X146050000Y-147950000D01*
X144800000Y-147650000D02*
G75*
G03*
X145100000Y-147950000I300000J0D01*
G01*
X147000000Y-147950000D02*
G75*
G03*
X147300000Y-147650000I0J300000D01*
G01*
X145100000Y-144150000D02*
G75*
G03*
X144800000Y-144450000I0J-300000D01*
G01*
X147300000Y-144450000D02*
G75*
G03*
X147000000Y-144150000I-300000J0D01*
G01*
D14*
X160942259Y-154056000D02*
X160942259Y-154686000D01*
X160627259Y-154371000D02*
X161257259Y-154371000D01*
X167368500Y-155808000D02*
X167368500Y-156612000D01*
X167328500Y-155577000D02*
X167328500Y-156843000D01*
X167288500Y-155408000D02*
X167288500Y-157012000D01*
X167248500Y-155270000D02*
X167248500Y-157150000D01*
X167208500Y-155151000D02*
X167208500Y-157269000D01*
X167168500Y-155045000D02*
X167168500Y-157375000D01*
X167128500Y-154948000D02*
X167128500Y-157472000D01*
X167088500Y-154860000D02*
X167088500Y-157560000D01*
X167048500Y-154778000D02*
X167048500Y-157642000D01*
X167008500Y-154701000D02*
X167008500Y-157719000D01*
X166968500Y-154629000D02*
X166968500Y-157791000D01*
X166928500Y-154560000D02*
X166928500Y-157860000D01*
X166888500Y-154496000D02*
X166888500Y-157924000D01*
X166848500Y-154434000D02*
X166848500Y-157986000D01*
X166808500Y-154376000D02*
X166808500Y-158044000D01*
X166768500Y-154320000D02*
X166768500Y-158100000D01*
X166728500Y-154266000D02*
X166728500Y-158154000D01*
X166688500Y-154215000D02*
X166688500Y-158205000D01*
X166648500Y-154166000D02*
X166648500Y-158254000D01*
X166608500Y-154118000D02*
X166608500Y-158302000D01*
X166568500Y-154073000D02*
X166568500Y-158347000D01*
X166528500Y-154028000D02*
X166528500Y-158392000D01*
X166488500Y-153986000D02*
X166488500Y-158434000D01*
X166448500Y-153945000D02*
X166448500Y-158475000D01*
X166408500Y-157250000D02*
X166408500Y-158515000D01*
X166408500Y-153905000D02*
X166408500Y-155170000D01*
X166368500Y-157250000D02*
X166368500Y-158553000D01*
X166368500Y-153867000D02*
X166368500Y-155170000D01*
X166328500Y-157250000D02*
X166328500Y-158590000D01*
X166328500Y-153830000D02*
X166328500Y-155170000D01*
X166288500Y-157250000D02*
X166288500Y-158626000D01*
X166288500Y-153794000D02*
X166288500Y-155170000D01*
X166248500Y-157250000D02*
X166248500Y-158660000D01*
X166248500Y-153760000D02*
X166248500Y-155170000D01*
X166208500Y-157250000D02*
X166208500Y-158694000D01*
X166208500Y-153726000D02*
X166208500Y-155170000D01*
X166168500Y-157250000D02*
X166168500Y-158726000D01*
X166168500Y-153694000D02*
X166168500Y-155170000D01*
X166128500Y-157250000D02*
X166128500Y-158758000D01*
X166128500Y-153662000D02*
X166128500Y-155170000D01*
X166088500Y-157250000D02*
X166088500Y-158788000D01*
X166088500Y-153632000D02*
X166088500Y-155170000D01*
X166048500Y-157250000D02*
X166048500Y-158817000D01*
X166048500Y-153603000D02*
X166048500Y-155170000D01*
X166008500Y-157250000D02*
X166008500Y-158846000D01*
X166008500Y-153574000D02*
X166008500Y-155170000D01*
X165968500Y-157250000D02*
X165968500Y-158874000D01*
X165968500Y-153546000D02*
X165968500Y-155170000D01*
X165928500Y-157250000D02*
X165928500Y-158900000D01*
X165928500Y-153520000D02*
X165928500Y-155170000D01*
X165888500Y-157250000D02*
X165888500Y-158926000D01*
X165888500Y-153494000D02*
X165888500Y-155170000D01*
X165848500Y-157250000D02*
X165848500Y-158952000D01*
X165848500Y-153468000D02*
X165848500Y-155170000D01*
X165808500Y-157250000D02*
X165808500Y-158976000D01*
X165808500Y-153444000D02*
X165808500Y-155170000D01*
X165768500Y-157250000D02*
X165768500Y-159000000D01*
X165768500Y-153420000D02*
X165768500Y-155170000D01*
X165728500Y-157250000D02*
X165728500Y-159022000D01*
X165728500Y-153398000D02*
X165728500Y-155170000D01*
X165688500Y-157250000D02*
X165688500Y-159044000D01*
X165688500Y-153376000D02*
X165688500Y-155170000D01*
X165648500Y-157250000D02*
X165648500Y-159066000D01*
X165648500Y-153354000D02*
X165648500Y-155170000D01*
X165608500Y-157250000D02*
X165608500Y-159086000D01*
X165608500Y-153334000D02*
X165608500Y-155170000D01*
X165568500Y-157250000D02*
X165568500Y-159106000D01*
X165568500Y-153314000D02*
X165568500Y-155170000D01*
X165528500Y-157250000D02*
X165528500Y-159126000D01*
X165528500Y-153294000D02*
X165528500Y-155170000D01*
X165488500Y-157250000D02*
X165488500Y-159144000D01*
X165488500Y-153276000D02*
X165488500Y-155170000D01*
X165448500Y-157250000D02*
X165448500Y-159162000D01*
X165448500Y-153258000D02*
X165448500Y-155170000D01*
X165408500Y-157250000D02*
X165408500Y-159180000D01*
X165408500Y-153240000D02*
X165408500Y-155170000D01*
X165368500Y-157250000D02*
X165368500Y-159196000D01*
X165368500Y-153224000D02*
X165368500Y-155170000D01*
X165328500Y-157250000D02*
X165328500Y-159212000D01*
X165328500Y-153208000D02*
X165328500Y-155170000D01*
X165288500Y-157250000D02*
X165288500Y-159228000D01*
X165288500Y-153192000D02*
X165288500Y-155170000D01*
X165248500Y-157250000D02*
X165248500Y-159243000D01*
X165248500Y-153177000D02*
X165248500Y-155170000D01*
X165208500Y-157250000D02*
X165208500Y-159257000D01*
X165208500Y-153163000D02*
X165208500Y-155170000D01*
X165168500Y-157250000D02*
X165168500Y-159271000D01*
X165168500Y-153149000D02*
X165168500Y-155170000D01*
X165128500Y-157250000D02*
X165128500Y-159284000D01*
X165128500Y-153136000D02*
X165128500Y-155170000D01*
X165088500Y-157250000D02*
X165088500Y-159296000D01*
X165088500Y-153124000D02*
X165088500Y-155170000D01*
X165048500Y-157250000D02*
X165048500Y-159308000D01*
X165048500Y-153112000D02*
X165048500Y-155170000D01*
X165008500Y-157250000D02*
X165008500Y-159320000D01*
X165008500Y-153100000D02*
X165008500Y-155170000D01*
X164968500Y-157250000D02*
X164968500Y-159331000D01*
X164968500Y-153089000D02*
X164968500Y-155170000D01*
X164928500Y-157250000D02*
X164928500Y-159341000D01*
X164928500Y-153079000D02*
X164928500Y-155170000D01*
X164888500Y-157250000D02*
X164888500Y-159351000D01*
X164888500Y-153069000D02*
X164888500Y-155170000D01*
X164848500Y-157250000D02*
X164848500Y-159360000D01*
X164848500Y-153060000D02*
X164848500Y-155170000D01*
X164807500Y-157250000D02*
X164807500Y-159369000D01*
X164807500Y-153051000D02*
X164807500Y-155170000D01*
X164767500Y-157250000D02*
X164767500Y-159377000D01*
X164767500Y-153043000D02*
X164767500Y-155170000D01*
X164727500Y-157250000D02*
X164727500Y-159385000D01*
X164727500Y-153035000D02*
X164727500Y-155170000D01*
X164687500Y-157250000D02*
X164687500Y-159392000D01*
X164687500Y-153028000D02*
X164687500Y-155170000D01*
X164647500Y-157250000D02*
X164647500Y-159399000D01*
X164647500Y-153021000D02*
X164647500Y-155170000D01*
X164607500Y-157250000D02*
X164607500Y-159405000D01*
X164607500Y-153015000D02*
X164607500Y-155170000D01*
X164567500Y-157250000D02*
X164567500Y-159411000D01*
X164567500Y-153009000D02*
X164567500Y-155170000D01*
X164527500Y-157250000D02*
X164527500Y-159416000D01*
X164527500Y-153004000D02*
X164527500Y-155170000D01*
X164487500Y-157250000D02*
X164487500Y-159421000D01*
X164487500Y-152999000D02*
X164487500Y-155170000D01*
X164447500Y-157250000D02*
X164447500Y-159425000D01*
X164447500Y-152995000D02*
X164447500Y-155170000D01*
X164407500Y-157250000D02*
X164407500Y-159428000D01*
X164407500Y-152992000D02*
X164407500Y-155170000D01*
X164367500Y-157250000D02*
X164367500Y-159432000D01*
X164367500Y-152988000D02*
X164367500Y-155170000D01*
X164327500Y-152986000D02*
X164327500Y-159434000D01*
X164287500Y-152983000D02*
X164287500Y-159437000D01*
X164247500Y-152982000D02*
X164247500Y-159438000D01*
X164207500Y-152980000D02*
X164207500Y-159440000D01*
X164167500Y-152980000D02*
X164167500Y-159440000D01*
X164127500Y-152980000D02*
X164127500Y-159440000D01*
X167397500Y-156210000D02*
G75*
G03*
X167397500Y-156210000I-3270000J0D01*
G01*
D13*
X146177000Y-167894000D02*
X147193000Y-167894000D01*
X147701000Y-168402000D02*
X147701000Y-174498000D01*
X145669000Y-168402000D02*
X145669000Y-174498000D01*
X146177000Y-175006000D02*
X147193000Y-175006000D01*
X145669000Y-174498000D02*
G75*
G03*
X146177000Y-175006000I508000J0D01*
G01*
X147193000Y-175006000D02*
G75*
G03*
X147701000Y-174498000I0J508000D01*
G01*
X146177000Y-167894000D02*
G75*
G03*
X145669000Y-168402000I0J-508000D01*
G01*
X147701000Y-168402000D02*
G75*
G03*
X147193000Y-167894000I-508000J0D01*
G01*
X154568026Y-171450000D02*
G75*
G03*
X154568026Y-171450000I-898026J0D01*
G01*
X156845000Y-171450000D02*
G75*
G03*
X156845000Y-171450000I-3175000J0D01*
G01*
D14*
X82516000Y-110200000D02*
X82360000Y-110200000D01*
X80200000Y-110200000D02*
X80044000Y-110200000D01*
X80200163Y-112801130D02*
G75*
G02*
X80200000Y-110719039I1079837J1041130D01*
G01*
X82359837Y-112801130D02*
G75*
G03*
X82360000Y-110719039I-1079837J1041130D01*
G01*
X80201392Y-113432335D02*
G75*
G02*
X80044484Y-110200000I1078608J1672335D01*
G01*
X82358608Y-113432335D02*
G75*
G03*
X82515516Y-110200000I-1078608J1672335D01*
G01*
X90360000Y-110200000D02*
X90204000Y-110200000D01*
X92676000Y-110200000D02*
X92520000Y-110200000D01*
X92518608Y-113432335D02*
G75*
G03*
X92675516Y-110200000I-1078608J1672335D01*
G01*
X90361392Y-113432335D02*
G75*
G02*
X90204484Y-110200000I1078608J1672335D01*
G01*
X92519837Y-112801130D02*
G75*
G03*
X92520000Y-110719039I-1079837J1041130D01*
G01*
X90360163Y-112801130D02*
G75*
G02*
X90360000Y-110719039I1079837J1041130D01*
G01*
X82516000Y-140680000D02*
X82360000Y-140680000D01*
X80200000Y-140680000D02*
X80044000Y-140680000D01*
X80200163Y-143281130D02*
G75*
G02*
X80200000Y-141199039I1079837J1041130D01*
G01*
X82359837Y-143281130D02*
G75*
G03*
X82360000Y-141199039I-1079837J1041130D01*
G01*
X80201392Y-143912335D02*
G75*
G02*
X80044484Y-140680000I1078608J1672335D01*
G01*
X82358608Y-143912335D02*
G75*
G03*
X82515516Y-140680000I-1078608J1672335D01*
G01*
X90360000Y-140680000D02*
X90204000Y-140680000D01*
X92676000Y-140680000D02*
X92520000Y-140680000D01*
X92518608Y-143912335D02*
G75*
G03*
X92675516Y-140680000I-1078608J1672335D01*
G01*
X90361392Y-143912335D02*
G75*
G02*
X90204484Y-140680000I1078608J1672335D01*
G01*
X92519837Y-143281130D02*
G75*
G03*
X92520000Y-141199039I-1079837J1041130D01*
G01*
X90360163Y-143281130D02*
G75*
G02*
X90360000Y-141199039I1079837J1041130D01*
G01*
D13*
X168100880Y-177098740D02*
X159099120Y-177098740D01*
X168100880Y-162600420D02*
X168100880Y-177098740D01*
X159099120Y-162600420D02*
X168100880Y-162600420D01*
X159099120Y-177098740D02*
X159099120Y-162600420D01*
X159099120Y-173601160D02*
X168100880Y-173601160D01*
X171196000Y-95250000D02*
X171196000Y-100330000D01*
X169418000Y-94996000D02*
X170942000Y-94996000D01*
X169164000Y-100330000D02*
X169164000Y-95250000D01*
X170942000Y-100584000D02*
X169418000Y-100584000D01*
X170180000Y-94996000D02*
X170180000Y-93980000D01*
X170180000Y-101600000D02*
X170180000Y-100584000D01*
X169164000Y-100330000D02*
G75*
G03*
X169418000Y-100584000I254000J0D01*
G01*
X170942000Y-100584000D02*
G75*
G03*
X171196000Y-100330000I0J254000D01*
G01*
X169418000Y-94996000D02*
G75*
G03*
X169164000Y-95250000I0J-254000D01*
G01*
X171196000Y-95250000D02*
G75*
G03*
X170942000Y-94996000I-254000J0D01*
G01*
X172720000Y-101600000D02*
X172720000Y-100584000D01*
X172720000Y-94996000D02*
X172720000Y-93980000D01*
X173482000Y-100584000D02*
X171958000Y-100584000D01*
X171704000Y-100330000D02*
X171704000Y-95250000D01*
X171958000Y-94996000D02*
X173482000Y-94996000D01*
X173736000Y-95250000D02*
X173736000Y-100330000D01*
X173736000Y-95250000D02*
G75*
G03*
X173482000Y-94996000I-254000J0D01*
G01*
X171958000Y-94996000D02*
G75*
G03*
X171704000Y-95250000I0J-254000D01*
G01*
X173482000Y-100584000D02*
G75*
G03*
X173736000Y-100330000I0J254000D01*
G01*
X171704000Y-100330000D02*
G75*
G03*
X171958000Y-100584000I254000J0D01*
G01*
X175260000Y-101600000D02*
X175260000Y-100584000D01*
X175260000Y-94996000D02*
X175260000Y-93980000D01*
X176022000Y-100584000D02*
X174498000Y-100584000D01*
X174244000Y-100330000D02*
X174244000Y-95250000D01*
X174498000Y-94996000D02*
X176022000Y-94996000D01*
X176276000Y-95250000D02*
X176276000Y-100330000D01*
X176276000Y-95250000D02*
G75*
G03*
X176022000Y-94996000I-254000J0D01*
G01*
X174498000Y-94996000D02*
G75*
G03*
X174244000Y-95250000I0J-254000D01*
G01*
X176022000Y-100584000D02*
G75*
G03*
X176276000Y-100330000I0J254000D01*
G01*
X174244000Y-100330000D02*
G75*
G03*
X174498000Y-100584000I254000J0D01*
G01*
X169799000Y-158750000D02*
X169799000Y-153670000D01*
X171577000Y-159004000D02*
X170053000Y-159004000D01*
X171831000Y-153670000D02*
X171831000Y-158750000D01*
X170053000Y-153416000D02*
X171577000Y-153416000D01*
X170815000Y-159004000D02*
X170815000Y-160020000D01*
X170815000Y-152400000D02*
X170815000Y-153416000D01*
X171831000Y-153670000D02*
G75*
G03*
X171577000Y-153416000I-254000J0D01*
G01*
X170053000Y-153416000D02*
G75*
G03*
X169799000Y-153670000I0J-254000D01*
G01*
X171577000Y-159004000D02*
G75*
G03*
X171831000Y-158750000I0J254000D01*
G01*
X169799000Y-158750000D02*
G75*
G03*
X170053000Y-159004000I254000J0D01*
G01*
X173355000Y-152400000D02*
X173355000Y-153416000D01*
X173355000Y-159004000D02*
X173355000Y-160020000D01*
X172593000Y-153416000D02*
X174117000Y-153416000D01*
X174371000Y-153670000D02*
X174371000Y-158750000D01*
X174117000Y-159004000D02*
X172593000Y-159004000D01*
X172339000Y-158750000D02*
X172339000Y-153670000D01*
X172339000Y-158750000D02*
G75*
G03*
X172593000Y-159004000I254000J0D01*
G01*
X174117000Y-159004000D02*
G75*
G03*
X174371000Y-158750000I0J254000D01*
G01*
X172593000Y-153416000D02*
G75*
G03*
X172339000Y-153670000I0J-254000D01*
G01*
X174371000Y-153670000D02*
G75*
G03*
X174117000Y-153416000I-254000J0D01*
G01*
X148209000Y-165100000D02*
X148209000Y-160020000D01*
X149987000Y-165354000D02*
X148463000Y-165354000D01*
X150241000Y-160020000D02*
X150241000Y-165100000D01*
X148463000Y-159766000D02*
X149987000Y-159766000D01*
X149225000Y-165354000D02*
X149225000Y-166370000D01*
X149225000Y-158750000D02*
X149225000Y-159766000D01*
X150241000Y-160020000D02*
G75*
G03*
X149987000Y-159766000I-254000J0D01*
G01*
X148463000Y-159766000D02*
G75*
G03*
X148209000Y-160020000I0J-254000D01*
G01*
X149987000Y-165354000D02*
G75*
G03*
X150241000Y-165100000I0J254000D01*
G01*
X148209000Y-165100000D02*
G75*
G03*
X148463000Y-165354000I254000J0D01*
G01*
X146685000Y-166370000D02*
X146685000Y-165354000D01*
X146685000Y-159766000D02*
X146685000Y-158750000D01*
X147447000Y-165354000D02*
X145923000Y-165354000D01*
X145669000Y-165100000D02*
X145669000Y-160020000D01*
X145923000Y-159766000D02*
X147447000Y-159766000D01*
X147701000Y-160020000D02*
X147701000Y-165100000D01*
X147701000Y-160020000D02*
G75*
G03*
X147447000Y-159766000I-254000J0D01*
G01*
X145923000Y-159766000D02*
G75*
G03*
X145669000Y-160020000I0J-254000D01*
G01*
X147447000Y-165354000D02*
G75*
G03*
X147701000Y-165100000I0J254000D01*
G01*
X145669000Y-165100000D02*
G75*
G03*
X145923000Y-165354000I254000J0D01*
G01*
X175620000Y-118160000D02*
X175620000Y-105360000D01*
X169820000Y-118160000D02*
X169820000Y-105360000D01*
X169820000Y-118160000D02*
X175620000Y-118160000D01*
X169820000Y-105360000D02*
X175620000Y-105360000D01*
X169820000Y-120600000D02*
X175620000Y-120600000D01*
X169820000Y-133400000D02*
X175620000Y-133400000D01*
X169820000Y-133400000D02*
X169820000Y-120600000D01*
X175620000Y-133400000D02*
X175620000Y-120600000D01*
X175620000Y-148640000D02*
X175620000Y-135840000D01*
X169820000Y-148640000D02*
X169820000Y-135840000D01*
X169820000Y-148640000D02*
X175620000Y-148640000D01*
X169820000Y-135840000D02*
X175620000Y-135840000D01*
X122682000Y-173990000D02*
X122682000Y-168910000D01*
X144018000Y-173990000D02*
X122682000Y-173990000D01*
X144018000Y-168910000D02*
X144018000Y-173990000D01*
X122682000Y-168910000D02*
X144018000Y-168910000D01*
X122682000Y-172466000D02*
G75*
G03*
X123698000Y-171450000I0J1016000D01*
G01*
X123698000Y-171450000D02*
G75*
G03*
X122682000Y-170434000I-1016000J0D01*
G01*
X119380000Y-156210000D02*
X99060000Y-156210000D01*
X99060000Y-156210000D02*
X99060000Y-161290000D01*
X99060000Y-161290000D02*
X119380000Y-161290000D01*
X119380000Y-161290000D02*
X119380000Y-156210000D01*
X100076000Y-158750000D02*
G75*
G03*
X99060000Y-157734000I-1016000J0D01*
G01*
X99060000Y-159766000D02*
G75*
G03*
X100076000Y-158750000I0J1016000D01*
G01*
X142240000Y-156210000D02*
X121920000Y-156210000D01*
X121920000Y-156210000D02*
X121920000Y-161290000D01*
X121920000Y-161290000D02*
X142240000Y-161290000D01*
X142240000Y-161290000D02*
X142240000Y-156210000D01*
X122936000Y-158750000D02*
G75*
G03*
X121920000Y-157734000I-1016000J0D01*
G01*
X121920000Y-159766000D02*
G75*
G03*
X122936000Y-158750000I0J1016000D01*
G01*
X119380000Y-173990000D02*
X119380000Y-168910000D01*
X99060000Y-173990000D02*
X119380000Y-173990000D01*
X99060000Y-168910000D02*
X99060000Y-173990000D01*
X119380000Y-168910000D02*
X99060000Y-168910000D01*
X99060000Y-172466000D02*
G75*
G03*
X100076000Y-171450000I0J1016000D01*
G01*
X100076000Y-171450000D02*
G75*
G03*
X99060000Y-170434000I-1016000J0D01*
G01*
X122682000Y-80010000D02*
X144018000Y-80010000D01*
X144018000Y-80010000D02*
X144018000Y-85090000D01*
X144018000Y-85090000D02*
X122682000Y-85090000D01*
X122682000Y-85090000D02*
X122682000Y-80010000D01*
X123698000Y-82550000D02*
G75*
G03*
X122682000Y-81534000I-1016000J0D01*
G01*
X122682000Y-83566000D02*
G75*
G03*
X123698000Y-82550000I0J1016000D01*
G01*
X122682000Y-97790000D02*
X122682000Y-92710000D01*
X144018000Y-97790000D02*
X122682000Y-97790000D01*
X144018000Y-92710000D02*
X144018000Y-97790000D01*
X122682000Y-92710000D02*
X144018000Y-92710000D01*
X122682000Y-96266000D02*
G75*
G03*
X123698000Y-95250000I0J1016000D01*
G01*
X123698000Y-95250000D02*
G75*
G03*
X122682000Y-94234000I-1016000J0D01*
G01*
X122682000Y-105410000D02*
X144018000Y-105410000D01*
X144018000Y-105410000D02*
X144018000Y-110490000D01*
X144018000Y-110490000D02*
X122682000Y-110490000D01*
X122682000Y-110490000D02*
X122682000Y-105410000D01*
X123698000Y-107950000D02*
G75*
G03*
X122682000Y-106934000I-1016000J0D01*
G01*
X122682000Y-108966000D02*
G75*
G03*
X123698000Y-107950000I0J1016000D01*
G01*
X122682000Y-123190000D02*
X122682000Y-118110000D01*
X144018000Y-123190000D02*
X122682000Y-123190000D01*
X144018000Y-118110000D02*
X144018000Y-123190000D01*
X122682000Y-118110000D02*
X144018000Y-118110000D01*
X122682000Y-121666000D02*
G75*
G03*
X123698000Y-120650000I0J1016000D01*
G01*
X123698000Y-120650000D02*
G75*
G03*
X122682000Y-119634000I-1016000J0D01*
G01*
X122682000Y-130810000D02*
X144018000Y-130810000D01*
X144018000Y-130810000D02*
X144018000Y-135890000D01*
X144018000Y-135890000D02*
X122682000Y-135890000D01*
X122682000Y-135890000D02*
X122682000Y-130810000D01*
X123698000Y-133350000D02*
G75*
G03*
X122682000Y-132334000I-1016000J0D01*
G01*
X122682000Y-134366000D02*
G75*
G03*
X123698000Y-133350000I0J1016000D01*
G01*
X122682000Y-148590000D02*
X122682000Y-143510000D01*
X144018000Y-148590000D02*
X122682000Y-148590000D01*
X144018000Y-143510000D02*
X144018000Y-148590000D01*
X122682000Y-143510000D02*
X144018000Y-143510000D01*
X122682000Y-147066000D02*
G75*
G03*
X123698000Y-146050000I0J1016000D01*
G01*
X123698000Y-146050000D02*
G75*
G03*
X122682000Y-145034000I-1016000J0D01*
G01*
X167640000Y-80010000D02*
X147320000Y-80010000D01*
X147320000Y-80010000D02*
X147320000Y-85090000D01*
X147320000Y-85090000D02*
X167640000Y-85090000D01*
X167640000Y-85090000D02*
X167640000Y-80010000D01*
X148336000Y-82550000D02*
G75*
G03*
X147320000Y-81534000I-1016000J0D01*
G01*
X147320000Y-83566000D02*
G75*
G03*
X148336000Y-82550000I0J1016000D01*
G01*
X167640000Y-92710000D02*
X147320000Y-92710000D01*
X147320000Y-92710000D02*
X147320000Y-97790000D01*
X147320000Y-97790000D02*
X167640000Y-97790000D01*
X167640000Y-97790000D02*
X167640000Y-92710000D01*
X148336000Y-95250000D02*
G75*
G03*
X147320000Y-94234000I-1016000J0D01*
G01*
X147320000Y-96266000D02*
G75*
G03*
X148336000Y-95250000I0J1016000D01*
G01*
X167640000Y-110490000D02*
X167640000Y-105410000D01*
X147320000Y-110490000D02*
X167640000Y-110490000D01*
X147320000Y-105410000D02*
X147320000Y-110490000D01*
X167640000Y-105410000D02*
X147320000Y-105410000D01*
X147320000Y-108966000D02*
G75*
G03*
X148336000Y-107950000I0J1016000D01*
G01*
X148336000Y-107950000D02*
G75*
G03*
X147320000Y-106934000I-1016000J0D01*
G01*
X167640000Y-118110000D02*
X147320000Y-118110000D01*
X147320000Y-118110000D02*
X147320000Y-123190000D01*
X147320000Y-123190000D02*
X167640000Y-123190000D01*
X167640000Y-123190000D02*
X167640000Y-118110000D01*
X148336000Y-120650000D02*
G75*
G03*
X147320000Y-119634000I-1016000J0D01*
G01*
X147320000Y-121666000D02*
G75*
G03*
X148336000Y-120650000I0J1016000D01*
G01*
X167640000Y-130810000D02*
X147320000Y-130810000D01*
X147320000Y-130810000D02*
X147320000Y-135890000D01*
X147320000Y-135890000D02*
X167640000Y-135890000D01*
X167640000Y-135890000D02*
X167640000Y-130810000D01*
X148336000Y-133350000D02*
G75*
G03*
X147320000Y-132334000I-1016000J0D01*
G01*
X147320000Y-134366000D02*
G75*
G03*
X148336000Y-133350000I0J1016000D01*
G01*
X167640000Y-148590000D02*
X167640000Y-143510000D01*
X147320000Y-148590000D02*
X167640000Y-148590000D01*
X147320000Y-143510000D02*
X147320000Y-148590000D01*
X167640000Y-143510000D02*
X147320000Y-143510000D01*
X147320000Y-147066000D02*
G75*
G03*
X148336000Y-146050000I0J1016000D01*
G01*
X148336000Y-146050000D02*
G75*
G03*
X147320000Y-145034000I-1016000J0D01*
G01*
D10*
X156017631Y-166370000D02*
G75*
G03*
X156017631Y-166370000I-1077631J0D01*
G01*
X153477631Y-166370000D02*
G75*
G03*
X153477631Y-166370000I-1077631J0D01*
G01*
X152146000Y-164338000D02*
X155194000Y-164338000D01*
X152146000Y-156210000D02*
X152146000Y-164338000D01*
X155194000Y-156210000D02*
X152146000Y-156210000D01*
X155194000Y-164338000D02*
X155194000Y-156210000D01*
X154432000Y-164338000D02*
X154686000Y-165354000D01*
X152908000Y-164338000D02*
X152654000Y-165354000D01*
D14*
X96260000Y-139870000D02*
X93980000Y-139870000D01*
X96260000Y-139870000D02*
X96260000Y-137160000D01*
X96005000Y-139620000D02*
X76715000Y-139620000D01*
X76715000Y-139620000D02*
X76715000Y-114370000D01*
X76715000Y-114370000D02*
X96005000Y-114370000D01*
X96005000Y-114370000D02*
X96005000Y-139620000D01*
D13*
X97282000Y-143510000D02*
X118618000Y-143510000D01*
X118618000Y-143510000D02*
X118618000Y-148590000D01*
X118618000Y-148590000D02*
X97282000Y-148590000D01*
X97282000Y-148590000D02*
X97282000Y-143510000D01*
X98298000Y-146050000D02*
G75*
G03*
X97282000Y-145034000I-1016000J0D01*
G01*
X97282000Y-147066000D02*
G75*
G03*
X98298000Y-146050000I0J1016000D01*
G01*
D10*
X94342857Y-172889333D02*
X94391238Y-172937714D01*
X94439619Y-173082857D01*
X94439619Y-173179619D01*
X94391238Y-173324761D01*
X94294476Y-173421523D01*
X94197714Y-173469904D01*
X94004190Y-173518285D01*
X93859047Y-173518285D01*
X93665523Y-173469904D01*
X93568761Y-173421523D01*
X93472000Y-173324761D01*
X93423619Y-173179619D01*
X93423619Y-173082857D01*
X93472000Y-172937714D01*
X93520380Y-172889333D01*
X93762285Y-172018476D02*
X94439619Y-172018476D01*
X93375238Y-172260380D02*
X94100952Y-172502285D01*
X94100952Y-171873333D01*
X95709619Y-174240855D02*
X95709619Y-174763369D01*
X95709619Y-174502112D02*
X94693619Y-174375112D01*
X94838761Y-174480340D01*
X94935523Y-174579521D01*
X94983904Y-174672655D01*
X94693619Y-173547798D02*
X94693619Y-173460712D01*
X94742000Y-173379674D01*
X94790380Y-173342179D01*
X94887142Y-173310731D01*
X95080666Y-173291379D01*
X95322571Y-173321617D01*
X95516095Y-173389350D01*
X95612857Y-173444988D01*
X95661238Y-173494579D01*
X95709619Y-173587712D01*
X95709619Y-173674798D01*
X95661238Y-173755836D01*
X95612857Y-173793331D01*
X95516095Y-173824779D01*
X95322571Y-173844131D01*
X95080666Y-173813893D01*
X94887142Y-173746160D01*
X94790380Y-173690521D01*
X94742000Y-173640931D01*
X94693619Y-173547798D01*
X94693619Y-172676940D02*
X94693619Y-172589855D01*
X94742000Y-172508817D01*
X94790380Y-172471321D01*
X94887142Y-172439874D01*
X95080666Y-172420521D01*
X95322571Y-172450760D01*
X95516095Y-172518493D01*
X95612857Y-172574131D01*
X95661238Y-172623721D01*
X95709619Y-172716855D01*
X95709619Y-172803940D01*
X95661238Y-172884979D01*
X95612857Y-172922474D01*
X95516095Y-172953921D01*
X95322571Y-172973274D01*
X95080666Y-172943036D01*
X94887142Y-172875302D01*
X94790380Y-172819664D01*
X94742000Y-172770074D01*
X94693619Y-172676940D01*
X95032285Y-172022588D02*
X95709619Y-172107255D01*
X95129047Y-172034683D02*
X95080666Y-171985093D01*
X95032285Y-171891960D01*
X95032285Y-171761331D01*
X95080666Y-171680293D01*
X95177428Y-171648845D01*
X95709619Y-171715369D01*
X95177428Y-170908617D02*
X95177428Y-171213417D01*
X95709619Y-171279940D02*
X94693619Y-171152940D01*
X94693619Y-170717512D01*
X96598619Y-153657904D02*
X97421095Y-153657904D01*
X97517857Y-153609523D01*
X97566238Y-153561142D01*
X97614619Y-153464380D01*
X97614619Y-153270857D01*
X97566238Y-153174095D01*
X97517857Y-153125714D01*
X97421095Y-153077333D01*
X96598619Y-153077333D01*
X97614619Y-152061333D02*
X97614619Y-152641904D01*
X97614619Y-152351619D02*
X96598619Y-152351619D01*
X96743761Y-152448380D01*
X96840523Y-152545142D01*
X96888904Y-152641904D01*
X97614619Y-151577523D02*
X97614619Y-151384000D01*
X97566238Y-151287238D01*
X97517857Y-151238857D01*
X97372714Y-151142095D01*
X97179190Y-151093714D01*
X96792142Y-151093714D01*
X96695380Y-151142095D01*
X96647000Y-151190476D01*
X96598619Y-151287238D01*
X96598619Y-151480761D01*
X96647000Y-151577523D01*
X96695380Y-151625904D01*
X96792142Y-151674285D01*
X97034047Y-151674285D01*
X97130809Y-151625904D01*
X97179190Y-151577523D01*
X97227571Y-151480761D01*
X97227571Y-151287238D01*
X97179190Y-151190476D01*
X97130809Y-151142095D01*
X97034047Y-151093714D01*
X99652666Y-139524619D02*
X99314000Y-139040809D01*
X99072095Y-139524619D02*
X99072095Y-138508619D01*
X99459142Y-138508619D01*
X99555904Y-138557000D01*
X99604285Y-138605380D01*
X99652666Y-138702142D01*
X99652666Y-138847285D01*
X99604285Y-138944047D01*
X99555904Y-138992428D01*
X99459142Y-139040809D01*
X99072095Y-139040809D01*
X100088095Y-139524619D02*
X100088095Y-138508619D01*
X100475142Y-138508619D01*
X100571904Y-138557000D01*
X100620285Y-138605380D01*
X100668666Y-138702142D01*
X100668666Y-138847285D01*
X100620285Y-138944047D01*
X100571904Y-138992428D01*
X100475142Y-139040809D01*
X100088095Y-139040809D01*
X101587904Y-138508619D02*
X101104095Y-138508619D01*
X101055714Y-138992428D01*
X101104095Y-138944047D01*
X101200857Y-138895666D01*
X101442761Y-138895666D01*
X101539523Y-138944047D01*
X101587904Y-138992428D01*
X101636285Y-139089190D01*
X101636285Y-139331095D01*
X101587904Y-139427857D01*
X101539523Y-139476238D01*
X101442761Y-139524619D01*
X101200857Y-139524619D01*
X101104095Y-139476238D01*
X101055714Y-139427857D01*
X114852268Y-138847285D02*
X114767601Y-139524619D01*
X114682935Y-138460238D02*
X114374506Y-139185952D01*
X114940563Y-139185952D01*
X115286487Y-138508619D02*
X115896087Y-138508619D01*
X115377201Y-139524619D01*
X116418601Y-138508619D02*
X116505687Y-138508619D01*
X116586725Y-138557000D01*
X116624220Y-138605380D01*
X116655668Y-138702142D01*
X116675020Y-138895666D01*
X116644782Y-139137571D01*
X116577049Y-139331095D01*
X116521411Y-139427857D01*
X116471820Y-139476238D01*
X116378687Y-139524619D01*
X116291601Y-139524619D01*
X116210563Y-139476238D01*
X116173068Y-139427857D01*
X116141620Y-139331095D01*
X116122268Y-139137571D01*
X116152506Y-138895666D01*
X116220240Y-138702142D01*
X116275878Y-138605380D01*
X116325468Y-138557000D01*
X116418601Y-138508619D01*
X99652666Y-126824619D02*
X99314000Y-126340809D01*
X99072095Y-126824619D02*
X99072095Y-125808619D01*
X99459142Y-125808619D01*
X99555904Y-125857000D01*
X99604285Y-125905380D01*
X99652666Y-126002142D01*
X99652666Y-126147285D01*
X99604285Y-126244047D01*
X99555904Y-126292428D01*
X99459142Y-126340809D01*
X99072095Y-126340809D01*
X100088095Y-126824619D02*
X100088095Y-125808619D01*
X100475142Y-125808619D01*
X100571904Y-125857000D01*
X100620285Y-125905380D01*
X100668666Y-126002142D01*
X100668666Y-126147285D01*
X100620285Y-126244047D01*
X100571904Y-126292428D01*
X100475142Y-126340809D01*
X100088095Y-126340809D01*
X101539523Y-126147285D02*
X101539523Y-126824619D01*
X101297619Y-125760238D02*
X101055714Y-126485952D01*
X101684666Y-126485952D01*
X114852268Y-126147285D02*
X114767601Y-126824619D01*
X114682935Y-125760238D02*
X114374506Y-126485952D01*
X114940563Y-126485952D01*
X115286487Y-125808619D02*
X115896087Y-125808619D01*
X115377201Y-126824619D01*
X116418601Y-125808619D02*
X116505687Y-125808619D01*
X116586725Y-125857000D01*
X116624220Y-125905380D01*
X116655668Y-126002142D01*
X116675020Y-126195666D01*
X116644782Y-126437571D01*
X116577049Y-126631095D01*
X116521411Y-126727857D01*
X116471820Y-126776238D01*
X116378687Y-126824619D01*
X116291601Y-126824619D01*
X116210563Y-126776238D01*
X116173068Y-126727857D01*
X116141620Y-126631095D01*
X116122268Y-126437571D01*
X116152506Y-126195666D01*
X116220240Y-126002142D01*
X116275878Y-125905380D01*
X116325468Y-125857000D01*
X116418601Y-125808619D01*
X99652666Y-114124619D02*
X99314000Y-113640809D01*
X99072095Y-114124619D02*
X99072095Y-113108619D01*
X99459142Y-113108619D01*
X99555904Y-113157000D01*
X99604285Y-113205380D01*
X99652666Y-113302142D01*
X99652666Y-113447285D01*
X99604285Y-113544047D01*
X99555904Y-113592428D01*
X99459142Y-113640809D01*
X99072095Y-113640809D01*
X100088095Y-114124619D02*
X100088095Y-113108619D01*
X100475142Y-113108619D01*
X100571904Y-113157000D01*
X100620285Y-113205380D01*
X100668666Y-113302142D01*
X100668666Y-113447285D01*
X100620285Y-113544047D01*
X100571904Y-113592428D01*
X100475142Y-113640809D01*
X100088095Y-113640809D01*
X101007333Y-113108619D02*
X101636285Y-113108619D01*
X101297619Y-113495666D01*
X101442761Y-113495666D01*
X101539523Y-113544047D01*
X101587904Y-113592428D01*
X101636285Y-113689190D01*
X101636285Y-113931095D01*
X101587904Y-114027857D01*
X101539523Y-114076238D01*
X101442761Y-114124619D01*
X101152476Y-114124619D01*
X101055714Y-114076238D01*
X101007333Y-114027857D01*
X114852268Y-113447285D02*
X114767601Y-114124619D01*
X114682935Y-113060238D02*
X114374506Y-113785952D01*
X114940563Y-113785952D01*
X115286487Y-113108619D02*
X115896087Y-113108619D01*
X115377201Y-114124619D01*
X116418601Y-113108619D02*
X116505687Y-113108619D01*
X116586725Y-113157000D01*
X116624220Y-113205380D01*
X116655668Y-113302142D01*
X116675020Y-113495666D01*
X116644782Y-113737571D01*
X116577049Y-113931095D01*
X116521411Y-114027857D01*
X116471820Y-114076238D01*
X116378687Y-114124619D01*
X116291601Y-114124619D01*
X116210563Y-114076238D01*
X116173068Y-114027857D01*
X116141620Y-113931095D01*
X116122268Y-113737571D01*
X116152506Y-113495666D01*
X116220240Y-113302142D01*
X116275878Y-113205380D01*
X116325468Y-113157000D01*
X116418601Y-113108619D01*
X96598619Y-102540404D02*
X97421095Y-102540404D01*
X97517857Y-102492023D01*
X97566238Y-102443642D01*
X97614619Y-102346880D01*
X97614619Y-102153357D01*
X97566238Y-102056595D01*
X97517857Y-102008214D01*
X97421095Y-101959833D01*
X96598619Y-101959833D01*
X97614619Y-100943833D02*
X97614619Y-101524404D01*
X97614619Y-101234119D02*
X96598619Y-101234119D01*
X96743761Y-101330880D01*
X96840523Y-101427642D01*
X96888904Y-101524404D01*
X96598619Y-100605166D02*
X96598619Y-99927833D01*
X97614619Y-100363261D01*
X99652666Y-101424619D02*
X99314000Y-100940809D01*
X99072095Y-101424619D02*
X99072095Y-100408619D01*
X99459142Y-100408619D01*
X99555904Y-100457000D01*
X99604285Y-100505380D01*
X99652666Y-100602142D01*
X99652666Y-100747285D01*
X99604285Y-100844047D01*
X99555904Y-100892428D01*
X99459142Y-100940809D01*
X99072095Y-100940809D01*
X100088095Y-101424619D02*
X100088095Y-100408619D01*
X100475142Y-100408619D01*
X100571904Y-100457000D01*
X100620285Y-100505380D01*
X100668666Y-100602142D01*
X100668666Y-100747285D01*
X100620285Y-100844047D01*
X100571904Y-100892428D01*
X100475142Y-100940809D01*
X100088095Y-100940809D01*
X101055714Y-100505380D02*
X101104095Y-100457000D01*
X101200857Y-100408619D01*
X101442761Y-100408619D01*
X101539523Y-100457000D01*
X101587904Y-100505380D01*
X101636285Y-100602142D01*
X101636285Y-100698904D01*
X101587904Y-100844047D01*
X101007333Y-101424619D01*
X101636285Y-101424619D01*
X114852268Y-100747285D02*
X114767601Y-101424619D01*
X114682935Y-100360238D02*
X114374506Y-101085952D01*
X114940563Y-101085952D01*
X115286487Y-100408619D02*
X115896087Y-100408619D01*
X115377201Y-101424619D01*
X116418601Y-100408619D02*
X116505687Y-100408619D01*
X116586725Y-100457000D01*
X116624220Y-100505380D01*
X116655668Y-100602142D01*
X116675020Y-100795666D01*
X116644782Y-101037571D01*
X116577049Y-101231095D01*
X116521411Y-101327857D01*
X116471820Y-101376238D01*
X116378687Y-101424619D01*
X116291601Y-101424619D01*
X116210563Y-101376238D01*
X116173068Y-101327857D01*
X116141620Y-101231095D01*
X116122268Y-101037571D01*
X116152506Y-100795666D01*
X116220240Y-100602142D01*
X116275878Y-100505380D01*
X116325468Y-100457000D01*
X116418601Y-100408619D01*
X120480666Y-88627857D02*
X120432285Y-88676238D01*
X120287142Y-88724619D01*
X120190380Y-88724619D01*
X120045238Y-88676238D01*
X119948476Y-88579476D01*
X119900095Y-88482714D01*
X119851714Y-88289190D01*
X119851714Y-88144047D01*
X119900095Y-87950523D01*
X119948476Y-87853761D01*
X120045238Y-87757000D01*
X120190380Y-87708619D01*
X120287142Y-87708619D01*
X120432285Y-87757000D01*
X120480666Y-87805380D01*
X121399904Y-87708619D02*
X120916095Y-87708619D01*
X120867714Y-88192428D01*
X120916095Y-88144047D01*
X121012857Y-88095666D01*
X121254761Y-88095666D01*
X121351523Y-88144047D01*
X121399904Y-88192428D01*
X121448285Y-88289190D01*
X121448285Y-88531095D01*
X121399904Y-88627857D01*
X121351523Y-88676238D01*
X121254761Y-88724619D01*
X121012857Y-88724619D01*
X120916095Y-88676238D01*
X120867714Y-88627857D01*
X119129144Y-89994619D02*
X118606630Y-89994619D01*
X118867887Y-89994619D02*
X118994887Y-88978619D01*
X118889659Y-89123761D01*
X118790478Y-89220523D01*
X118697344Y-89268904D01*
X119822201Y-88978619D02*
X119909287Y-88978619D01*
X119990325Y-89027000D01*
X120027820Y-89075380D01*
X120059268Y-89172142D01*
X120078620Y-89365666D01*
X120048382Y-89607571D01*
X119980649Y-89801095D01*
X119925011Y-89897857D01*
X119875420Y-89946238D01*
X119782287Y-89994619D01*
X119695201Y-89994619D01*
X119614163Y-89946238D01*
X119576668Y-89897857D01*
X119545220Y-89801095D01*
X119525868Y-89607571D01*
X119556106Y-89365666D01*
X119623840Y-89172142D01*
X119679478Y-89075380D01*
X119729068Y-89027000D01*
X119822201Y-88978619D01*
X120693059Y-88978619D02*
X120780144Y-88978619D01*
X120861182Y-89027000D01*
X120898678Y-89075380D01*
X120930125Y-89172142D01*
X120949478Y-89365666D01*
X120919240Y-89607571D01*
X120851506Y-89801095D01*
X120795868Y-89897857D01*
X120746278Y-89946238D01*
X120653144Y-89994619D01*
X120566059Y-89994619D01*
X120485020Y-89946238D01*
X120447525Y-89897857D01*
X120416078Y-89801095D01*
X120396725Y-89607571D01*
X120426963Y-89365666D01*
X120494697Y-89172142D01*
X120550335Y-89075380D01*
X120599925Y-89027000D01*
X120693059Y-88978619D01*
X121347411Y-89317285D02*
X121262744Y-89994619D01*
X121335316Y-89414047D02*
X121384906Y-89365666D01*
X121478040Y-89317285D01*
X121608668Y-89317285D01*
X121689706Y-89365666D01*
X121721154Y-89462428D01*
X121654630Y-89994619D01*
X122461382Y-89462428D02*
X122156582Y-89462428D01*
X122090059Y-89994619D02*
X122217059Y-88978619D01*
X122652487Y-88978619D01*
X99652666Y-88724619D02*
X99314000Y-88240809D01*
X99072095Y-88724619D02*
X99072095Y-87708619D01*
X99459142Y-87708619D01*
X99555904Y-87757000D01*
X99604285Y-87805380D01*
X99652666Y-87902142D01*
X99652666Y-88047285D01*
X99604285Y-88144047D01*
X99555904Y-88192428D01*
X99459142Y-88240809D01*
X99072095Y-88240809D01*
X100088095Y-88724619D02*
X100088095Y-87708619D01*
X100475142Y-87708619D01*
X100571904Y-87757000D01*
X100620285Y-87805380D01*
X100668666Y-87902142D01*
X100668666Y-88047285D01*
X100620285Y-88144047D01*
X100571904Y-88192428D01*
X100475142Y-88240809D01*
X100088095Y-88240809D01*
X101636285Y-88724619D02*
X101055714Y-88724619D01*
X101346000Y-88724619D02*
X101346000Y-87708619D01*
X101249238Y-87853761D01*
X101152476Y-87950523D01*
X101055714Y-87998904D01*
X114852268Y-88047285D02*
X114767601Y-88724619D01*
X114682935Y-87660238D02*
X114374506Y-88385952D01*
X114940563Y-88385952D01*
X115286487Y-87708619D02*
X115896087Y-87708619D01*
X115377201Y-88724619D01*
X116418601Y-87708619D02*
X116505687Y-87708619D01*
X116586725Y-87757000D01*
X116624220Y-87805380D01*
X116655668Y-87902142D01*
X116675020Y-88095666D01*
X116644782Y-88337571D01*
X116577049Y-88531095D01*
X116521411Y-88627857D01*
X116471820Y-88676238D01*
X116378687Y-88724619D01*
X116291601Y-88724619D01*
X116210563Y-88676238D01*
X116173068Y-88627857D01*
X116141620Y-88531095D01*
X116122268Y-88337571D01*
X116152506Y-88095666D01*
X116220240Y-87902142D01*
X116275878Y-87805380D01*
X116325468Y-87757000D01*
X116418601Y-87708619D01*
X118575666Y-166097857D02*
X118527285Y-166146238D01*
X118382142Y-166194619D01*
X118285380Y-166194619D01*
X118140238Y-166146238D01*
X118043476Y-166049476D01*
X117995095Y-165952714D01*
X117946714Y-165759190D01*
X117946714Y-165614047D01*
X117995095Y-165420523D01*
X118043476Y-165323761D01*
X118140238Y-165227000D01*
X118285380Y-165178619D01*
X118382142Y-165178619D01*
X118527285Y-165227000D01*
X118575666Y-165275380D01*
X119543285Y-166194619D02*
X118962714Y-166194619D01*
X119253000Y-166194619D02*
X119253000Y-165178619D01*
X119156238Y-165323761D01*
X119059476Y-165420523D01*
X118962714Y-165468904D01*
X121034144Y-166194619D02*
X120511630Y-166194619D01*
X120772887Y-166194619D02*
X120899887Y-165178619D01*
X120794659Y-165323761D01*
X120695478Y-165420523D01*
X120602344Y-165468904D01*
X121727201Y-165178619D02*
X121814287Y-165178619D01*
X121895325Y-165227000D01*
X121932820Y-165275380D01*
X121964268Y-165372142D01*
X121983620Y-165565666D01*
X121953382Y-165807571D01*
X121885649Y-166001095D01*
X121830011Y-166097857D01*
X121780420Y-166146238D01*
X121687287Y-166194619D01*
X121600201Y-166194619D01*
X121519163Y-166146238D01*
X121481668Y-166097857D01*
X121450220Y-166001095D01*
X121430868Y-165807571D01*
X121461106Y-165565666D01*
X121528840Y-165372142D01*
X121584478Y-165275380D01*
X121634068Y-165227000D01*
X121727201Y-165178619D01*
X122598059Y-165178619D02*
X122685144Y-165178619D01*
X122766182Y-165227000D01*
X122803678Y-165275380D01*
X122835125Y-165372142D01*
X122854478Y-165565666D01*
X122824240Y-165807571D01*
X122756506Y-166001095D01*
X122700868Y-166097857D01*
X122651278Y-166146238D01*
X122558144Y-166194619D01*
X122471059Y-166194619D01*
X122390020Y-166146238D01*
X122352525Y-166097857D01*
X122321078Y-166001095D01*
X122301725Y-165807571D01*
X122331963Y-165565666D01*
X122399697Y-165372142D01*
X122455335Y-165275380D01*
X122504925Y-165227000D01*
X122598059Y-165178619D01*
X123252411Y-165517285D02*
X123167744Y-166194619D01*
X123240316Y-165614047D02*
X123289906Y-165565666D01*
X123383040Y-165517285D01*
X123513668Y-165517285D01*
X123594706Y-165565666D01*
X123626154Y-165662428D01*
X123559630Y-166194619D01*
X124366382Y-165662428D02*
X124061582Y-165662428D01*
X123995059Y-166194619D02*
X124122059Y-165178619D01*
X124557487Y-165178619D01*
X97620666Y-164827857D02*
X97572285Y-164876238D01*
X97427142Y-164924619D01*
X97330380Y-164924619D01*
X97185238Y-164876238D01*
X97088476Y-164779476D01*
X97040095Y-164682714D01*
X96991714Y-164489190D01*
X96991714Y-164344047D01*
X97040095Y-164150523D01*
X97088476Y-164053761D01*
X97185238Y-163957000D01*
X97330380Y-163908619D01*
X97427142Y-163908619D01*
X97572285Y-163957000D01*
X97620666Y-164005380D01*
X98007714Y-164005380D02*
X98056095Y-163957000D01*
X98152857Y-163908619D01*
X98394761Y-163908619D01*
X98491523Y-163957000D01*
X98539904Y-164005380D01*
X98588285Y-164102142D01*
X98588285Y-164198904D01*
X98539904Y-164344047D01*
X97959333Y-164924619D01*
X98588285Y-164924619D01*
X96904144Y-166194619D02*
X96381630Y-166194619D01*
X96642887Y-166194619D02*
X96769887Y-165178619D01*
X96664659Y-165323761D01*
X96565478Y-165420523D01*
X96472344Y-165468904D01*
X97597201Y-165178619D02*
X97684287Y-165178619D01*
X97765325Y-165227000D01*
X97802820Y-165275380D01*
X97834268Y-165372142D01*
X97853620Y-165565666D01*
X97823382Y-165807571D01*
X97755649Y-166001095D01*
X97700011Y-166097857D01*
X97650420Y-166146238D01*
X97557287Y-166194619D01*
X97470201Y-166194619D01*
X97389163Y-166146238D01*
X97351668Y-166097857D01*
X97320220Y-166001095D01*
X97300868Y-165807571D01*
X97331106Y-165565666D01*
X97398840Y-165372142D01*
X97454478Y-165275380D01*
X97504068Y-165227000D01*
X97597201Y-165178619D01*
X98468059Y-165178619D02*
X98555144Y-165178619D01*
X98636182Y-165227000D01*
X98673678Y-165275380D01*
X98705125Y-165372142D01*
X98724478Y-165565666D01*
X98694240Y-165807571D01*
X98626506Y-166001095D01*
X98570868Y-166097857D01*
X98521278Y-166146238D01*
X98428144Y-166194619D01*
X98341059Y-166194619D01*
X98260020Y-166146238D01*
X98222525Y-166097857D01*
X98191078Y-166001095D01*
X98171725Y-165807571D01*
X98201963Y-165565666D01*
X98269697Y-165372142D01*
X98325335Y-165275380D01*
X98374925Y-165227000D01*
X98468059Y-165178619D01*
X99122411Y-165517285D02*
X99037744Y-166194619D01*
X99110316Y-165614047D02*
X99159906Y-165565666D01*
X99253040Y-165517285D01*
X99383668Y-165517285D01*
X99464706Y-165565666D01*
X99496154Y-165662428D01*
X99429630Y-166194619D01*
X100236382Y-165662428D02*
X99931582Y-165662428D01*
X99865059Y-166194619D02*
X99992059Y-165178619D01*
X100427487Y-165178619D01*
X118575666Y-164827857D02*
X118527285Y-164876238D01*
X118382142Y-164924619D01*
X118285380Y-164924619D01*
X118140238Y-164876238D01*
X118043476Y-164779476D01*
X117995095Y-164682714D01*
X117946714Y-164489190D01*
X117946714Y-164344047D01*
X117995095Y-164150523D01*
X118043476Y-164053761D01*
X118140238Y-163957000D01*
X118285380Y-163908619D01*
X118382142Y-163908619D01*
X118527285Y-163957000D01*
X118575666Y-164005380D01*
X118914333Y-163908619D02*
X119543285Y-163908619D01*
X119204619Y-164295666D01*
X119349761Y-164295666D01*
X119446523Y-164344047D01*
X119494904Y-164392428D01*
X119543285Y-164489190D01*
X119543285Y-164731095D01*
X119494904Y-164827857D01*
X119446523Y-164876238D01*
X119349761Y-164924619D01*
X119059476Y-164924619D01*
X118962714Y-164876238D01*
X118914333Y-164827857D01*
X121034144Y-164924619D02*
X120511630Y-164924619D01*
X120772887Y-164924619D02*
X120899887Y-163908619D01*
X120794659Y-164053761D01*
X120695478Y-164150523D01*
X120602344Y-164198904D01*
X121727201Y-163908619D02*
X121814287Y-163908619D01*
X121895325Y-163957000D01*
X121932820Y-164005380D01*
X121964268Y-164102142D01*
X121983620Y-164295666D01*
X121953382Y-164537571D01*
X121885649Y-164731095D01*
X121830011Y-164827857D01*
X121780420Y-164876238D01*
X121687287Y-164924619D01*
X121600201Y-164924619D01*
X121519163Y-164876238D01*
X121481668Y-164827857D01*
X121450220Y-164731095D01*
X121430868Y-164537571D01*
X121461106Y-164295666D01*
X121528840Y-164102142D01*
X121584478Y-164005380D01*
X121634068Y-163957000D01*
X121727201Y-163908619D01*
X122598059Y-163908619D02*
X122685144Y-163908619D01*
X122766182Y-163957000D01*
X122803678Y-164005380D01*
X122835125Y-164102142D01*
X122854478Y-164295666D01*
X122824240Y-164537571D01*
X122756506Y-164731095D01*
X122700868Y-164827857D01*
X122651278Y-164876238D01*
X122558144Y-164924619D01*
X122471059Y-164924619D01*
X122390020Y-164876238D01*
X122352525Y-164827857D01*
X122321078Y-164731095D01*
X122301725Y-164537571D01*
X122331963Y-164295666D01*
X122399697Y-164102142D01*
X122455335Y-164005380D01*
X122504925Y-163957000D01*
X122598059Y-163908619D01*
X123252411Y-164247285D02*
X123167744Y-164924619D01*
X123240316Y-164344047D02*
X123289906Y-164295666D01*
X123383040Y-164247285D01*
X123513668Y-164247285D01*
X123594706Y-164295666D01*
X123626154Y-164392428D01*
X123559630Y-164924619D01*
X124366382Y-164392428D02*
X124061582Y-164392428D01*
X123995059Y-164924619D02*
X124122059Y-163908619D01*
X124557487Y-163908619D01*
X120480666Y-101327857D02*
X120432285Y-101376238D01*
X120287142Y-101424619D01*
X120190380Y-101424619D01*
X120045238Y-101376238D01*
X119948476Y-101279476D01*
X119900095Y-101182714D01*
X119851714Y-100989190D01*
X119851714Y-100844047D01*
X119900095Y-100650523D01*
X119948476Y-100553761D01*
X120045238Y-100457000D01*
X120190380Y-100408619D01*
X120287142Y-100408619D01*
X120432285Y-100457000D01*
X120480666Y-100505380D01*
X121351523Y-100408619D02*
X121158000Y-100408619D01*
X121061238Y-100457000D01*
X121012857Y-100505380D01*
X120916095Y-100650523D01*
X120867714Y-100844047D01*
X120867714Y-101231095D01*
X120916095Y-101327857D01*
X120964476Y-101376238D01*
X121061238Y-101424619D01*
X121254761Y-101424619D01*
X121351523Y-101376238D01*
X121399904Y-101327857D01*
X121448285Y-101231095D01*
X121448285Y-100989190D01*
X121399904Y-100892428D01*
X121351523Y-100844047D01*
X121254761Y-100795666D01*
X121061238Y-100795666D01*
X120964476Y-100844047D01*
X120916095Y-100892428D01*
X120867714Y-100989190D01*
X119129144Y-102694619D02*
X118606630Y-102694619D01*
X118867887Y-102694619D02*
X118994887Y-101678619D01*
X118889659Y-101823761D01*
X118790478Y-101920523D01*
X118697344Y-101968904D01*
X119822201Y-101678619D02*
X119909287Y-101678619D01*
X119990325Y-101727000D01*
X120027820Y-101775380D01*
X120059268Y-101872142D01*
X120078620Y-102065666D01*
X120048382Y-102307571D01*
X119980649Y-102501095D01*
X119925011Y-102597857D01*
X119875420Y-102646238D01*
X119782287Y-102694619D01*
X119695201Y-102694619D01*
X119614163Y-102646238D01*
X119576668Y-102597857D01*
X119545220Y-102501095D01*
X119525868Y-102307571D01*
X119556106Y-102065666D01*
X119623840Y-101872142D01*
X119679478Y-101775380D01*
X119729068Y-101727000D01*
X119822201Y-101678619D01*
X120693059Y-101678619D02*
X120780144Y-101678619D01*
X120861182Y-101727000D01*
X120898678Y-101775380D01*
X120930125Y-101872142D01*
X120949478Y-102065666D01*
X120919240Y-102307571D01*
X120851506Y-102501095D01*
X120795868Y-102597857D01*
X120746278Y-102646238D01*
X120653144Y-102694619D01*
X120566059Y-102694619D01*
X120485020Y-102646238D01*
X120447525Y-102597857D01*
X120416078Y-102501095D01*
X120396725Y-102307571D01*
X120426963Y-102065666D01*
X120494697Y-101872142D01*
X120550335Y-101775380D01*
X120599925Y-101727000D01*
X120693059Y-101678619D01*
X121347411Y-102017285D02*
X121262744Y-102694619D01*
X121335316Y-102114047D02*
X121384906Y-102065666D01*
X121478040Y-102017285D01*
X121608668Y-102017285D01*
X121689706Y-102065666D01*
X121721154Y-102162428D01*
X121654630Y-102694619D01*
X122461382Y-102162428D02*
X122156582Y-102162428D01*
X122090059Y-102694619D02*
X122217059Y-101678619D01*
X122652487Y-101678619D01*
X120480666Y-114027857D02*
X120432285Y-114076238D01*
X120287142Y-114124619D01*
X120190380Y-114124619D01*
X120045238Y-114076238D01*
X119948476Y-113979476D01*
X119900095Y-113882714D01*
X119851714Y-113689190D01*
X119851714Y-113544047D01*
X119900095Y-113350523D01*
X119948476Y-113253761D01*
X120045238Y-113157000D01*
X120190380Y-113108619D01*
X120287142Y-113108619D01*
X120432285Y-113157000D01*
X120480666Y-113205380D01*
X120819333Y-113108619D02*
X121496666Y-113108619D01*
X121061238Y-114124619D01*
X119129144Y-115394619D02*
X118606630Y-115394619D01*
X118867887Y-115394619D02*
X118994887Y-114378619D01*
X118889659Y-114523761D01*
X118790478Y-114620523D01*
X118697344Y-114668904D01*
X119822201Y-114378619D02*
X119909287Y-114378619D01*
X119990325Y-114427000D01*
X120027820Y-114475380D01*
X120059268Y-114572142D01*
X120078620Y-114765666D01*
X120048382Y-115007571D01*
X119980649Y-115201095D01*
X119925011Y-115297857D01*
X119875420Y-115346238D01*
X119782287Y-115394619D01*
X119695201Y-115394619D01*
X119614163Y-115346238D01*
X119576668Y-115297857D01*
X119545220Y-115201095D01*
X119525868Y-115007571D01*
X119556106Y-114765666D01*
X119623840Y-114572142D01*
X119679478Y-114475380D01*
X119729068Y-114427000D01*
X119822201Y-114378619D01*
X120693059Y-114378619D02*
X120780144Y-114378619D01*
X120861182Y-114427000D01*
X120898678Y-114475380D01*
X120930125Y-114572142D01*
X120949478Y-114765666D01*
X120919240Y-115007571D01*
X120851506Y-115201095D01*
X120795868Y-115297857D01*
X120746278Y-115346238D01*
X120653144Y-115394619D01*
X120566059Y-115394619D01*
X120485020Y-115346238D01*
X120447525Y-115297857D01*
X120416078Y-115201095D01*
X120396725Y-115007571D01*
X120426963Y-114765666D01*
X120494697Y-114572142D01*
X120550335Y-114475380D01*
X120599925Y-114427000D01*
X120693059Y-114378619D01*
X121347411Y-114717285D02*
X121262744Y-115394619D01*
X121335316Y-114814047D02*
X121384906Y-114765666D01*
X121478040Y-114717285D01*
X121608668Y-114717285D01*
X121689706Y-114765666D01*
X121721154Y-114862428D01*
X121654630Y-115394619D01*
X122461382Y-114862428D02*
X122156582Y-114862428D01*
X122090059Y-115394619D02*
X122217059Y-114378619D01*
X122652487Y-114378619D01*
X120480666Y-126727857D02*
X120432285Y-126776238D01*
X120287142Y-126824619D01*
X120190380Y-126824619D01*
X120045238Y-126776238D01*
X119948476Y-126679476D01*
X119900095Y-126582714D01*
X119851714Y-126389190D01*
X119851714Y-126244047D01*
X119900095Y-126050523D01*
X119948476Y-125953761D01*
X120045238Y-125857000D01*
X120190380Y-125808619D01*
X120287142Y-125808619D01*
X120432285Y-125857000D01*
X120480666Y-125905380D01*
X121061238Y-126244047D02*
X120964476Y-126195666D01*
X120916095Y-126147285D01*
X120867714Y-126050523D01*
X120867714Y-126002142D01*
X120916095Y-125905380D01*
X120964476Y-125857000D01*
X121061238Y-125808619D01*
X121254761Y-125808619D01*
X121351523Y-125857000D01*
X121399904Y-125905380D01*
X121448285Y-126002142D01*
X121448285Y-126050523D01*
X121399904Y-126147285D01*
X121351523Y-126195666D01*
X121254761Y-126244047D01*
X121061238Y-126244047D01*
X120964476Y-126292428D01*
X120916095Y-126340809D01*
X120867714Y-126437571D01*
X120867714Y-126631095D01*
X120916095Y-126727857D01*
X120964476Y-126776238D01*
X121061238Y-126824619D01*
X121254761Y-126824619D01*
X121351523Y-126776238D01*
X121399904Y-126727857D01*
X121448285Y-126631095D01*
X121448285Y-126437571D01*
X121399904Y-126340809D01*
X121351523Y-126292428D01*
X121254761Y-126244047D01*
X119129144Y-128094619D02*
X118606630Y-128094619D01*
X118867887Y-128094619D02*
X118994887Y-127078619D01*
X118889659Y-127223761D01*
X118790478Y-127320523D01*
X118697344Y-127368904D01*
X119822201Y-127078619D02*
X119909287Y-127078619D01*
X119990325Y-127127000D01*
X120027820Y-127175380D01*
X120059268Y-127272142D01*
X120078620Y-127465666D01*
X120048382Y-127707571D01*
X119980649Y-127901095D01*
X119925011Y-127997857D01*
X119875420Y-128046238D01*
X119782287Y-128094619D01*
X119695201Y-128094619D01*
X119614163Y-128046238D01*
X119576668Y-127997857D01*
X119545220Y-127901095D01*
X119525868Y-127707571D01*
X119556106Y-127465666D01*
X119623840Y-127272142D01*
X119679478Y-127175380D01*
X119729068Y-127127000D01*
X119822201Y-127078619D01*
X120693059Y-127078619D02*
X120780144Y-127078619D01*
X120861182Y-127127000D01*
X120898678Y-127175380D01*
X120930125Y-127272142D01*
X120949478Y-127465666D01*
X120919240Y-127707571D01*
X120851506Y-127901095D01*
X120795868Y-127997857D01*
X120746278Y-128046238D01*
X120653144Y-128094619D01*
X120566059Y-128094619D01*
X120485020Y-128046238D01*
X120447525Y-127997857D01*
X120416078Y-127901095D01*
X120396725Y-127707571D01*
X120426963Y-127465666D01*
X120494697Y-127272142D01*
X120550335Y-127175380D01*
X120599925Y-127127000D01*
X120693059Y-127078619D01*
X121347411Y-127417285D02*
X121262744Y-128094619D01*
X121335316Y-127514047D02*
X121384906Y-127465666D01*
X121478040Y-127417285D01*
X121608668Y-127417285D01*
X121689706Y-127465666D01*
X121721154Y-127562428D01*
X121654630Y-128094619D01*
X122461382Y-127562428D02*
X122156582Y-127562428D01*
X122090059Y-128094619D02*
X122217059Y-127078619D01*
X122652487Y-127078619D01*
X120480666Y-139427857D02*
X120432285Y-139476238D01*
X120287142Y-139524619D01*
X120190380Y-139524619D01*
X120045238Y-139476238D01*
X119948476Y-139379476D01*
X119900095Y-139282714D01*
X119851714Y-139089190D01*
X119851714Y-138944047D01*
X119900095Y-138750523D01*
X119948476Y-138653761D01*
X120045238Y-138557000D01*
X120190380Y-138508619D01*
X120287142Y-138508619D01*
X120432285Y-138557000D01*
X120480666Y-138605380D01*
X120964476Y-139524619D02*
X121158000Y-139524619D01*
X121254761Y-139476238D01*
X121303142Y-139427857D01*
X121399904Y-139282714D01*
X121448285Y-139089190D01*
X121448285Y-138702142D01*
X121399904Y-138605380D01*
X121351523Y-138557000D01*
X121254761Y-138508619D01*
X121061238Y-138508619D01*
X120964476Y-138557000D01*
X120916095Y-138605380D01*
X120867714Y-138702142D01*
X120867714Y-138944047D01*
X120916095Y-139040809D01*
X120964476Y-139089190D01*
X121061238Y-139137571D01*
X121254761Y-139137571D01*
X121351523Y-139089190D01*
X121399904Y-139040809D01*
X121448285Y-138944047D01*
X119129144Y-140794619D02*
X118606630Y-140794619D01*
X118867887Y-140794619D02*
X118994887Y-139778619D01*
X118889659Y-139923761D01*
X118790478Y-140020523D01*
X118697344Y-140068904D01*
X119822201Y-139778619D02*
X119909287Y-139778619D01*
X119990325Y-139827000D01*
X120027820Y-139875380D01*
X120059268Y-139972142D01*
X120078620Y-140165666D01*
X120048382Y-140407571D01*
X119980649Y-140601095D01*
X119925011Y-140697857D01*
X119875420Y-140746238D01*
X119782287Y-140794619D01*
X119695201Y-140794619D01*
X119614163Y-140746238D01*
X119576668Y-140697857D01*
X119545220Y-140601095D01*
X119525868Y-140407571D01*
X119556106Y-140165666D01*
X119623840Y-139972142D01*
X119679478Y-139875380D01*
X119729068Y-139827000D01*
X119822201Y-139778619D01*
X120693059Y-139778619D02*
X120780144Y-139778619D01*
X120861182Y-139827000D01*
X120898678Y-139875380D01*
X120930125Y-139972142D01*
X120949478Y-140165666D01*
X120919240Y-140407571D01*
X120851506Y-140601095D01*
X120795868Y-140697857D01*
X120746278Y-140746238D01*
X120653144Y-140794619D01*
X120566059Y-140794619D01*
X120485020Y-140746238D01*
X120447525Y-140697857D01*
X120416078Y-140601095D01*
X120396725Y-140407571D01*
X120426963Y-140165666D01*
X120494697Y-139972142D01*
X120550335Y-139875380D01*
X120599925Y-139827000D01*
X120693059Y-139778619D01*
X121347411Y-140117285D02*
X121262744Y-140794619D01*
X121335316Y-140214047D02*
X121384906Y-140165666D01*
X121478040Y-140117285D01*
X121608668Y-140117285D01*
X121689706Y-140165666D01*
X121721154Y-140262428D01*
X121654630Y-140794619D01*
X122461382Y-140262428D02*
X122156582Y-140262428D01*
X122090059Y-140794619D02*
X122217059Y-139778619D01*
X122652487Y-139778619D01*
X119996857Y-152127857D02*
X119948476Y-152176238D01*
X119803333Y-152224619D01*
X119706571Y-152224619D01*
X119561428Y-152176238D01*
X119464666Y-152079476D01*
X119416285Y-151982714D01*
X119367904Y-151789190D01*
X119367904Y-151644047D01*
X119416285Y-151450523D01*
X119464666Y-151353761D01*
X119561428Y-151257000D01*
X119706571Y-151208619D01*
X119803333Y-151208619D01*
X119948476Y-151257000D01*
X119996857Y-151305380D01*
X120964476Y-152224619D02*
X120383904Y-152224619D01*
X120674190Y-152224619D02*
X120674190Y-151208619D01*
X120577428Y-151353761D01*
X120480666Y-151450523D01*
X120383904Y-151498904D01*
X121593428Y-151208619D02*
X121690190Y-151208619D01*
X121786952Y-151257000D01*
X121835333Y-151305380D01*
X121883714Y-151402142D01*
X121932095Y-151595666D01*
X121932095Y-151837571D01*
X121883714Y-152031095D01*
X121835333Y-152127857D01*
X121786952Y-152176238D01*
X121690190Y-152224619D01*
X121593428Y-152224619D01*
X121496666Y-152176238D01*
X121448285Y-152127857D01*
X121399904Y-152031095D01*
X121351523Y-151837571D01*
X121351523Y-151595666D01*
X121399904Y-151402142D01*
X121448285Y-151305380D01*
X121496666Y-151257000D01*
X121593428Y-151208619D01*
X119129144Y-153494619D02*
X118606630Y-153494619D01*
X118867887Y-153494619D02*
X118994887Y-152478619D01*
X118889659Y-152623761D01*
X118790478Y-152720523D01*
X118697344Y-152768904D01*
X119822201Y-152478619D02*
X119909287Y-152478619D01*
X119990325Y-152527000D01*
X120027820Y-152575380D01*
X120059268Y-152672142D01*
X120078620Y-152865666D01*
X120048382Y-153107571D01*
X119980649Y-153301095D01*
X119925011Y-153397857D01*
X119875420Y-153446238D01*
X119782287Y-153494619D01*
X119695201Y-153494619D01*
X119614163Y-153446238D01*
X119576668Y-153397857D01*
X119545220Y-153301095D01*
X119525868Y-153107571D01*
X119556106Y-152865666D01*
X119623840Y-152672142D01*
X119679478Y-152575380D01*
X119729068Y-152527000D01*
X119822201Y-152478619D01*
X120693059Y-152478619D02*
X120780144Y-152478619D01*
X120861182Y-152527000D01*
X120898678Y-152575380D01*
X120930125Y-152672142D01*
X120949478Y-152865666D01*
X120919240Y-153107571D01*
X120851506Y-153301095D01*
X120795868Y-153397857D01*
X120746278Y-153446238D01*
X120653144Y-153494619D01*
X120566059Y-153494619D01*
X120485020Y-153446238D01*
X120447525Y-153397857D01*
X120416078Y-153301095D01*
X120396725Y-153107571D01*
X120426963Y-152865666D01*
X120494697Y-152672142D01*
X120550335Y-152575380D01*
X120599925Y-152527000D01*
X120693059Y-152478619D01*
X121347411Y-152817285D02*
X121262744Y-153494619D01*
X121335316Y-152914047D02*
X121384906Y-152865666D01*
X121478040Y-152817285D01*
X121608668Y-152817285D01*
X121689706Y-152865666D01*
X121721154Y-152962428D01*
X121654630Y-153494619D01*
X122461382Y-152962428D02*
X122156582Y-152962428D01*
X122090059Y-153494619D02*
X122217059Y-152478619D01*
X122652487Y-152478619D01*
X145396857Y-88627857D02*
X145348476Y-88676238D01*
X145203333Y-88724619D01*
X145106571Y-88724619D01*
X144961428Y-88676238D01*
X144864666Y-88579476D01*
X144816285Y-88482714D01*
X144767904Y-88289190D01*
X144767904Y-88144047D01*
X144816285Y-87950523D01*
X144864666Y-87853761D01*
X144961428Y-87757000D01*
X145106571Y-87708619D01*
X145203333Y-87708619D01*
X145348476Y-87757000D01*
X145396857Y-87805380D01*
X146364476Y-88724619D02*
X145783904Y-88724619D01*
X146074190Y-88724619D02*
X146074190Y-87708619D01*
X145977428Y-87853761D01*
X145880666Y-87950523D01*
X145783904Y-87998904D01*
X147332095Y-88724619D02*
X146751523Y-88724619D01*
X147041809Y-88724619D02*
X147041809Y-87708619D01*
X146945047Y-87853761D01*
X146848285Y-87950523D01*
X146751523Y-87998904D01*
X144529144Y-89994619D02*
X144006630Y-89994619D01*
X144267887Y-89994619D02*
X144394887Y-88978619D01*
X144289659Y-89123761D01*
X144190478Y-89220523D01*
X144097344Y-89268904D01*
X145222201Y-88978619D02*
X145309287Y-88978619D01*
X145390325Y-89027000D01*
X145427820Y-89075380D01*
X145459268Y-89172142D01*
X145478620Y-89365666D01*
X145448382Y-89607571D01*
X145380649Y-89801095D01*
X145325011Y-89897857D01*
X145275420Y-89946238D01*
X145182287Y-89994619D01*
X145095201Y-89994619D01*
X145014163Y-89946238D01*
X144976668Y-89897857D01*
X144945220Y-89801095D01*
X144925868Y-89607571D01*
X144956106Y-89365666D01*
X145023840Y-89172142D01*
X145079478Y-89075380D01*
X145129068Y-89027000D01*
X145222201Y-88978619D01*
X146093059Y-88978619D02*
X146180144Y-88978619D01*
X146261182Y-89027000D01*
X146298678Y-89075380D01*
X146330125Y-89172142D01*
X146349478Y-89365666D01*
X146319240Y-89607571D01*
X146251506Y-89801095D01*
X146195868Y-89897857D01*
X146146278Y-89946238D01*
X146053144Y-89994619D01*
X145966059Y-89994619D01*
X145885020Y-89946238D01*
X145847525Y-89897857D01*
X145816078Y-89801095D01*
X145796725Y-89607571D01*
X145826963Y-89365666D01*
X145894697Y-89172142D01*
X145950335Y-89075380D01*
X145999925Y-89027000D01*
X146093059Y-88978619D01*
X146747411Y-89317285D02*
X146662744Y-89994619D01*
X146735316Y-89414047D02*
X146784906Y-89365666D01*
X146878040Y-89317285D01*
X147008668Y-89317285D01*
X147089706Y-89365666D01*
X147121154Y-89462428D01*
X147054630Y-89994619D01*
X147861382Y-89462428D02*
X147556582Y-89462428D01*
X147490059Y-89994619D02*
X147617059Y-88978619D01*
X148052487Y-88978619D01*
X145396857Y-101327857D02*
X145348476Y-101376238D01*
X145203333Y-101424619D01*
X145106571Y-101424619D01*
X144961428Y-101376238D01*
X144864666Y-101279476D01*
X144816285Y-101182714D01*
X144767904Y-100989190D01*
X144767904Y-100844047D01*
X144816285Y-100650523D01*
X144864666Y-100553761D01*
X144961428Y-100457000D01*
X145106571Y-100408619D01*
X145203333Y-100408619D01*
X145348476Y-100457000D01*
X145396857Y-100505380D01*
X146364476Y-101424619D02*
X145783904Y-101424619D01*
X146074190Y-101424619D02*
X146074190Y-100408619D01*
X145977428Y-100553761D01*
X145880666Y-100650523D01*
X145783904Y-100698904D01*
X146751523Y-100505380D02*
X146799904Y-100457000D01*
X146896666Y-100408619D01*
X147138571Y-100408619D01*
X147235333Y-100457000D01*
X147283714Y-100505380D01*
X147332095Y-100602142D01*
X147332095Y-100698904D01*
X147283714Y-100844047D01*
X146703142Y-101424619D01*
X147332095Y-101424619D01*
X144529144Y-102694619D02*
X144006630Y-102694619D01*
X144267887Y-102694619D02*
X144394887Y-101678619D01*
X144289659Y-101823761D01*
X144190478Y-101920523D01*
X144097344Y-101968904D01*
X145222201Y-101678619D02*
X145309287Y-101678619D01*
X145390325Y-101727000D01*
X145427820Y-101775380D01*
X145459268Y-101872142D01*
X145478620Y-102065666D01*
X145448382Y-102307571D01*
X145380649Y-102501095D01*
X145325011Y-102597857D01*
X145275420Y-102646238D01*
X145182287Y-102694619D01*
X145095201Y-102694619D01*
X145014163Y-102646238D01*
X144976668Y-102597857D01*
X144945220Y-102501095D01*
X144925868Y-102307571D01*
X144956106Y-102065666D01*
X145023840Y-101872142D01*
X145079478Y-101775380D01*
X145129068Y-101727000D01*
X145222201Y-101678619D01*
X146093059Y-101678619D02*
X146180144Y-101678619D01*
X146261182Y-101727000D01*
X146298678Y-101775380D01*
X146330125Y-101872142D01*
X146349478Y-102065666D01*
X146319240Y-102307571D01*
X146251506Y-102501095D01*
X146195868Y-102597857D01*
X146146278Y-102646238D01*
X146053144Y-102694619D01*
X145966059Y-102694619D01*
X145885020Y-102646238D01*
X145847525Y-102597857D01*
X145816078Y-102501095D01*
X145796725Y-102307571D01*
X145826963Y-102065666D01*
X145894697Y-101872142D01*
X145950335Y-101775380D01*
X145999925Y-101727000D01*
X146093059Y-101678619D01*
X146747411Y-102017285D02*
X146662744Y-102694619D01*
X146735316Y-102114047D02*
X146784906Y-102065666D01*
X146878040Y-102017285D01*
X147008668Y-102017285D01*
X147089706Y-102065666D01*
X147121154Y-102162428D01*
X147054630Y-102694619D01*
X147861382Y-102162428D02*
X147556582Y-102162428D01*
X147490059Y-102694619D02*
X147617059Y-101678619D01*
X148052487Y-101678619D01*
X145396857Y-114027857D02*
X145348476Y-114076238D01*
X145203333Y-114124619D01*
X145106571Y-114124619D01*
X144961428Y-114076238D01*
X144864666Y-113979476D01*
X144816285Y-113882714D01*
X144767904Y-113689190D01*
X144767904Y-113544047D01*
X144816285Y-113350523D01*
X144864666Y-113253761D01*
X144961428Y-113157000D01*
X145106571Y-113108619D01*
X145203333Y-113108619D01*
X145348476Y-113157000D01*
X145396857Y-113205380D01*
X146364476Y-114124619D02*
X145783904Y-114124619D01*
X146074190Y-114124619D02*
X146074190Y-113108619D01*
X145977428Y-113253761D01*
X145880666Y-113350523D01*
X145783904Y-113398904D01*
X146703142Y-113108619D02*
X147332095Y-113108619D01*
X146993428Y-113495666D01*
X147138571Y-113495666D01*
X147235333Y-113544047D01*
X147283714Y-113592428D01*
X147332095Y-113689190D01*
X147332095Y-113931095D01*
X147283714Y-114027857D01*
X147235333Y-114076238D01*
X147138571Y-114124619D01*
X146848285Y-114124619D01*
X146751523Y-114076238D01*
X146703142Y-114027857D01*
X144529144Y-115394619D02*
X144006630Y-115394619D01*
X144267887Y-115394619D02*
X144394887Y-114378619D01*
X144289659Y-114523761D01*
X144190478Y-114620523D01*
X144097344Y-114668904D01*
X145222201Y-114378619D02*
X145309287Y-114378619D01*
X145390325Y-114427000D01*
X145427820Y-114475380D01*
X145459268Y-114572142D01*
X145478620Y-114765666D01*
X145448382Y-115007571D01*
X145380649Y-115201095D01*
X145325011Y-115297857D01*
X145275420Y-115346238D01*
X145182287Y-115394619D01*
X145095201Y-115394619D01*
X145014163Y-115346238D01*
X144976668Y-115297857D01*
X144945220Y-115201095D01*
X144925868Y-115007571D01*
X144956106Y-114765666D01*
X145023840Y-114572142D01*
X145079478Y-114475380D01*
X145129068Y-114427000D01*
X145222201Y-114378619D01*
X146093059Y-114378619D02*
X146180144Y-114378619D01*
X146261182Y-114427000D01*
X146298678Y-114475380D01*
X146330125Y-114572142D01*
X146349478Y-114765666D01*
X146319240Y-115007571D01*
X146251506Y-115201095D01*
X146195868Y-115297857D01*
X146146278Y-115346238D01*
X146053144Y-115394619D01*
X145966059Y-115394619D01*
X145885020Y-115346238D01*
X145847525Y-115297857D01*
X145816078Y-115201095D01*
X145796725Y-115007571D01*
X145826963Y-114765666D01*
X145894697Y-114572142D01*
X145950335Y-114475380D01*
X145999925Y-114427000D01*
X146093059Y-114378619D01*
X146747411Y-114717285D02*
X146662744Y-115394619D01*
X146735316Y-114814047D02*
X146784906Y-114765666D01*
X146878040Y-114717285D01*
X147008668Y-114717285D01*
X147089706Y-114765666D01*
X147121154Y-114862428D01*
X147054630Y-115394619D01*
X147861382Y-114862428D02*
X147556582Y-114862428D01*
X147490059Y-115394619D02*
X147617059Y-114378619D01*
X148052487Y-114378619D01*
X145396857Y-126727857D02*
X145348476Y-126776238D01*
X145203333Y-126824619D01*
X145106571Y-126824619D01*
X144961428Y-126776238D01*
X144864666Y-126679476D01*
X144816285Y-126582714D01*
X144767904Y-126389190D01*
X144767904Y-126244047D01*
X144816285Y-126050523D01*
X144864666Y-125953761D01*
X144961428Y-125857000D01*
X145106571Y-125808619D01*
X145203333Y-125808619D01*
X145348476Y-125857000D01*
X145396857Y-125905380D01*
X146364476Y-126824619D02*
X145783904Y-126824619D01*
X146074190Y-126824619D02*
X146074190Y-125808619D01*
X145977428Y-125953761D01*
X145880666Y-126050523D01*
X145783904Y-126098904D01*
X147235333Y-126147285D02*
X147235333Y-126824619D01*
X146993428Y-125760238D02*
X146751523Y-126485952D01*
X147380476Y-126485952D01*
X144529144Y-128094619D02*
X144006630Y-128094619D01*
X144267887Y-128094619D02*
X144394887Y-127078619D01*
X144289659Y-127223761D01*
X144190478Y-127320523D01*
X144097344Y-127368904D01*
X145222201Y-127078619D02*
X145309287Y-127078619D01*
X145390325Y-127127000D01*
X145427820Y-127175380D01*
X145459268Y-127272142D01*
X145478620Y-127465666D01*
X145448382Y-127707571D01*
X145380649Y-127901095D01*
X145325011Y-127997857D01*
X145275420Y-128046238D01*
X145182287Y-128094619D01*
X145095201Y-128094619D01*
X145014163Y-128046238D01*
X144976668Y-127997857D01*
X144945220Y-127901095D01*
X144925868Y-127707571D01*
X144956106Y-127465666D01*
X145023840Y-127272142D01*
X145079478Y-127175380D01*
X145129068Y-127127000D01*
X145222201Y-127078619D01*
X146093059Y-127078619D02*
X146180144Y-127078619D01*
X146261182Y-127127000D01*
X146298678Y-127175380D01*
X146330125Y-127272142D01*
X146349478Y-127465666D01*
X146319240Y-127707571D01*
X146251506Y-127901095D01*
X146195868Y-127997857D01*
X146146278Y-128046238D01*
X146053144Y-128094619D01*
X145966059Y-128094619D01*
X145885020Y-128046238D01*
X145847525Y-127997857D01*
X145816078Y-127901095D01*
X145796725Y-127707571D01*
X145826963Y-127465666D01*
X145894697Y-127272142D01*
X145950335Y-127175380D01*
X145999925Y-127127000D01*
X146093059Y-127078619D01*
X146747411Y-127417285D02*
X146662744Y-128094619D01*
X146735316Y-127514047D02*
X146784906Y-127465666D01*
X146878040Y-127417285D01*
X147008668Y-127417285D01*
X147089706Y-127465666D01*
X147121154Y-127562428D01*
X147054630Y-128094619D01*
X147861382Y-127562428D02*
X147556582Y-127562428D01*
X147490059Y-128094619D02*
X147617059Y-127078619D01*
X148052487Y-127078619D01*
X145396857Y-139427857D02*
X145348476Y-139476238D01*
X145203333Y-139524619D01*
X145106571Y-139524619D01*
X144961428Y-139476238D01*
X144864666Y-139379476D01*
X144816285Y-139282714D01*
X144767904Y-139089190D01*
X144767904Y-138944047D01*
X144816285Y-138750523D01*
X144864666Y-138653761D01*
X144961428Y-138557000D01*
X145106571Y-138508619D01*
X145203333Y-138508619D01*
X145348476Y-138557000D01*
X145396857Y-138605380D01*
X146364476Y-139524619D02*
X145783904Y-139524619D01*
X146074190Y-139524619D02*
X146074190Y-138508619D01*
X145977428Y-138653761D01*
X145880666Y-138750523D01*
X145783904Y-138798904D01*
X147283714Y-138508619D02*
X146799904Y-138508619D01*
X146751523Y-138992428D01*
X146799904Y-138944047D01*
X146896666Y-138895666D01*
X147138571Y-138895666D01*
X147235333Y-138944047D01*
X147283714Y-138992428D01*
X147332095Y-139089190D01*
X147332095Y-139331095D01*
X147283714Y-139427857D01*
X147235333Y-139476238D01*
X147138571Y-139524619D01*
X146896666Y-139524619D01*
X146799904Y-139476238D01*
X146751523Y-139427857D01*
X144529144Y-140794619D02*
X144006630Y-140794619D01*
X144267887Y-140794619D02*
X144394887Y-139778619D01*
X144289659Y-139923761D01*
X144190478Y-140020523D01*
X144097344Y-140068904D01*
X145222201Y-139778619D02*
X145309287Y-139778619D01*
X145390325Y-139827000D01*
X145427820Y-139875380D01*
X145459268Y-139972142D01*
X145478620Y-140165666D01*
X145448382Y-140407571D01*
X145380649Y-140601095D01*
X145325011Y-140697857D01*
X145275420Y-140746238D01*
X145182287Y-140794619D01*
X145095201Y-140794619D01*
X145014163Y-140746238D01*
X144976668Y-140697857D01*
X144945220Y-140601095D01*
X144925868Y-140407571D01*
X144956106Y-140165666D01*
X145023840Y-139972142D01*
X145079478Y-139875380D01*
X145129068Y-139827000D01*
X145222201Y-139778619D01*
X146093059Y-139778619D02*
X146180144Y-139778619D01*
X146261182Y-139827000D01*
X146298678Y-139875380D01*
X146330125Y-139972142D01*
X146349478Y-140165666D01*
X146319240Y-140407571D01*
X146251506Y-140601095D01*
X146195868Y-140697857D01*
X146146278Y-140746238D01*
X146053144Y-140794619D01*
X145966059Y-140794619D01*
X145885020Y-140746238D01*
X145847525Y-140697857D01*
X145816078Y-140601095D01*
X145796725Y-140407571D01*
X145826963Y-140165666D01*
X145894697Y-139972142D01*
X145950335Y-139875380D01*
X145999925Y-139827000D01*
X146093059Y-139778619D01*
X146747411Y-140117285D02*
X146662744Y-140794619D01*
X146735316Y-140214047D02*
X146784906Y-140165666D01*
X146878040Y-140117285D01*
X147008668Y-140117285D01*
X147089706Y-140165666D01*
X147121154Y-140262428D01*
X147054630Y-140794619D01*
X147861382Y-140262428D02*
X147556582Y-140262428D01*
X147490059Y-140794619D02*
X147617059Y-139778619D01*
X148052487Y-139778619D01*
X145396857Y-152127857D02*
X145348476Y-152176238D01*
X145203333Y-152224619D01*
X145106571Y-152224619D01*
X144961428Y-152176238D01*
X144864666Y-152079476D01*
X144816285Y-151982714D01*
X144767904Y-151789190D01*
X144767904Y-151644047D01*
X144816285Y-151450523D01*
X144864666Y-151353761D01*
X144961428Y-151257000D01*
X145106571Y-151208619D01*
X145203333Y-151208619D01*
X145348476Y-151257000D01*
X145396857Y-151305380D01*
X146364476Y-152224619D02*
X145783904Y-152224619D01*
X146074190Y-152224619D02*
X146074190Y-151208619D01*
X145977428Y-151353761D01*
X145880666Y-151450523D01*
X145783904Y-151498904D01*
X147235333Y-151208619D02*
X147041809Y-151208619D01*
X146945047Y-151257000D01*
X146896666Y-151305380D01*
X146799904Y-151450523D01*
X146751523Y-151644047D01*
X146751523Y-152031095D01*
X146799904Y-152127857D01*
X146848285Y-152176238D01*
X146945047Y-152224619D01*
X147138571Y-152224619D01*
X147235333Y-152176238D01*
X147283714Y-152127857D01*
X147332095Y-152031095D01*
X147332095Y-151789190D01*
X147283714Y-151692428D01*
X147235333Y-151644047D01*
X147138571Y-151595666D01*
X146945047Y-151595666D01*
X146848285Y-151644047D01*
X146799904Y-151692428D01*
X146751523Y-151789190D01*
X144529144Y-153494619D02*
X144006630Y-153494619D01*
X144267887Y-153494619D02*
X144394887Y-152478619D01*
X144289659Y-152623761D01*
X144190478Y-152720523D01*
X144097344Y-152768904D01*
X145222201Y-152478619D02*
X145309287Y-152478619D01*
X145390325Y-152527000D01*
X145427820Y-152575380D01*
X145459268Y-152672142D01*
X145478620Y-152865666D01*
X145448382Y-153107571D01*
X145380649Y-153301095D01*
X145325011Y-153397857D01*
X145275420Y-153446238D01*
X145182287Y-153494619D01*
X145095201Y-153494619D01*
X145014163Y-153446238D01*
X144976668Y-153397857D01*
X144945220Y-153301095D01*
X144925868Y-153107571D01*
X144956106Y-152865666D01*
X145023840Y-152672142D01*
X145079478Y-152575380D01*
X145129068Y-152527000D01*
X145222201Y-152478619D01*
X146093059Y-152478619D02*
X146180144Y-152478619D01*
X146261182Y-152527000D01*
X146298678Y-152575380D01*
X146330125Y-152672142D01*
X146349478Y-152865666D01*
X146319240Y-153107571D01*
X146251506Y-153301095D01*
X146195868Y-153397857D01*
X146146278Y-153446238D01*
X146053144Y-153494619D01*
X145966059Y-153494619D01*
X145885020Y-153446238D01*
X145847525Y-153397857D01*
X145816078Y-153301095D01*
X145796725Y-153107571D01*
X145826963Y-152865666D01*
X145894697Y-152672142D01*
X145950335Y-152575380D01*
X145999925Y-152527000D01*
X146093059Y-152478619D01*
X146747411Y-152817285D02*
X146662744Y-153494619D01*
X146735316Y-152914047D02*
X146784906Y-152865666D01*
X146878040Y-152817285D01*
X147008668Y-152817285D01*
X147089706Y-152865666D01*
X147121154Y-152962428D01*
X147054630Y-153494619D01*
X147861382Y-152962428D02*
X147556582Y-152962428D01*
X147490059Y-153494619D02*
X147617059Y-152478619D01*
X148052487Y-152478619D01*
X168955357Y-159403142D02*
X169003738Y-159451523D01*
X169052119Y-159596666D01*
X169052119Y-159693428D01*
X169003738Y-159838571D01*
X168906976Y-159935333D01*
X168810214Y-159983714D01*
X168616690Y-160032095D01*
X168471547Y-160032095D01*
X168278023Y-159983714D01*
X168181261Y-159935333D01*
X168084500Y-159838571D01*
X168036119Y-159693428D01*
X168036119Y-159596666D01*
X168084500Y-159451523D01*
X168132880Y-159403142D01*
X169052119Y-158435523D02*
X169052119Y-159016095D01*
X169052119Y-158725809D02*
X168036119Y-158725809D01*
X168181261Y-158822571D01*
X168278023Y-158919333D01*
X168326404Y-159016095D01*
X168036119Y-158096857D02*
X168036119Y-157419523D01*
X169052119Y-157854952D01*
X169052119Y-155825855D02*
X169052119Y-156348369D01*
X169052119Y-156087112D02*
X168036119Y-155960112D01*
X168181261Y-156065340D01*
X168278023Y-156164521D01*
X168326404Y-156257655D01*
X168036119Y-155132798D02*
X168036119Y-155045712D01*
X168084500Y-154964674D01*
X168132880Y-154927179D01*
X168229642Y-154895731D01*
X168423166Y-154876379D01*
X168665071Y-154906617D01*
X168858595Y-154974350D01*
X168955357Y-155029988D01*
X169003738Y-155079579D01*
X169052119Y-155172712D01*
X169052119Y-155259798D01*
X169003738Y-155340836D01*
X168955357Y-155378331D01*
X168858595Y-155409779D01*
X168665071Y-155429131D01*
X168423166Y-155398893D01*
X168229642Y-155331160D01*
X168132880Y-155275521D01*
X168084500Y-155225931D01*
X168036119Y-155132798D01*
X168036119Y-154261940D02*
X168036119Y-154174855D01*
X168084500Y-154093817D01*
X168132880Y-154056321D01*
X168229642Y-154024874D01*
X168423166Y-154005521D01*
X168665071Y-154035760D01*
X168858595Y-154103493D01*
X168955357Y-154159131D01*
X169003738Y-154208721D01*
X169052119Y-154301855D01*
X169052119Y-154388940D01*
X169003738Y-154469979D01*
X168955357Y-154507474D01*
X168858595Y-154538921D01*
X168665071Y-154558274D01*
X168423166Y-154528036D01*
X168229642Y-154460302D01*
X168132880Y-154404664D01*
X168084500Y-154355074D01*
X168036119Y-154261940D01*
X168374785Y-153215702D02*
X169052119Y-153300369D01*
X168374785Y-153607588D02*
X168906976Y-153674112D01*
X169003738Y-153642664D01*
X169052119Y-153561626D01*
X169052119Y-153430998D01*
X169003738Y-153337864D01*
X168955357Y-153288274D01*
X168519928Y-152493617D02*
X168519928Y-152798417D01*
X169052119Y-152864940D02*
X168036119Y-152737940D01*
X168036119Y-152302512D01*
X148952857Y-174008142D02*
X149001238Y-174056523D01*
X149049619Y-174201666D01*
X149049619Y-174298428D01*
X149001238Y-174443571D01*
X148904476Y-174540333D01*
X148807714Y-174588714D01*
X148614190Y-174637095D01*
X148469047Y-174637095D01*
X148275523Y-174588714D01*
X148178761Y-174540333D01*
X148082000Y-174443571D01*
X148033619Y-174298428D01*
X148033619Y-174201666D01*
X148082000Y-174056523D01*
X148130380Y-174008142D01*
X149049619Y-173040523D02*
X149049619Y-173621095D01*
X149049619Y-173330809D02*
X148033619Y-173330809D01*
X148178761Y-173427571D01*
X148275523Y-173524333D01*
X148323904Y-173621095D01*
X148469047Y-172459952D02*
X148420666Y-172556714D01*
X148372285Y-172605095D01*
X148275523Y-172653476D01*
X148227142Y-172653476D01*
X148130380Y-172605095D01*
X148082000Y-172556714D01*
X148033619Y-172459952D01*
X148033619Y-172266428D01*
X148082000Y-172169666D01*
X148130380Y-172121285D01*
X148227142Y-172072904D01*
X148275523Y-172072904D01*
X148372285Y-172121285D01*
X148420666Y-172169666D01*
X148469047Y-172266428D01*
X148469047Y-172459952D01*
X148517428Y-172556714D01*
X148565809Y-172605095D01*
X148662571Y-172653476D01*
X148856095Y-172653476D01*
X148952857Y-172605095D01*
X149001238Y-172556714D01*
X149049619Y-172459952D01*
X149049619Y-172266428D01*
X149001238Y-172169666D01*
X148952857Y-172121285D01*
X148856095Y-172072904D01*
X148662571Y-172072904D01*
X148565809Y-172121285D01*
X148517428Y-172169666D01*
X148469047Y-172266428D01*
X149049619Y-170630426D02*
X149049619Y-171152940D01*
X149049619Y-170891683D02*
X148033619Y-170764683D01*
X148178761Y-170869912D01*
X148275523Y-170969093D01*
X148323904Y-171062226D01*
X148130380Y-170167179D02*
X148082000Y-170117588D01*
X148033619Y-170024455D01*
X148033619Y-169806740D01*
X148082000Y-169725702D01*
X148130380Y-169688207D01*
X148227142Y-169656760D01*
X148323904Y-169668855D01*
X148469047Y-169730540D01*
X149049619Y-170325626D01*
X149049619Y-169759569D01*
X148372285Y-169283017D02*
X149388285Y-169410017D01*
X148420666Y-169289064D02*
X148372285Y-169195931D01*
X148372285Y-169021760D01*
X148420666Y-168940721D01*
X148469047Y-168903226D01*
X148565809Y-168871779D01*
X148856095Y-168908064D01*
X148952857Y-168963702D01*
X149001238Y-169013293D01*
X149049619Y-169106426D01*
X149049619Y-169280598D01*
X149001238Y-169361636D01*
X148517428Y-168169045D02*
X148517428Y-168473845D01*
X149049619Y-168540369D02*
X148033619Y-168413369D01*
X148033619Y-167977940D01*
X150222857Y-175278142D02*
X150271238Y-175326523D01*
X150319619Y-175471666D01*
X150319619Y-175568428D01*
X150271238Y-175713571D01*
X150174476Y-175810333D01*
X150077714Y-175858714D01*
X149884190Y-175907095D01*
X149739047Y-175907095D01*
X149545523Y-175858714D01*
X149448761Y-175810333D01*
X149352000Y-175713571D01*
X149303619Y-175568428D01*
X149303619Y-175471666D01*
X149352000Y-175326523D01*
X149400380Y-175278142D01*
X150319619Y-174310523D02*
X150319619Y-174891095D01*
X150319619Y-174600809D02*
X149303619Y-174600809D01*
X149448761Y-174697571D01*
X149545523Y-174794333D01*
X149593904Y-174891095D01*
X150319619Y-173826714D02*
X150319619Y-173633190D01*
X150271238Y-173536428D01*
X150222857Y-173488047D01*
X150077714Y-173391285D01*
X149884190Y-173342904D01*
X149497142Y-173342904D01*
X149400380Y-173391285D01*
X149352000Y-173439666D01*
X149303619Y-173536428D01*
X149303619Y-173729952D01*
X149352000Y-173826714D01*
X149400380Y-173875095D01*
X149497142Y-173923476D01*
X149739047Y-173923476D01*
X149835809Y-173875095D01*
X149884190Y-173826714D01*
X149932571Y-173729952D01*
X149932571Y-173536428D01*
X149884190Y-173439666D01*
X149835809Y-173391285D01*
X149739047Y-173342904D01*
X149303619Y-171865955D02*
X149303619Y-172301383D01*
X149787428Y-172405402D01*
X149739047Y-172355812D01*
X149690666Y-172262679D01*
X149690666Y-172044964D01*
X149739047Y-171963926D01*
X149787428Y-171926431D01*
X149884190Y-171894983D01*
X150126095Y-171925221D01*
X150222857Y-171980860D01*
X150271238Y-172030450D01*
X150319619Y-172123583D01*
X150319619Y-172341298D01*
X150271238Y-172422336D01*
X150222857Y-172459831D01*
X149932571Y-171509145D02*
X149932571Y-170812460D01*
X149303619Y-170385498D02*
X149303619Y-169819440D01*
X149690666Y-170172621D01*
X149690666Y-170041993D01*
X149739047Y-169960955D01*
X149787428Y-169923460D01*
X149884190Y-169892012D01*
X150126095Y-169922250D01*
X150222857Y-169977888D01*
X150271238Y-170027479D01*
X150319619Y-170120612D01*
X150319619Y-170381869D01*
X150271238Y-170462907D01*
X150222857Y-170500402D01*
X149303619Y-169253383D02*
X149303619Y-169166298D01*
X149352000Y-169085260D01*
X149400380Y-169047764D01*
X149497142Y-169016317D01*
X149690666Y-168996964D01*
X149932571Y-169027202D01*
X150126095Y-169094936D01*
X150222857Y-169150574D01*
X150271238Y-169200164D01*
X150319619Y-169293298D01*
X150319619Y-169380383D01*
X150271238Y-169461421D01*
X150222857Y-169498917D01*
X150126095Y-169530364D01*
X149932571Y-169549717D01*
X149690666Y-169519479D01*
X149497142Y-169451745D01*
X149400380Y-169396107D01*
X149352000Y-169346517D01*
X149303619Y-169253383D01*
X149642285Y-168599031D02*
X150658285Y-168726031D01*
X149690666Y-168605079D02*
X149642285Y-168511945D01*
X149642285Y-168337774D01*
X149690666Y-168256736D01*
X149739047Y-168219240D01*
X149835809Y-168187793D01*
X150126095Y-168224079D01*
X150222857Y-168279717D01*
X150271238Y-168329307D01*
X150319619Y-168422440D01*
X150319619Y-168596612D01*
X150271238Y-168677650D01*
X149787428Y-167485060D02*
X149787428Y-167789860D01*
X150319619Y-167856383D02*
X149303619Y-167729383D01*
X149303619Y-167293955D01*
X84597119Y-112509904D02*
X83581119Y-112509904D01*
X83581119Y-112268000D01*
X83629500Y-112122857D01*
X83726261Y-112026095D01*
X83823023Y-111977714D01*
X84016547Y-111929333D01*
X84161690Y-111929333D01*
X84355214Y-111977714D01*
X84451976Y-112026095D01*
X84548738Y-112122857D01*
X84597119Y-112268000D01*
X84597119Y-112509904D01*
X84597119Y-110961714D02*
X84597119Y-111542285D01*
X84597119Y-111252000D02*
X83581119Y-111252000D01*
X83726261Y-111348761D01*
X83823023Y-111445523D01*
X83871404Y-111542285D01*
X94757119Y-112509904D02*
X93741119Y-112509904D01*
X93741119Y-112268000D01*
X93789500Y-112122857D01*
X93886261Y-112026095D01*
X93983023Y-111977714D01*
X94176547Y-111929333D01*
X94321690Y-111929333D01*
X94515214Y-111977714D01*
X94611976Y-112026095D01*
X94708738Y-112122857D01*
X94757119Y-112268000D01*
X94757119Y-112509904D01*
X93837880Y-111542285D02*
X93789500Y-111493904D01*
X93741119Y-111397142D01*
X93741119Y-111155238D01*
X93789500Y-111058476D01*
X93837880Y-111010095D01*
X93934642Y-110961714D01*
X94031404Y-110961714D01*
X94176547Y-111010095D01*
X94757119Y-111590666D01*
X94757119Y-110961714D01*
X84597119Y-142989904D02*
X83581119Y-142989904D01*
X83581119Y-142748000D01*
X83629500Y-142602857D01*
X83726261Y-142506095D01*
X83823023Y-142457714D01*
X84016547Y-142409333D01*
X84161690Y-142409333D01*
X84355214Y-142457714D01*
X84451976Y-142506095D01*
X84548738Y-142602857D01*
X84597119Y-142748000D01*
X84597119Y-142989904D01*
X83581119Y-142070666D02*
X83581119Y-141441714D01*
X83968166Y-141780380D01*
X83968166Y-141635238D01*
X84016547Y-141538476D01*
X84064928Y-141490095D01*
X84161690Y-141441714D01*
X84403595Y-141441714D01*
X84500357Y-141490095D01*
X84548738Y-141538476D01*
X84597119Y-141635238D01*
X84597119Y-141925523D01*
X84548738Y-142022285D01*
X84500357Y-142070666D01*
X94757119Y-142989904D02*
X93741119Y-142989904D01*
X93741119Y-142748000D01*
X93789500Y-142602857D01*
X93886261Y-142506095D01*
X93983023Y-142457714D01*
X94176547Y-142409333D01*
X94321690Y-142409333D01*
X94515214Y-142457714D01*
X94611976Y-142506095D01*
X94708738Y-142602857D01*
X94757119Y-142748000D01*
X94757119Y-142989904D01*
X94079785Y-141538476D02*
X94757119Y-141538476D01*
X93692738Y-141780380D02*
X94418452Y-142022285D01*
X94418452Y-141393333D01*
X158574619Y-175374904D02*
X157558619Y-175374904D01*
X157558619Y-174987857D01*
X157607000Y-174891095D01*
X157655380Y-174842714D01*
X157752142Y-174794333D01*
X157897285Y-174794333D01*
X157994047Y-174842714D01*
X158042428Y-174891095D01*
X158090809Y-174987857D01*
X158090809Y-175374904D01*
X158574619Y-173826714D02*
X158574619Y-174407285D01*
X158574619Y-174117000D02*
X157558619Y-174117000D01*
X157703761Y-174213761D01*
X157800523Y-174310523D01*
X157848904Y-174407285D01*
X157558619Y-169697883D02*
X157558619Y-170133312D01*
X158042428Y-170237331D01*
X157994047Y-170187740D01*
X157945666Y-170094607D01*
X157945666Y-169876893D01*
X157994047Y-169795855D01*
X158042428Y-169758360D01*
X158139190Y-169726912D01*
X158381095Y-169757150D01*
X158477857Y-169812788D01*
X158526238Y-169862379D01*
X158574619Y-169955512D01*
X158574619Y-170173226D01*
X158526238Y-170254264D01*
X158477857Y-170291760D01*
X157558619Y-169393083D02*
X158574619Y-169215283D01*
X157558619Y-168783483D01*
X170639619Y-91609333D02*
X170155809Y-91948000D01*
X170639619Y-92189904D02*
X169623619Y-92189904D01*
X169623619Y-91802857D01*
X169672000Y-91706095D01*
X169720380Y-91657714D01*
X169817142Y-91609333D01*
X169962285Y-91609333D01*
X170059047Y-91657714D01*
X170107428Y-91706095D01*
X170155809Y-91802857D01*
X170155809Y-92189904D01*
X170639619Y-90641714D02*
X170639619Y-91222285D01*
X170639619Y-90932000D02*
X169623619Y-90932000D01*
X169768761Y-91028761D01*
X169865523Y-91125523D01*
X169913904Y-91222285D01*
X169962285Y-89135131D02*
X170639619Y-89219798D01*
X169575238Y-89304464D02*
X170300952Y-89612893D01*
X170300952Y-89046836D01*
X170542857Y-88728731D02*
X170591238Y-88691236D01*
X170639619Y-88740826D01*
X170591238Y-88778321D01*
X170542857Y-88728731D01*
X170639619Y-88740826D01*
X169623619Y-88265483D02*
X169623619Y-87655883D01*
X170639619Y-88174769D01*
X170639619Y-87434540D02*
X169623619Y-87307540D01*
X170252571Y-87299074D02*
X170639619Y-87086198D01*
X169962285Y-87001531D02*
X170349333Y-87398255D01*
X173179619Y-91609333D02*
X172695809Y-91948000D01*
X173179619Y-92189904D02*
X172163619Y-92189904D01*
X172163619Y-91802857D01*
X172212000Y-91706095D01*
X172260380Y-91657714D01*
X172357142Y-91609333D01*
X172502285Y-91609333D01*
X172599047Y-91657714D01*
X172647428Y-91706095D01*
X172695809Y-91802857D01*
X172695809Y-92189904D01*
X172260380Y-91222285D02*
X172212000Y-91173904D01*
X172163619Y-91077142D01*
X172163619Y-90835238D01*
X172212000Y-90738476D01*
X172260380Y-90690095D01*
X172357142Y-90641714D01*
X172453904Y-90641714D01*
X172599047Y-90690095D01*
X173179619Y-91270666D01*
X173179619Y-90641714D01*
X172502285Y-89135131D02*
X173179619Y-89219798D01*
X172115238Y-89304464D02*
X172840952Y-89612893D01*
X172840952Y-89046836D01*
X173082857Y-88728731D02*
X173131238Y-88691236D01*
X173179619Y-88740826D01*
X173131238Y-88778321D01*
X173082857Y-88728731D01*
X173179619Y-88740826D01*
X172163619Y-88265483D02*
X172163619Y-87655883D01*
X173179619Y-88174769D01*
X173179619Y-87434540D02*
X172163619Y-87307540D01*
X172792571Y-87299074D02*
X173179619Y-87086198D01*
X172502285Y-87001531D02*
X172889333Y-87398255D01*
X175719619Y-91609333D02*
X175235809Y-91948000D01*
X175719619Y-92189904D02*
X174703619Y-92189904D01*
X174703619Y-91802857D01*
X174752000Y-91706095D01*
X174800380Y-91657714D01*
X174897142Y-91609333D01*
X175042285Y-91609333D01*
X175139047Y-91657714D01*
X175187428Y-91706095D01*
X175235809Y-91802857D01*
X175235809Y-92189904D01*
X174703619Y-91270666D02*
X174703619Y-90641714D01*
X175090666Y-90980380D01*
X175090666Y-90835238D01*
X175139047Y-90738476D01*
X175187428Y-90690095D01*
X175284190Y-90641714D01*
X175526095Y-90641714D01*
X175622857Y-90690095D01*
X175671238Y-90738476D01*
X175719619Y-90835238D01*
X175719619Y-91125523D01*
X175671238Y-91222285D01*
X175622857Y-91270666D01*
X175042285Y-89135131D02*
X175719619Y-89219798D01*
X174655238Y-89304464D02*
X175380952Y-89612893D01*
X175380952Y-89046836D01*
X175622857Y-88728731D02*
X175671238Y-88691236D01*
X175719619Y-88740826D01*
X175671238Y-88778321D01*
X175622857Y-88728731D01*
X175719619Y-88740826D01*
X174703619Y-88265483D02*
X174703619Y-87655883D01*
X175719619Y-88174769D01*
X175719619Y-87434540D02*
X174703619Y-87307540D01*
X175332571Y-87299074D02*
X175719619Y-87086198D01*
X175042285Y-87001531D02*
X175429333Y-87398255D01*
X171909619Y-165904333D02*
X171425809Y-166243000D01*
X171909619Y-166484904D02*
X170893619Y-166484904D01*
X170893619Y-166097857D01*
X170942000Y-166001095D01*
X170990380Y-165952714D01*
X171087142Y-165904333D01*
X171232285Y-165904333D01*
X171329047Y-165952714D01*
X171377428Y-166001095D01*
X171425809Y-166097857D01*
X171425809Y-166484904D01*
X171232285Y-165033476D02*
X171909619Y-165033476D01*
X170845238Y-165275380D02*
X171570952Y-165517285D01*
X171570952Y-164888333D01*
X171232285Y-163430131D02*
X171909619Y-163514798D01*
X170845238Y-163599464D02*
X171570952Y-163907893D01*
X171570952Y-163341836D01*
X171812857Y-163023731D02*
X171861238Y-162986236D01*
X171909619Y-163035826D01*
X171861238Y-163073321D01*
X171812857Y-163023731D01*
X171909619Y-163035826D01*
X170893619Y-162560483D02*
X170893619Y-161950883D01*
X171909619Y-162469769D01*
X171909619Y-161729540D02*
X170893619Y-161602540D01*
X171522571Y-161594074D02*
X171909619Y-161381198D01*
X171232285Y-161296531D02*
X171619333Y-161693255D01*
X173814619Y-165904333D02*
X173330809Y-166243000D01*
X173814619Y-166484904D02*
X172798619Y-166484904D01*
X172798619Y-166097857D01*
X172847000Y-166001095D01*
X172895380Y-165952714D01*
X172992142Y-165904333D01*
X173137285Y-165904333D01*
X173234047Y-165952714D01*
X173282428Y-166001095D01*
X173330809Y-166097857D01*
X173330809Y-166484904D01*
X172798619Y-164985095D02*
X172798619Y-165468904D01*
X173282428Y-165517285D01*
X173234047Y-165468904D01*
X173185666Y-165372142D01*
X173185666Y-165130238D01*
X173234047Y-165033476D01*
X173282428Y-164985095D01*
X173379190Y-164936714D01*
X173621095Y-164936714D01*
X173717857Y-164985095D01*
X173766238Y-165033476D01*
X173814619Y-165130238D01*
X173814619Y-165372142D01*
X173766238Y-165468904D01*
X173717857Y-165517285D01*
X173137285Y-163430131D02*
X173814619Y-163514798D01*
X172750238Y-163599464D02*
X173475952Y-163907893D01*
X173475952Y-163341836D01*
X173717857Y-163023731D02*
X173766238Y-162986236D01*
X173814619Y-163035826D01*
X173766238Y-163073321D01*
X173717857Y-163023731D01*
X173814619Y-163035826D01*
X172798619Y-162560483D02*
X172798619Y-161950883D01*
X173814619Y-162469769D01*
X173814619Y-161729540D02*
X172798619Y-161602540D01*
X173427571Y-161594074D02*
X173814619Y-161381198D01*
X173137285Y-161296531D02*
X173524333Y-161693255D01*
X149049619Y-156379333D02*
X148565809Y-156718000D01*
X149049619Y-156959904D02*
X148033619Y-156959904D01*
X148033619Y-156572857D01*
X148082000Y-156476095D01*
X148130380Y-156427714D01*
X148227142Y-156379333D01*
X148372285Y-156379333D01*
X148469047Y-156427714D01*
X148517428Y-156476095D01*
X148565809Y-156572857D01*
X148565809Y-156959904D01*
X148033619Y-155508476D02*
X148033619Y-155702000D01*
X148082000Y-155798761D01*
X148130380Y-155847142D01*
X148275523Y-155943904D01*
X148469047Y-155992285D01*
X148856095Y-155992285D01*
X148952857Y-155943904D01*
X149001238Y-155895523D01*
X149049619Y-155798761D01*
X149049619Y-155605238D01*
X149001238Y-155508476D01*
X148952857Y-155460095D01*
X148856095Y-155411714D01*
X148614190Y-155411714D01*
X148517428Y-155460095D01*
X148469047Y-155508476D01*
X148420666Y-155605238D01*
X148420666Y-155798761D01*
X148469047Y-155895523D01*
X148517428Y-155943904D01*
X148614190Y-155992285D01*
X149938619Y-157734483D02*
X149938619Y-157168426D01*
X150325666Y-157521607D01*
X150325666Y-157390979D01*
X150374047Y-157309940D01*
X150422428Y-157272445D01*
X150519190Y-157240998D01*
X150761095Y-157271236D01*
X150857857Y-157326874D01*
X150906238Y-157376464D01*
X150954619Y-157469598D01*
X150954619Y-157730855D01*
X150906238Y-157811893D01*
X150857857Y-157849388D01*
X149938619Y-156863626D02*
X149938619Y-156297569D01*
X150325666Y-156650750D01*
X150325666Y-156520121D01*
X150374047Y-156439083D01*
X150422428Y-156401588D01*
X150519190Y-156370140D01*
X150761095Y-156400379D01*
X150857857Y-156456017D01*
X150906238Y-156505607D01*
X150954619Y-156598740D01*
X150954619Y-156859998D01*
X150906238Y-156941036D01*
X150857857Y-156978531D01*
X149938619Y-155731512D02*
X149938619Y-155644426D01*
X149987000Y-155563388D01*
X150035380Y-155525893D01*
X150132142Y-155494445D01*
X150325666Y-155475093D01*
X150567571Y-155505331D01*
X150761095Y-155573064D01*
X150857857Y-155628702D01*
X150906238Y-155678293D01*
X150954619Y-155771426D01*
X150954619Y-155858512D01*
X150906238Y-155939550D01*
X150857857Y-155977045D01*
X150761095Y-156008493D01*
X150567571Y-156027845D01*
X150325666Y-155997607D01*
X150132142Y-155929874D01*
X150035380Y-155874236D01*
X149987000Y-155824645D01*
X149938619Y-155731512D01*
X150954619Y-155161826D02*
X149938619Y-155034826D01*
X150567571Y-155026360D02*
X150954619Y-154813483D01*
X150277285Y-154728817D02*
X150664333Y-155125540D01*
X145239619Y-164634333D02*
X144755809Y-164973000D01*
X145239619Y-165214904D02*
X144223619Y-165214904D01*
X144223619Y-164827857D01*
X144272000Y-164731095D01*
X144320380Y-164682714D01*
X144417142Y-164634333D01*
X144562285Y-164634333D01*
X144659047Y-164682714D01*
X144707428Y-164731095D01*
X144755809Y-164827857D01*
X144755809Y-165214904D01*
X144223619Y-164295666D02*
X144223619Y-163618333D01*
X145239619Y-164053761D01*
X145239619Y-162092398D02*
X145239619Y-162614912D01*
X145239619Y-162353655D02*
X144223619Y-162226655D01*
X144368761Y-162331883D01*
X144465523Y-162431064D01*
X144513904Y-162524198D01*
X144223619Y-161138083D02*
X144223619Y-161573512D01*
X144707428Y-161677531D01*
X144659047Y-161627940D01*
X144610666Y-161534807D01*
X144610666Y-161317093D01*
X144659047Y-161236055D01*
X144707428Y-161198560D01*
X144804190Y-161167112D01*
X145046095Y-161197350D01*
X145142857Y-161252988D01*
X145191238Y-161302579D01*
X145239619Y-161395712D01*
X145239619Y-161613426D01*
X145191238Y-161694464D01*
X145142857Y-161731960D01*
X145239619Y-160829655D02*
X144223619Y-160702655D01*
X144949333Y-160488569D01*
X144223619Y-160093055D01*
X145239619Y-160220055D01*
X169321238Y-117559666D02*
X169369619Y-117414523D01*
X169369619Y-117172619D01*
X169321238Y-117075857D01*
X169272857Y-117027476D01*
X169176095Y-116979095D01*
X169079333Y-116979095D01*
X168982571Y-117027476D01*
X168934190Y-117075857D01*
X168885809Y-117172619D01*
X168837428Y-117366142D01*
X168789047Y-117462904D01*
X168740666Y-117511285D01*
X168643904Y-117559666D01*
X168547142Y-117559666D01*
X168450380Y-117511285D01*
X168402000Y-117462904D01*
X168353619Y-117366142D01*
X168353619Y-117124238D01*
X168402000Y-116979095D01*
X168353619Y-116640428D02*
X169369619Y-116398523D01*
X168643904Y-116205000D01*
X169369619Y-116011476D01*
X168353619Y-115769571D01*
X169369619Y-114850333D02*
X169369619Y-115430904D01*
X169369619Y-115140619D02*
X168353619Y-115140619D01*
X168498761Y-115237380D01*
X168595523Y-115334142D01*
X168643904Y-115430904D01*
X169321238Y-111667350D02*
X169369619Y-111542769D01*
X169369619Y-111325055D01*
X169321238Y-111231921D01*
X169272857Y-111182331D01*
X169176095Y-111126693D01*
X169079333Y-111114598D01*
X168982571Y-111146045D01*
X168934190Y-111183540D01*
X168885809Y-111264579D01*
X168837428Y-111432702D01*
X168789047Y-111513740D01*
X168740666Y-111551236D01*
X168643904Y-111582683D01*
X168547142Y-111570588D01*
X168450380Y-111514950D01*
X168402000Y-111465360D01*
X168353619Y-111372226D01*
X168353619Y-111154512D01*
X168402000Y-111029931D01*
X168837428Y-110692474D02*
X168837428Y-110387674D01*
X169369619Y-110323569D02*
X169369619Y-110758998D01*
X168353619Y-110631998D01*
X168353619Y-110196569D01*
X169272857Y-109397074D02*
X169321238Y-109446664D01*
X169369619Y-109583340D01*
X169369619Y-109670426D01*
X169321238Y-109795007D01*
X169224476Y-109869998D01*
X169127714Y-109901445D01*
X168934190Y-109920798D01*
X168789047Y-109902655D01*
X168595523Y-109834921D01*
X168498761Y-109779283D01*
X168402000Y-109680102D01*
X168353619Y-109543426D01*
X168353619Y-109456340D01*
X168402000Y-109331760D01*
X168450380Y-109294264D01*
X168353619Y-108716112D02*
X168353619Y-108541940D01*
X168402000Y-108460902D01*
X168498761Y-108385912D01*
X168692285Y-108366560D01*
X169030952Y-108408893D01*
X169224476Y-108476626D01*
X169321238Y-108575807D01*
X169369619Y-108668940D01*
X169369619Y-108843112D01*
X169321238Y-108924150D01*
X169224476Y-108999140D01*
X169030952Y-109018493D01*
X168692285Y-108976160D01*
X168498761Y-108908426D01*
X168402000Y-108809245D01*
X168353619Y-108716112D01*
X169369619Y-108059340D02*
X168353619Y-107932340D01*
X169369619Y-107536826D01*
X168353619Y-107409826D01*
X169369619Y-107101398D02*
X168353619Y-106974398D01*
X168353619Y-106756683D01*
X168402000Y-106632102D01*
X168498761Y-106557112D01*
X168595523Y-106525664D01*
X168789047Y-106506312D01*
X168934190Y-106524455D01*
X169127714Y-106592188D01*
X169224476Y-106647826D01*
X169321238Y-106747007D01*
X169369619Y-106883683D01*
X169369619Y-107101398D01*
X169321238Y-106224493D02*
X169369619Y-106099912D01*
X169369619Y-105882198D01*
X169321238Y-105789064D01*
X169272857Y-105739474D01*
X169176095Y-105683836D01*
X169079333Y-105671740D01*
X168982571Y-105703188D01*
X168934190Y-105740683D01*
X168885809Y-105821721D01*
X168837428Y-105989845D01*
X168789047Y-106070883D01*
X168740666Y-106108379D01*
X168643904Y-106139826D01*
X168547142Y-106127731D01*
X168450380Y-106072093D01*
X168402000Y-106022502D01*
X168353619Y-105929369D01*
X168353619Y-105711655D01*
X168402000Y-105587074D01*
X169321238Y-132799666D02*
X169369619Y-132654523D01*
X169369619Y-132412619D01*
X169321238Y-132315857D01*
X169272857Y-132267476D01*
X169176095Y-132219095D01*
X169079333Y-132219095D01*
X168982571Y-132267476D01*
X168934190Y-132315857D01*
X168885809Y-132412619D01*
X168837428Y-132606142D01*
X168789047Y-132702904D01*
X168740666Y-132751285D01*
X168643904Y-132799666D01*
X168547142Y-132799666D01*
X168450380Y-132751285D01*
X168402000Y-132702904D01*
X168353619Y-132606142D01*
X168353619Y-132364238D01*
X168402000Y-132219095D01*
X168353619Y-131880428D02*
X169369619Y-131638523D01*
X168643904Y-131445000D01*
X169369619Y-131251476D01*
X168353619Y-131009571D01*
X168450380Y-130670904D02*
X168402000Y-130622523D01*
X168353619Y-130525761D01*
X168353619Y-130283857D01*
X168402000Y-130187095D01*
X168450380Y-130138714D01*
X168547142Y-130090333D01*
X168643904Y-130090333D01*
X168789047Y-130138714D01*
X169369619Y-130719285D01*
X169369619Y-130090333D01*
X169369619Y-126608598D02*
X168353619Y-126481598D01*
X169079333Y-126267512D01*
X168353619Y-125871998D01*
X169369619Y-125998998D01*
X169369619Y-125563569D02*
X168353619Y-125436569D01*
X169369619Y-125128140D02*
X168353619Y-125001140D01*
X169369619Y-124605626D01*
X168353619Y-124478626D01*
X168353619Y-124043198D02*
X169176095Y-124146007D01*
X169272857Y-124114560D01*
X169321238Y-124077064D01*
X169369619Y-123996026D01*
X169369619Y-123821855D01*
X169321238Y-123728721D01*
X169272857Y-123679131D01*
X169176095Y-123623493D01*
X168353619Y-123520683D01*
X168353619Y-123215883D02*
X168353619Y-122693369D01*
X169369619Y-123081626D02*
X168353619Y-122954626D01*
X168837428Y-122449045D02*
X168837428Y-122144245D01*
X169369619Y-122080140D02*
X169369619Y-122515569D01*
X168353619Y-122388569D01*
X168353619Y-121953140D01*
X169321238Y-121725750D02*
X169369619Y-121601169D01*
X169369619Y-121383455D01*
X169321238Y-121290321D01*
X169272857Y-121240731D01*
X169176095Y-121185093D01*
X169079333Y-121172998D01*
X168982571Y-121204445D01*
X168934190Y-121241940D01*
X168885809Y-121322979D01*
X168837428Y-121491102D01*
X168789047Y-121572140D01*
X168740666Y-121609636D01*
X168643904Y-121641083D01*
X168547142Y-121628988D01*
X168450380Y-121573350D01*
X168402000Y-121523760D01*
X168353619Y-121430626D01*
X168353619Y-121212912D01*
X168402000Y-121088331D01*
X169321238Y-148039666D02*
X169369619Y-147894523D01*
X169369619Y-147652619D01*
X169321238Y-147555857D01*
X169272857Y-147507476D01*
X169176095Y-147459095D01*
X169079333Y-147459095D01*
X168982571Y-147507476D01*
X168934190Y-147555857D01*
X168885809Y-147652619D01*
X168837428Y-147846142D01*
X168789047Y-147942904D01*
X168740666Y-147991285D01*
X168643904Y-148039666D01*
X168547142Y-148039666D01*
X168450380Y-147991285D01*
X168402000Y-147942904D01*
X168353619Y-147846142D01*
X168353619Y-147604238D01*
X168402000Y-147459095D01*
X168353619Y-147120428D02*
X169369619Y-146878523D01*
X168643904Y-146685000D01*
X169369619Y-146491476D01*
X168353619Y-146249571D01*
X168353619Y-145959285D02*
X168353619Y-145330333D01*
X168740666Y-145669000D01*
X168740666Y-145523857D01*
X168789047Y-145427095D01*
X168837428Y-145378714D01*
X168934190Y-145330333D01*
X169176095Y-145330333D01*
X169272857Y-145378714D01*
X169321238Y-145427095D01*
X169369619Y-145523857D01*
X169369619Y-145814142D01*
X169321238Y-145910904D01*
X169272857Y-145959285D01*
X169369619Y-140647540D02*
X168353619Y-140520540D01*
X168837428Y-140581017D02*
X168837428Y-140058502D01*
X169369619Y-140125026D02*
X168353619Y-139998026D01*
X168353619Y-139388426D02*
X168353619Y-139214255D01*
X168402000Y-139133217D01*
X168498761Y-139058226D01*
X168692285Y-139038874D01*
X169030952Y-139081207D01*
X169224476Y-139148940D01*
X169321238Y-139248121D01*
X169369619Y-139341255D01*
X169369619Y-139515426D01*
X169321238Y-139596464D01*
X169224476Y-139671455D01*
X169030952Y-139690807D01*
X168692285Y-139648474D01*
X168498761Y-139580740D01*
X168402000Y-139481560D01*
X168353619Y-139388426D01*
X168353619Y-138604655D02*
X169176095Y-138707464D01*
X169272857Y-138676017D01*
X169321238Y-138638521D01*
X169369619Y-138557483D01*
X169369619Y-138383312D01*
X169321238Y-138290179D01*
X169272857Y-138240588D01*
X169176095Y-138184950D01*
X168353619Y-138082140D01*
X169369619Y-137251198D02*
X168885809Y-137495521D01*
X169369619Y-137773712D02*
X168353619Y-137646712D01*
X168353619Y-137298369D01*
X168402000Y-137217331D01*
X168450380Y-137179836D01*
X168547142Y-137148388D01*
X168692285Y-137166531D01*
X168789047Y-137222169D01*
X168837428Y-137271760D01*
X168885809Y-137364893D01*
X168885809Y-137713236D01*
X169321238Y-136896807D02*
X169369619Y-136772226D01*
X169369619Y-136554512D01*
X169321238Y-136461379D01*
X169272857Y-136411788D01*
X169176095Y-136356150D01*
X169079333Y-136344055D01*
X168982571Y-136375502D01*
X168934190Y-136412998D01*
X168885809Y-136494036D01*
X168837428Y-136662160D01*
X168789047Y-136743198D01*
X168740666Y-136780693D01*
X168643904Y-136812140D01*
X168547142Y-136800045D01*
X168450380Y-136744407D01*
X168402000Y-136694817D01*
X168353619Y-136601683D01*
X168353619Y-136383969D01*
X168402000Y-136259388D01*
X125590904Y-165178619D02*
X125590904Y-166001095D01*
X125639285Y-166097857D01*
X125687666Y-166146238D01*
X125784428Y-166194619D01*
X125977952Y-166194619D01*
X126074714Y-166146238D01*
X126123095Y-166097857D01*
X126171476Y-166001095D01*
X126171476Y-165178619D01*
X127187476Y-166194619D02*
X126606904Y-166194619D01*
X126897190Y-166194619D02*
X126897190Y-165178619D01*
X126800428Y-165323761D01*
X126703666Y-165420523D01*
X126606904Y-165468904D01*
X133414830Y-165178619D02*
X134024430Y-165178619D01*
X133505544Y-166194619D01*
X134722325Y-165517285D02*
X134637659Y-166194619D01*
X134552992Y-165130238D02*
X134244563Y-165855952D01*
X134810620Y-165855952D01*
X135116630Y-166194619D02*
X135243630Y-165178619D01*
X135183154Y-165662428D02*
X135705668Y-165662428D01*
X135639144Y-166194619D02*
X135766144Y-165178619D01*
X136609182Y-166097857D02*
X136559592Y-166146238D01*
X136422916Y-166194619D01*
X136335830Y-166194619D01*
X136211249Y-166146238D01*
X136136259Y-166049476D01*
X136104811Y-165952714D01*
X136085459Y-165759190D01*
X136103601Y-165614047D01*
X136171335Y-165420523D01*
X136226973Y-165323761D01*
X136326154Y-165227000D01*
X136462830Y-165178619D01*
X136549916Y-165178619D01*
X136674497Y-165227000D01*
X136711992Y-165275380D01*
X136985344Y-165178619D02*
X137507859Y-165178619D01*
X137119601Y-166194619D02*
X137246601Y-165178619D01*
X138162211Y-165517285D02*
X138077544Y-166194619D01*
X137992878Y-165130238D02*
X137684449Y-165855952D01*
X138250506Y-165855952D01*
X138857687Y-165178619D02*
X138944773Y-165178619D01*
X139025811Y-165227000D01*
X139063306Y-165275380D01*
X139094754Y-165372142D01*
X139114106Y-165565666D01*
X139083868Y-165807571D01*
X139016135Y-166001095D01*
X138960497Y-166097857D01*
X138910906Y-166146238D01*
X138817773Y-166194619D01*
X138730687Y-166194619D01*
X138649649Y-166146238D01*
X138612154Y-166097857D01*
X138580706Y-166001095D01*
X138561354Y-165807571D01*
X138591592Y-165565666D01*
X138659325Y-165372142D01*
X138714963Y-165275380D01*
X138764554Y-165227000D01*
X138857687Y-165178619D01*
X139946259Y-165178619D02*
X139772087Y-165178619D01*
X139678954Y-165227000D01*
X139629363Y-165275380D01*
X139524135Y-165420523D01*
X139456401Y-165614047D01*
X139408020Y-166001095D01*
X139439468Y-166097857D01*
X139476963Y-166146238D01*
X139558001Y-166194619D01*
X139732173Y-166194619D01*
X139825306Y-166146238D01*
X139874897Y-166097857D01*
X139930535Y-166001095D01*
X139960773Y-165759190D01*
X139929325Y-165662428D01*
X139891830Y-165614047D01*
X139810792Y-165565666D01*
X139636620Y-165565666D01*
X139543487Y-165614047D01*
X139493897Y-165662428D01*
X139438259Y-165759190D01*
X140599401Y-165178619D02*
X140686487Y-165178619D01*
X140767525Y-165227000D01*
X140805020Y-165275380D01*
X140836468Y-165372142D01*
X140855820Y-165565666D01*
X140825582Y-165807571D01*
X140757849Y-166001095D01*
X140702211Y-166097857D01*
X140652620Y-166146238D01*
X140559487Y-166194619D01*
X140472401Y-166194619D01*
X140391363Y-166146238D01*
X140353868Y-166097857D01*
X140322420Y-166001095D01*
X140303068Y-165807571D01*
X140333306Y-165565666D01*
X140401040Y-165372142D01*
X140456678Y-165275380D01*
X140506268Y-165227000D01*
X140599401Y-165178619D01*
X102095904Y-163908619D02*
X102095904Y-164731095D01*
X102144285Y-164827857D01*
X102192666Y-164876238D01*
X102289428Y-164924619D01*
X102482952Y-164924619D01*
X102579714Y-164876238D01*
X102628095Y-164827857D01*
X102676476Y-164731095D01*
X102676476Y-163908619D01*
X103111904Y-164005380D02*
X103160285Y-163957000D01*
X103257047Y-163908619D01*
X103498952Y-163908619D01*
X103595714Y-163957000D01*
X103644095Y-164005380D01*
X103692476Y-164102142D01*
X103692476Y-164198904D01*
X103644095Y-164344047D01*
X103063523Y-164924619D01*
X103692476Y-164924619D01*
X111904659Y-163908619D02*
X112514259Y-163908619D01*
X111995373Y-164924619D01*
X113212154Y-164247285D02*
X113127487Y-164924619D01*
X113042820Y-163860238D02*
X112734392Y-164585952D01*
X113300449Y-164585952D01*
X114041887Y-164924619D02*
X113606459Y-164924619D01*
X113733459Y-163908619D01*
X114309192Y-164876238D02*
X114433773Y-164924619D01*
X114651487Y-164924619D01*
X114744620Y-164876238D01*
X114794211Y-164827857D01*
X114849849Y-164731095D01*
X114861944Y-164634333D01*
X114830497Y-164537571D01*
X114793001Y-164489190D01*
X114711963Y-164440809D01*
X114543840Y-164392428D01*
X114462801Y-164344047D01*
X114425306Y-164295666D01*
X114393859Y-164198904D01*
X114405954Y-164102142D01*
X114461592Y-164005380D01*
X114511182Y-163957000D01*
X114604316Y-163908619D01*
X114822030Y-163908619D01*
X114946611Y-163957000D01*
X115518716Y-163908619D02*
X115605801Y-163908619D01*
X115686840Y-163957000D01*
X115724335Y-164005380D01*
X115755782Y-164102142D01*
X115775135Y-164295666D01*
X115744897Y-164537571D01*
X115677163Y-164731095D01*
X115621525Y-164827857D01*
X115571935Y-164876238D01*
X115478801Y-164924619D01*
X115391716Y-164924619D01*
X115310678Y-164876238D01*
X115273182Y-164827857D01*
X115241735Y-164731095D01*
X115222382Y-164537571D01*
X115252620Y-164295666D01*
X115320354Y-164102142D01*
X115375992Y-164005380D01*
X115425582Y-163957000D01*
X115518716Y-163908619D01*
X116389573Y-163908619D02*
X116476659Y-163908619D01*
X116557697Y-163957000D01*
X116595192Y-164005380D01*
X116626640Y-164102142D01*
X116645992Y-164295666D01*
X116615754Y-164537571D01*
X116548020Y-164731095D01*
X116492382Y-164827857D01*
X116442792Y-164876238D01*
X116349659Y-164924619D01*
X116262573Y-164924619D01*
X116181535Y-164876238D01*
X116144040Y-164827857D01*
X116112592Y-164731095D01*
X116093240Y-164537571D01*
X116123478Y-164295666D01*
X116191211Y-164102142D01*
X116246849Y-164005380D01*
X116296440Y-163957000D01*
X116389573Y-163908619D01*
X125590904Y-163908619D02*
X125590904Y-164731095D01*
X125639285Y-164827857D01*
X125687666Y-164876238D01*
X125784428Y-164924619D01*
X125977952Y-164924619D01*
X126074714Y-164876238D01*
X126123095Y-164827857D01*
X126171476Y-164731095D01*
X126171476Y-163908619D01*
X126558523Y-163908619D02*
X127187476Y-163908619D01*
X126848809Y-164295666D01*
X126993952Y-164295666D01*
X127090714Y-164344047D01*
X127139095Y-164392428D01*
X127187476Y-164489190D01*
X127187476Y-164731095D01*
X127139095Y-164827857D01*
X127090714Y-164876238D01*
X126993952Y-164924619D01*
X126703666Y-164924619D01*
X126606904Y-164876238D01*
X126558523Y-164827857D01*
X134764659Y-163908619D02*
X135374259Y-163908619D01*
X134855373Y-164924619D01*
X136072154Y-164247285D02*
X135987487Y-164924619D01*
X135902820Y-163860238D02*
X135594392Y-164585952D01*
X136160449Y-164585952D01*
X136901887Y-164924619D02*
X136466459Y-164924619D01*
X136593459Y-163908619D01*
X137169192Y-164876238D02*
X137293773Y-164924619D01*
X137511487Y-164924619D01*
X137604620Y-164876238D01*
X137654211Y-164827857D01*
X137709849Y-164731095D01*
X137721944Y-164634333D01*
X137690497Y-164537571D01*
X137653001Y-164489190D01*
X137571963Y-164440809D01*
X137403840Y-164392428D01*
X137322801Y-164344047D01*
X137285306Y-164295666D01*
X137253859Y-164198904D01*
X137265954Y-164102142D01*
X137321592Y-164005380D01*
X137371182Y-163957000D01*
X137464316Y-163908619D01*
X137682030Y-163908619D01*
X137806611Y-163957000D01*
X138378716Y-163908619D02*
X138465801Y-163908619D01*
X138546840Y-163957000D01*
X138584335Y-164005380D01*
X138615782Y-164102142D01*
X138635135Y-164295666D01*
X138604897Y-164537571D01*
X138537163Y-164731095D01*
X138481525Y-164827857D01*
X138431935Y-164876238D01*
X138338801Y-164924619D01*
X138251716Y-164924619D01*
X138170678Y-164876238D01*
X138133182Y-164827857D01*
X138101735Y-164731095D01*
X138082382Y-164537571D01*
X138112620Y-164295666D01*
X138180354Y-164102142D01*
X138235992Y-164005380D01*
X138285582Y-163957000D01*
X138378716Y-163908619D01*
X139249573Y-163908619D02*
X139336659Y-163908619D01*
X139417697Y-163957000D01*
X139455192Y-164005380D01*
X139486640Y-164102142D01*
X139505992Y-164295666D01*
X139475754Y-164537571D01*
X139408020Y-164731095D01*
X139352382Y-164827857D01*
X139302792Y-164876238D01*
X139209659Y-164924619D01*
X139122573Y-164924619D01*
X139041535Y-164876238D01*
X139004040Y-164827857D01*
X138972592Y-164731095D01*
X138953240Y-164537571D01*
X138983478Y-164295666D01*
X139051211Y-164102142D01*
X139106849Y-164005380D01*
X139156440Y-163957000D01*
X139249573Y-163908619D01*
X102095904Y-165178619D02*
X102095904Y-166001095D01*
X102144285Y-166097857D01*
X102192666Y-166146238D01*
X102289428Y-166194619D01*
X102482952Y-166194619D01*
X102579714Y-166146238D01*
X102628095Y-166097857D01*
X102676476Y-166001095D01*
X102676476Y-165178619D01*
X103595714Y-165517285D02*
X103595714Y-166194619D01*
X103353809Y-165130238D02*
X103111904Y-165855952D01*
X103740857Y-165855952D01*
X111904659Y-165178619D02*
X112514259Y-165178619D01*
X111995373Y-166194619D01*
X113212154Y-165517285D02*
X113127487Y-166194619D01*
X113042820Y-165130238D02*
X112734392Y-165855952D01*
X113300449Y-165855952D01*
X114041887Y-166194619D02*
X113606459Y-166194619D01*
X113733459Y-165178619D01*
X114309192Y-166146238D02*
X114433773Y-166194619D01*
X114651487Y-166194619D01*
X114744620Y-166146238D01*
X114794211Y-166097857D01*
X114849849Y-166001095D01*
X114861944Y-165904333D01*
X114830497Y-165807571D01*
X114793001Y-165759190D01*
X114711963Y-165710809D01*
X114543840Y-165662428D01*
X114462801Y-165614047D01*
X114425306Y-165565666D01*
X114393859Y-165468904D01*
X114405954Y-165372142D01*
X114461592Y-165275380D01*
X114511182Y-165227000D01*
X114604316Y-165178619D01*
X114822030Y-165178619D01*
X114946611Y-165227000D01*
X115518716Y-165178619D02*
X115605801Y-165178619D01*
X115686840Y-165227000D01*
X115724335Y-165275380D01*
X115755782Y-165372142D01*
X115775135Y-165565666D01*
X115744897Y-165807571D01*
X115677163Y-166001095D01*
X115621525Y-166097857D01*
X115571935Y-166146238D01*
X115478801Y-166194619D01*
X115391716Y-166194619D01*
X115310678Y-166146238D01*
X115273182Y-166097857D01*
X115241735Y-166001095D01*
X115222382Y-165807571D01*
X115252620Y-165565666D01*
X115320354Y-165372142D01*
X115375992Y-165275380D01*
X115425582Y-165227000D01*
X115518716Y-165178619D01*
X116389573Y-165178619D02*
X116476659Y-165178619D01*
X116557697Y-165227000D01*
X116595192Y-165275380D01*
X116626640Y-165372142D01*
X116645992Y-165565666D01*
X116615754Y-165807571D01*
X116548020Y-166001095D01*
X116492382Y-166097857D01*
X116442792Y-166146238D01*
X116349659Y-166194619D01*
X116262573Y-166194619D01*
X116181535Y-166146238D01*
X116144040Y-166097857D01*
X116112592Y-166001095D01*
X116093240Y-165807571D01*
X116123478Y-165565666D01*
X116191211Y-165372142D01*
X116246849Y-165275380D01*
X116296440Y-165227000D01*
X116389573Y-165178619D01*
X124955904Y-87708619D02*
X124955904Y-88531095D01*
X125004285Y-88627857D01*
X125052666Y-88676238D01*
X125149428Y-88724619D01*
X125342952Y-88724619D01*
X125439714Y-88676238D01*
X125488095Y-88627857D01*
X125536476Y-88531095D01*
X125536476Y-87708619D01*
X126504095Y-87708619D02*
X126020285Y-87708619D01*
X125971904Y-88192428D01*
X126020285Y-88144047D01*
X126117047Y-88095666D01*
X126358952Y-88095666D01*
X126455714Y-88144047D01*
X126504095Y-88192428D01*
X126552476Y-88289190D01*
X126552476Y-88531095D01*
X126504095Y-88627857D01*
X126455714Y-88676238D01*
X126358952Y-88724619D01*
X126117047Y-88724619D01*
X126020285Y-88676238D01*
X125971904Y-88627857D01*
X137304659Y-87708619D02*
X137914259Y-87708619D01*
X137395373Y-88724619D01*
X138612154Y-88047285D02*
X138527487Y-88724619D01*
X138442820Y-87660238D02*
X138134392Y-88385952D01*
X138700449Y-88385952D01*
X139441887Y-88724619D02*
X139006459Y-88724619D01*
X139133459Y-87708619D01*
X139709192Y-88676238D02*
X139833773Y-88724619D01*
X140051487Y-88724619D01*
X140144620Y-88676238D01*
X140194211Y-88627857D01*
X140249849Y-88531095D01*
X140261944Y-88434333D01*
X140230497Y-88337571D01*
X140193001Y-88289190D01*
X140111963Y-88240809D01*
X139943840Y-88192428D01*
X139862801Y-88144047D01*
X139825306Y-88095666D01*
X139793859Y-87998904D01*
X139805954Y-87902142D01*
X139861592Y-87805380D01*
X139911182Y-87757000D01*
X140004316Y-87708619D01*
X140222030Y-87708619D01*
X140346611Y-87757000D01*
X141094097Y-88047285D02*
X141009430Y-88724619D01*
X140924763Y-87660238D02*
X140616335Y-88385952D01*
X141182392Y-88385952D01*
X141528316Y-87708619D02*
X142137916Y-87708619D01*
X141619030Y-88724619D01*
X124955904Y-100408619D02*
X124955904Y-101231095D01*
X125004285Y-101327857D01*
X125052666Y-101376238D01*
X125149428Y-101424619D01*
X125342952Y-101424619D01*
X125439714Y-101376238D01*
X125488095Y-101327857D01*
X125536476Y-101231095D01*
X125536476Y-100408619D01*
X126455714Y-100408619D02*
X126262190Y-100408619D01*
X126165428Y-100457000D01*
X126117047Y-100505380D01*
X126020285Y-100650523D01*
X125971904Y-100844047D01*
X125971904Y-101231095D01*
X126020285Y-101327857D01*
X126068666Y-101376238D01*
X126165428Y-101424619D01*
X126358952Y-101424619D01*
X126455714Y-101376238D01*
X126504095Y-101327857D01*
X126552476Y-101231095D01*
X126552476Y-100989190D01*
X126504095Y-100892428D01*
X126455714Y-100844047D01*
X126358952Y-100795666D01*
X126165428Y-100795666D01*
X126068666Y-100844047D01*
X126020285Y-100892428D01*
X125971904Y-100989190D01*
X137304659Y-100408619D02*
X137914259Y-100408619D01*
X137395373Y-101424619D01*
X138612154Y-100747285D02*
X138527487Y-101424619D01*
X138442820Y-100360238D02*
X138134392Y-101085952D01*
X138700449Y-101085952D01*
X139441887Y-101424619D02*
X139006459Y-101424619D01*
X139133459Y-100408619D01*
X139709192Y-101376238D02*
X139833773Y-101424619D01*
X140051487Y-101424619D01*
X140144620Y-101376238D01*
X140194211Y-101327857D01*
X140249849Y-101231095D01*
X140261944Y-101134333D01*
X140230497Y-101037571D01*
X140193001Y-100989190D01*
X140111963Y-100940809D01*
X139943840Y-100892428D01*
X139862801Y-100844047D01*
X139825306Y-100795666D01*
X139793859Y-100698904D01*
X139805954Y-100602142D01*
X139861592Y-100505380D01*
X139911182Y-100457000D01*
X140004316Y-100408619D01*
X140222030Y-100408619D01*
X140346611Y-100457000D01*
X141094097Y-100747285D02*
X141009430Y-101424619D01*
X140924763Y-100360238D02*
X140616335Y-101085952D01*
X141182392Y-101085952D01*
X141528316Y-100408619D02*
X142137916Y-100408619D01*
X141619030Y-101424619D01*
X124955904Y-113108619D02*
X124955904Y-113931095D01*
X125004285Y-114027857D01*
X125052666Y-114076238D01*
X125149428Y-114124619D01*
X125342952Y-114124619D01*
X125439714Y-114076238D01*
X125488095Y-114027857D01*
X125536476Y-113931095D01*
X125536476Y-113108619D01*
X125923523Y-113108619D02*
X126600857Y-113108619D01*
X126165428Y-114124619D01*
X137304659Y-113108619D02*
X137914259Y-113108619D01*
X137395373Y-114124619D01*
X138612154Y-113447285D02*
X138527487Y-114124619D01*
X138442820Y-113060238D02*
X138134392Y-113785952D01*
X138700449Y-113785952D01*
X139441887Y-114124619D02*
X139006459Y-114124619D01*
X139133459Y-113108619D01*
X139709192Y-114076238D02*
X139833773Y-114124619D01*
X140051487Y-114124619D01*
X140144620Y-114076238D01*
X140194211Y-114027857D01*
X140249849Y-113931095D01*
X140261944Y-113834333D01*
X140230497Y-113737571D01*
X140193001Y-113689190D01*
X140111963Y-113640809D01*
X139943840Y-113592428D01*
X139862801Y-113544047D01*
X139825306Y-113495666D01*
X139793859Y-113398904D01*
X139805954Y-113302142D01*
X139861592Y-113205380D01*
X139911182Y-113157000D01*
X140004316Y-113108619D01*
X140222030Y-113108619D01*
X140346611Y-113157000D01*
X141094097Y-113447285D02*
X141009430Y-114124619D01*
X140924763Y-113060238D02*
X140616335Y-113785952D01*
X141182392Y-113785952D01*
X141528316Y-113108619D02*
X142137916Y-113108619D01*
X141619030Y-114124619D01*
X124955904Y-125808619D02*
X124955904Y-126631095D01*
X125004285Y-126727857D01*
X125052666Y-126776238D01*
X125149428Y-126824619D01*
X125342952Y-126824619D01*
X125439714Y-126776238D01*
X125488095Y-126727857D01*
X125536476Y-126631095D01*
X125536476Y-125808619D01*
X126165428Y-126244047D02*
X126068666Y-126195666D01*
X126020285Y-126147285D01*
X125971904Y-126050523D01*
X125971904Y-126002142D01*
X126020285Y-125905380D01*
X126068666Y-125857000D01*
X126165428Y-125808619D01*
X126358952Y-125808619D01*
X126455714Y-125857000D01*
X126504095Y-125905380D01*
X126552476Y-126002142D01*
X126552476Y-126050523D01*
X126504095Y-126147285D01*
X126455714Y-126195666D01*
X126358952Y-126244047D01*
X126165428Y-126244047D01*
X126068666Y-126292428D01*
X126020285Y-126340809D01*
X125971904Y-126437571D01*
X125971904Y-126631095D01*
X126020285Y-126727857D01*
X126068666Y-126776238D01*
X126165428Y-126824619D01*
X126358952Y-126824619D01*
X126455714Y-126776238D01*
X126504095Y-126727857D01*
X126552476Y-126631095D01*
X126552476Y-126437571D01*
X126504095Y-126340809D01*
X126455714Y-126292428D01*
X126358952Y-126244047D01*
X137304659Y-125808619D02*
X137914259Y-125808619D01*
X137395373Y-126824619D01*
X138612154Y-126147285D02*
X138527487Y-126824619D01*
X138442820Y-125760238D02*
X138134392Y-126485952D01*
X138700449Y-126485952D01*
X139441887Y-126824619D02*
X139006459Y-126824619D01*
X139133459Y-125808619D01*
X139709192Y-126776238D02*
X139833773Y-126824619D01*
X140051487Y-126824619D01*
X140144620Y-126776238D01*
X140194211Y-126727857D01*
X140249849Y-126631095D01*
X140261944Y-126534333D01*
X140230497Y-126437571D01*
X140193001Y-126389190D01*
X140111963Y-126340809D01*
X139943840Y-126292428D01*
X139862801Y-126244047D01*
X139825306Y-126195666D01*
X139793859Y-126098904D01*
X139805954Y-126002142D01*
X139861592Y-125905380D01*
X139911182Y-125857000D01*
X140004316Y-125808619D01*
X140222030Y-125808619D01*
X140346611Y-125857000D01*
X141094097Y-126147285D02*
X141009430Y-126824619D01*
X140924763Y-125760238D02*
X140616335Y-126485952D01*
X141182392Y-126485952D01*
X141528316Y-125808619D02*
X142137916Y-125808619D01*
X141619030Y-126824619D01*
X124955904Y-138508619D02*
X124955904Y-139331095D01*
X125004285Y-139427857D01*
X125052666Y-139476238D01*
X125149428Y-139524619D01*
X125342952Y-139524619D01*
X125439714Y-139476238D01*
X125488095Y-139427857D01*
X125536476Y-139331095D01*
X125536476Y-138508619D01*
X126068666Y-139524619D02*
X126262190Y-139524619D01*
X126358952Y-139476238D01*
X126407333Y-139427857D01*
X126504095Y-139282714D01*
X126552476Y-139089190D01*
X126552476Y-138702142D01*
X126504095Y-138605380D01*
X126455714Y-138557000D01*
X126358952Y-138508619D01*
X126165428Y-138508619D01*
X126068666Y-138557000D01*
X126020285Y-138605380D01*
X125971904Y-138702142D01*
X125971904Y-138944047D01*
X126020285Y-139040809D01*
X126068666Y-139089190D01*
X126165428Y-139137571D01*
X126358952Y-139137571D01*
X126455714Y-139089190D01*
X126504095Y-139040809D01*
X126552476Y-138944047D01*
X137304659Y-138508619D02*
X137914259Y-138508619D01*
X137395373Y-139524619D01*
X138612154Y-138847285D02*
X138527487Y-139524619D01*
X138442820Y-138460238D02*
X138134392Y-139185952D01*
X138700449Y-139185952D01*
X139441887Y-139524619D02*
X139006459Y-139524619D01*
X139133459Y-138508619D01*
X139709192Y-139476238D02*
X139833773Y-139524619D01*
X140051487Y-139524619D01*
X140144620Y-139476238D01*
X140194211Y-139427857D01*
X140249849Y-139331095D01*
X140261944Y-139234333D01*
X140230497Y-139137571D01*
X140193001Y-139089190D01*
X140111963Y-139040809D01*
X139943840Y-138992428D01*
X139862801Y-138944047D01*
X139825306Y-138895666D01*
X139793859Y-138798904D01*
X139805954Y-138702142D01*
X139861592Y-138605380D01*
X139911182Y-138557000D01*
X140004316Y-138508619D01*
X140222030Y-138508619D01*
X140346611Y-138557000D01*
X141094097Y-138847285D02*
X141009430Y-139524619D01*
X140924763Y-138460238D02*
X140616335Y-139185952D01*
X141182392Y-139185952D01*
X141528316Y-138508619D02*
X142137916Y-138508619D01*
X141619030Y-139524619D01*
X124472095Y-151208619D02*
X124472095Y-152031095D01*
X124520476Y-152127857D01*
X124568857Y-152176238D01*
X124665619Y-152224619D01*
X124859142Y-152224619D01*
X124955904Y-152176238D01*
X125004285Y-152127857D01*
X125052666Y-152031095D01*
X125052666Y-151208619D01*
X126068666Y-152224619D02*
X125488095Y-152224619D01*
X125778380Y-152224619D02*
X125778380Y-151208619D01*
X125681619Y-151353761D01*
X125584857Y-151450523D01*
X125488095Y-151498904D01*
X126697619Y-151208619D02*
X126794380Y-151208619D01*
X126891142Y-151257000D01*
X126939523Y-151305380D01*
X126987904Y-151402142D01*
X127036285Y-151595666D01*
X127036285Y-151837571D01*
X126987904Y-152031095D01*
X126939523Y-152127857D01*
X126891142Y-152176238D01*
X126794380Y-152224619D01*
X126697619Y-152224619D01*
X126600857Y-152176238D01*
X126552476Y-152127857D01*
X126504095Y-152031095D01*
X126455714Y-151837571D01*
X126455714Y-151595666D01*
X126504095Y-151402142D01*
X126552476Y-151305380D01*
X126600857Y-151257000D01*
X126697619Y-151208619D01*
X137304659Y-151208619D02*
X137914259Y-151208619D01*
X137395373Y-152224619D01*
X138612154Y-151547285D02*
X138527487Y-152224619D01*
X138442820Y-151160238D02*
X138134392Y-151885952D01*
X138700449Y-151885952D01*
X139441887Y-152224619D02*
X139006459Y-152224619D01*
X139133459Y-151208619D01*
X139709192Y-152176238D02*
X139833773Y-152224619D01*
X140051487Y-152224619D01*
X140144620Y-152176238D01*
X140194211Y-152127857D01*
X140249849Y-152031095D01*
X140261944Y-151934333D01*
X140230497Y-151837571D01*
X140193001Y-151789190D01*
X140111963Y-151740809D01*
X139943840Y-151692428D01*
X139862801Y-151644047D01*
X139825306Y-151595666D01*
X139793859Y-151498904D01*
X139805954Y-151402142D01*
X139861592Y-151305380D01*
X139911182Y-151257000D01*
X140004316Y-151208619D01*
X140222030Y-151208619D01*
X140346611Y-151257000D01*
X141094097Y-151547285D02*
X141009430Y-152224619D01*
X140924763Y-151160238D02*
X140616335Y-151885952D01*
X141182392Y-151885952D01*
X141528316Y-151208619D02*
X142137916Y-151208619D01*
X141619030Y-152224619D01*
X149872095Y-87708619D02*
X149872095Y-88531095D01*
X149920476Y-88627857D01*
X149968857Y-88676238D01*
X150065619Y-88724619D01*
X150259142Y-88724619D01*
X150355904Y-88676238D01*
X150404285Y-88627857D01*
X150452666Y-88531095D01*
X150452666Y-87708619D01*
X151468666Y-88724619D02*
X150888095Y-88724619D01*
X151178380Y-88724619D02*
X151178380Y-87708619D01*
X151081619Y-87853761D01*
X150984857Y-87950523D01*
X150888095Y-87998904D01*
X152436285Y-88724619D02*
X151855714Y-88724619D01*
X152146000Y-88724619D02*
X152146000Y-87708619D01*
X152049238Y-87853761D01*
X151952476Y-87950523D01*
X151855714Y-87998904D01*
X160164659Y-87708619D02*
X160774259Y-87708619D01*
X160255373Y-88724619D01*
X161472154Y-88047285D02*
X161387487Y-88724619D01*
X161302820Y-87660238D02*
X160994392Y-88385952D01*
X161560449Y-88385952D01*
X162301887Y-88724619D02*
X161866459Y-88724619D01*
X161993459Y-87708619D01*
X162569192Y-88676238D02*
X162693773Y-88724619D01*
X162911487Y-88724619D01*
X163004620Y-88676238D01*
X163054211Y-88627857D01*
X163109849Y-88531095D01*
X163121944Y-88434333D01*
X163090497Y-88337571D01*
X163053001Y-88289190D01*
X162971963Y-88240809D01*
X162803840Y-88192428D01*
X162722801Y-88144047D01*
X162685306Y-88095666D01*
X162653859Y-87998904D01*
X162665954Y-87902142D01*
X162721592Y-87805380D01*
X162771182Y-87757000D01*
X162864316Y-87708619D01*
X163082030Y-87708619D01*
X163206611Y-87757000D01*
X163521087Y-88724619D02*
X163695259Y-88724619D01*
X163788392Y-88676238D01*
X163837982Y-88627857D01*
X163943211Y-88482714D01*
X164010944Y-88289190D01*
X164059325Y-87902142D01*
X164027878Y-87805380D01*
X163990382Y-87757000D01*
X163909344Y-87708619D01*
X163735173Y-87708619D01*
X163642040Y-87757000D01*
X163592449Y-87805380D01*
X163536811Y-87902142D01*
X163506573Y-88144047D01*
X163538020Y-88240809D01*
X163575516Y-88289190D01*
X163656554Y-88337571D01*
X163830725Y-88337571D01*
X163923859Y-88289190D01*
X163973449Y-88240809D01*
X164029087Y-88144047D01*
X164649573Y-87708619D02*
X164736659Y-87708619D01*
X164817697Y-87757000D01*
X164855192Y-87805380D01*
X164886640Y-87902142D01*
X164905992Y-88095666D01*
X164875754Y-88337571D01*
X164808020Y-88531095D01*
X164752382Y-88627857D01*
X164702792Y-88676238D01*
X164609659Y-88724619D01*
X164522573Y-88724619D01*
X164441535Y-88676238D01*
X164404040Y-88627857D01*
X164372592Y-88531095D01*
X164353240Y-88337571D01*
X164383478Y-88095666D01*
X164451211Y-87902142D01*
X164506849Y-87805380D01*
X164556440Y-87757000D01*
X164649573Y-87708619D01*
X149872095Y-100408619D02*
X149872095Y-101231095D01*
X149920476Y-101327857D01*
X149968857Y-101376238D01*
X150065619Y-101424619D01*
X150259142Y-101424619D01*
X150355904Y-101376238D01*
X150404285Y-101327857D01*
X150452666Y-101231095D01*
X150452666Y-100408619D01*
X151468666Y-101424619D02*
X150888095Y-101424619D01*
X151178380Y-101424619D02*
X151178380Y-100408619D01*
X151081619Y-100553761D01*
X150984857Y-100650523D01*
X150888095Y-100698904D01*
X151855714Y-100505380D02*
X151904095Y-100457000D01*
X152000857Y-100408619D01*
X152242761Y-100408619D01*
X152339523Y-100457000D01*
X152387904Y-100505380D01*
X152436285Y-100602142D01*
X152436285Y-100698904D01*
X152387904Y-100844047D01*
X151807333Y-101424619D01*
X152436285Y-101424619D01*
X160164659Y-100408619D02*
X160774259Y-100408619D01*
X160255373Y-101424619D01*
X161472154Y-100747285D02*
X161387487Y-101424619D01*
X161302820Y-100360238D02*
X160994392Y-101085952D01*
X161560449Y-101085952D01*
X162301887Y-101424619D02*
X161866459Y-101424619D01*
X161993459Y-100408619D01*
X162569192Y-101376238D02*
X162693773Y-101424619D01*
X162911487Y-101424619D01*
X163004620Y-101376238D01*
X163054211Y-101327857D01*
X163109849Y-101231095D01*
X163121944Y-101134333D01*
X163090497Y-101037571D01*
X163053001Y-100989190D01*
X162971963Y-100940809D01*
X162803840Y-100892428D01*
X162722801Y-100844047D01*
X162685306Y-100795666D01*
X162653859Y-100698904D01*
X162665954Y-100602142D01*
X162721592Y-100505380D01*
X162771182Y-100457000D01*
X162864316Y-100408619D01*
X163082030Y-100408619D01*
X163206611Y-100457000D01*
X163521087Y-101424619D02*
X163695259Y-101424619D01*
X163788392Y-101376238D01*
X163837982Y-101327857D01*
X163943211Y-101182714D01*
X164010944Y-100989190D01*
X164059325Y-100602142D01*
X164027878Y-100505380D01*
X163990382Y-100457000D01*
X163909344Y-100408619D01*
X163735173Y-100408619D01*
X163642040Y-100457000D01*
X163592449Y-100505380D01*
X163536811Y-100602142D01*
X163506573Y-100844047D01*
X163538020Y-100940809D01*
X163575516Y-100989190D01*
X163656554Y-101037571D01*
X163830725Y-101037571D01*
X163923859Y-100989190D01*
X163973449Y-100940809D01*
X164029087Y-100844047D01*
X164649573Y-100408619D02*
X164736659Y-100408619D01*
X164817697Y-100457000D01*
X164855192Y-100505380D01*
X164886640Y-100602142D01*
X164905992Y-100795666D01*
X164875754Y-101037571D01*
X164808020Y-101231095D01*
X164752382Y-101327857D01*
X164702792Y-101376238D01*
X164609659Y-101424619D01*
X164522573Y-101424619D01*
X164441535Y-101376238D01*
X164404040Y-101327857D01*
X164372592Y-101231095D01*
X164353240Y-101037571D01*
X164383478Y-100795666D01*
X164451211Y-100602142D01*
X164506849Y-100505380D01*
X164556440Y-100457000D01*
X164649573Y-100408619D01*
X149872095Y-113108619D02*
X149872095Y-113931095D01*
X149920476Y-114027857D01*
X149968857Y-114076238D01*
X150065619Y-114124619D01*
X150259142Y-114124619D01*
X150355904Y-114076238D01*
X150404285Y-114027857D01*
X150452666Y-113931095D01*
X150452666Y-113108619D01*
X151468666Y-114124619D02*
X150888095Y-114124619D01*
X151178380Y-114124619D02*
X151178380Y-113108619D01*
X151081619Y-113253761D01*
X150984857Y-113350523D01*
X150888095Y-113398904D01*
X151807333Y-113108619D02*
X152436285Y-113108619D01*
X152097619Y-113495666D01*
X152242761Y-113495666D01*
X152339523Y-113544047D01*
X152387904Y-113592428D01*
X152436285Y-113689190D01*
X152436285Y-113931095D01*
X152387904Y-114027857D01*
X152339523Y-114076238D01*
X152242761Y-114124619D01*
X151952476Y-114124619D01*
X151855714Y-114076238D01*
X151807333Y-114027857D01*
X160164659Y-113108619D02*
X160774259Y-113108619D01*
X160255373Y-114124619D01*
X161472154Y-113447285D02*
X161387487Y-114124619D01*
X161302820Y-113060238D02*
X160994392Y-113785952D01*
X161560449Y-113785952D01*
X162301887Y-114124619D02*
X161866459Y-114124619D01*
X161993459Y-113108619D01*
X162569192Y-114076238D02*
X162693773Y-114124619D01*
X162911487Y-114124619D01*
X163004620Y-114076238D01*
X163054211Y-114027857D01*
X163109849Y-113931095D01*
X163121944Y-113834333D01*
X163090497Y-113737571D01*
X163053001Y-113689190D01*
X162971963Y-113640809D01*
X162803840Y-113592428D01*
X162722801Y-113544047D01*
X162685306Y-113495666D01*
X162653859Y-113398904D01*
X162665954Y-113302142D01*
X162721592Y-113205380D01*
X162771182Y-113157000D01*
X162864316Y-113108619D01*
X163082030Y-113108619D01*
X163206611Y-113157000D01*
X163521087Y-114124619D02*
X163695259Y-114124619D01*
X163788392Y-114076238D01*
X163837982Y-114027857D01*
X163943211Y-113882714D01*
X164010944Y-113689190D01*
X164059325Y-113302142D01*
X164027878Y-113205380D01*
X163990382Y-113157000D01*
X163909344Y-113108619D01*
X163735173Y-113108619D01*
X163642040Y-113157000D01*
X163592449Y-113205380D01*
X163536811Y-113302142D01*
X163506573Y-113544047D01*
X163538020Y-113640809D01*
X163575516Y-113689190D01*
X163656554Y-113737571D01*
X163830725Y-113737571D01*
X163923859Y-113689190D01*
X163973449Y-113640809D01*
X164029087Y-113544047D01*
X164649573Y-113108619D02*
X164736659Y-113108619D01*
X164817697Y-113157000D01*
X164855192Y-113205380D01*
X164886640Y-113302142D01*
X164905992Y-113495666D01*
X164875754Y-113737571D01*
X164808020Y-113931095D01*
X164752382Y-114027857D01*
X164702792Y-114076238D01*
X164609659Y-114124619D01*
X164522573Y-114124619D01*
X164441535Y-114076238D01*
X164404040Y-114027857D01*
X164372592Y-113931095D01*
X164353240Y-113737571D01*
X164383478Y-113495666D01*
X164451211Y-113302142D01*
X164506849Y-113205380D01*
X164556440Y-113157000D01*
X164649573Y-113108619D01*
X149872095Y-125808619D02*
X149872095Y-126631095D01*
X149920476Y-126727857D01*
X149968857Y-126776238D01*
X150065619Y-126824619D01*
X150259142Y-126824619D01*
X150355904Y-126776238D01*
X150404285Y-126727857D01*
X150452666Y-126631095D01*
X150452666Y-125808619D01*
X151468666Y-126824619D02*
X150888095Y-126824619D01*
X151178380Y-126824619D02*
X151178380Y-125808619D01*
X151081619Y-125953761D01*
X150984857Y-126050523D01*
X150888095Y-126098904D01*
X152339523Y-126147285D02*
X152339523Y-126824619D01*
X152097619Y-125760238D02*
X151855714Y-126485952D01*
X152484666Y-126485952D01*
X160164659Y-125808619D02*
X160774259Y-125808619D01*
X160255373Y-126824619D01*
X161472154Y-126147285D02*
X161387487Y-126824619D01*
X161302820Y-125760238D02*
X160994392Y-126485952D01*
X161560449Y-126485952D01*
X162301887Y-126824619D02*
X161866459Y-126824619D01*
X161993459Y-125808619D01*
X162569192Y-126776238D02*
X162693773Y-126824619D01*
X162911487Y-126824619D01*
X163004620Y-126776238D01*
X163054211Y-126727857D01*
X163109849Y-126631095D01*
X163121944Y-126534333D01*
X163090497Y-126437571D01*
X163053001Y-126389190D01*
X162971963Y-126340809D01*
X162803840Y-126292428D01*
X162722801Y-126244047D01*
X162685306Y-126195666D01*
X162653859Y-126098904D01*
X162665954Y-126002142D01*
X162721592Y-125905380D01*
X162771182Y-125857000D01*
X162864316Y-125808619D01*
X163082030Y-125808619D01*
X163206611Y-125857000D01*
X163521087Y-126824619D02*
X163695259Y-126824619D01*
X163788392Y-126776238D01*
X163837982Y-126727857D01*
X163943211Y-126582714D01*
X164010944Y-126389190D01*
X164059325Y-126002142D01*
X164027878Y-125905380D01*
X163990382Y-125857000D01*
X163909344Y-125808619D01*
X163735173Y-125808619D01*
X163642040Y-125857000D01*
X163592449Y-125905380D01*
X163536811Y-126002142D01*
X163506573Y-126244047D01*
X163538020Y-126340809D01*
X163575516Y-126389190D01*
X163656554Y-126437571D01*
X163830725Y-126437571D01*
X163923859Y-126389190D01*
X163973449Y-126340809D01*
X164029087Y-126244047D01*
X164649573Y-125808619D02*
X164736659Y-125808619D01*
X164817697Y-125857000D01*
X164855192Y-125905380D01*
X164886640Y-126002142D01*
X164905992Y-126195666D01*
X164875754Y-126437571D01*
X164808020Y-126631095D01*
X164752382Y-126727857D01*
X164702792Y-126776238D01*
X164609659Y-126824619D01*
X164522573Y-126824619D01*
X164441535Y-126776238D01*
X164404040Y-126727857D01*
X164372592Y-126631095D01*
X164353240Y-126437571D01*
X164383478Y-126195666D01*
X164451211Y-126002142D01*
X164506849Y-125905380D01*
X164556440Y-125857000D01*
X164649573Y-125808619D01*
X149872095Y-138508619D02*
X149872095Y-139331095D01*
X149920476Y-139427857D01*
X149968857Y-139476238D01*
X150065619Y-139524619D01*
X150259142Y-139524619D01*
X150355904Y-139476238D01*
X150404285Y-139427857D01*
X150452666Y-139331095D01*
X150452666Y-138508619D01*
X151468666Y-139524619D02*
X150888095Y-139524619D01*
X151178380Y-139524619D02*
X151178380Y-138508619D01*
X151081619Y-138653761D01*
X150984857Y-138750523D01*
X150888095Y-138798904D01*
X152387904Y-138508619D02*
X151904095Y-138508619D01*
X151855714Y-138992428D01*
X151904095Y-138944047D01*
X152000857Y-138895666D01*
X152242761Y-138895666D01*
X152339523Y-138944047D01*
X152387904Y-138992428D01*
X152436285Y-139089190D01*
X152436285Y-139331095D01*
X152387904Y-139427857D01*
X152339523Y-139476238D01*
X152242761Y-139524619D01*
X152000857Y-139524619D01*
X151904095Y-139476238D01*
X151855714Y-139427857D01*
X160164659Y-138508619D02*
X160774259Y-138508619D01*
X160255373Y-139524619D01*
X161472154Y-138847285D02*
X161387487Y-139524619D01*
X161302820Y-138460238D02*
X160994392Y-139185952D01*
X161560449Y-139185952D01*
X162301887Y-139524619D02*
X161866459Y-139524619D01*
X161993459Y-138508619D01*
X162569192Y-139476238D02*
X162693773Y-139524619D01*
X162911487Y-139524619D01*
X163004620Y-139476238D01*
X163054211Y-139427857D01*
X163109849Y-139331095D01*
X163121944Y-139234333D01*
X163090497Y-139137571D01*
X163053001Y-139089190D01*
X162971963Y-139040809D01*
X162803840Y-138992428D01*
X162722801Y-138944047D01*
X162685306Y-138895666D01*
X162653859Y-138798904D01*
X162665954Y-138702142D01*
X162721592Y-138605380D01*
X162771182Y-138557000D01*
X162864316Y-138508619D01*
X163082030Y-138508619D01*
X163206611Y-138557000D01*
X163521087Y-139524619D02*
X163695259Y-139524619D01*
X163788392Y-139476238D01*
X163837982Y-139427857D01*
X163943211Y-139282714D01*
X164010944Y-139089190D01*
X164059325Y-138702142D01*
X164027878Y-138605380D01*
X163990382Y-138557000D01*
X163909344Y-138508619D01*
X163735173Y-138508619D01*
X163642040Y-138557000D01*
X163592449Y-138605380D01*
X163536811Y-138702142D01*
X163506573Y-138944047D01*
X163538020Y-139040809D01*
X163575516Y-139089190D01*
X163656554Y-139137571D01*
X163830725Y-139137571D01*
X163923859Y-139089190D01*
X163973449Y-139040809D01*
X164029087Y-138944047D01*
X164649573Y-138508619D02*
X164736659Y-138508619D01*
X164817697Y-138557000D01*
X164855192Y-138605380D01*
X164886640Y-138702142D01*
X164905992Y-138895666D01*
X164875754Y-139137571D01*
X164808020Y-139331095D01*
X164752382Y-139427857D01*
X164702792Y-139476238D01*
X164609659Y-139524619D01*
X164522573Y-139524619D01*
X164441535Y-139476238D01*
X164404040Y-139427857D01*
X164372592Y-139331095D01*
X164353240Y-139137571D01*
X164383478Y-138895666D01*
X164451211Y-138702142D01*
X164506849Y-138605380D01*
X164556440Y-138557000D01*
X164649573Y-138508619D01*
X149872095Y-151208619D02*
X149872095Y-152031095D01*
X149920476Y-152127857D01*
X149968857Y-152176238D01*
X150065619Y-152224619D01*
X150259142Y-152224619D01*
X150355904Y-152176238D01*
X150404285Y-152127857D01*
X150452666Y-152031095D01*
X150452666Y-151208619D01*
X151468666Y-152224619D02*
X150888095Y-152224619D01*
X151178380Y-152224619D02*
X151178380Y-151208619D01*
X151081619Y-151353761D01*
X150984857Y-151450523D01*
X150888095Y-151498904D01*
X152339523Y-151208619D02*
X152146000Y-151208619D01*
X152049238Y-151257000D01*
X152000857Y-151305380D01*
X151904095Y-151450523D01*
X151855714Y-151644047D01*
X151855714Y-152031095D01*
X151904095Y-152127857D01*
X151952476Y-152176238D01*
X152049238Y-152224619D01*
X152242761Y-152224619D01*
X152339523Y-152176238D01*
X152387904Y-152127857D01*
X152436285Y-152031095D01*
X152436285Y-151789190D01*
X152387904Y-151692428D01*
X152339523Y-151644047D01*
X152242761Y-151595666D01*
X152049238Y-151595666D01*
X151952476Y-151644047D01*
X151904095Y-151692428D01*
X151855714Y-151789190D01*
X160164659Y-151208619D02*
X160774259Y-151208619D01*
X160255373Y-152224619D01*
X161472154Y-151547285D02*
X161387487Y-152224619D01*
X161302820Y-151160238D02*
X160994392Y-151885952D01*
X161560449Y-151885952D01*
X162301887Y-152224619D02*
X161866459Y-152224619D01*
X161993459Y-151208619D01*
X162569192Y-152176238D02*
X162693773Y-152224619D01*
X162911487Y-152224619D01*
X163004620Y-152176238D01*
X163054211Y-152127857D01*
X163109849Y-152031095D01*
X163121944Y-151934333D01*
X163090497Y-151837571D01*
X163053001Y-151789190D01*
X162971963Y-151740809D01*
X162803840Y-151692428D01*
X162722801Y-151644047D01*
X162685306Y-151595666D01*
X162653859Y-151498904D01*
X162665954Y-151402142D01*
X162721592Y-151305380D01*
X162771182Y-151257000D01*
X162864316Y-151208619D01*
X163082030Y-151208619D01*
X163206611Y-151257000D01*
X163521087Y-152224619D02*
X163695259Y-152224619D01*
X163788392Y-152176238D01*
X163837982Y-152127857D01*
X163943211Y-151982714D01*
X164010944Y-151789190D01*
X164059325Y-151402142D01*
X164027878Y-151305380D01*
X163990382Y-151257000D01*
X163909344Y-151208619D01*
X163735173Y-151208619D01*
X163642040Y-151257000D01*
X163592449Y-151305380D01*
X163536811Y-151402142D01*
X163506573Y-151644047D01*
X163538020Y-151740809D01*
X163575516Y-151789190D01*
X163656554Y-151837571D01*
X163830725Y-151837571D01*
X163923859Y-151789190D01*
X163973449Y-151740809D01*
X164029087Y-151644047D01*
X164649573Y-151208619D02*
X164736659Y-151208619D01*
X164817697Y-151257000D01*
X164855192Y-151305380D01*
X164886640Y-151402142D01*
X164905992Y-151595666D01*
X164875754Y-151837571D01*
X164808020Y-152031095D01*
X164752382Y-152127857D01*
X164702792Y-152176238D01*
X164609659Y-152224619D01*
X164522573Y-152224619D01*
X164441535Y-152176238D01*
X164404040Y-152127857D01*
X164372592Y-152031095D01*
X164353240Y-151837571D01*
X164383478Y-151595666D01*
X164451211Y-151402142D01*
X164506849Y-151305380D01*
X164556440Y-151257000D01*
X164649573Y-151208619D01*
X156185809Y-163678809D02*
X156669619Y-163678809D01*
X155653619Y-164017476D02*
X156185809Y-163678809D01*
X155653619Y-163340142D01*
X156669619Y-162469285D02*
X156669619Y-163049857D01*
X156669619Y-162759571D02*
X155653619Y-162759571D01*
X155798761Y-162856333D01*
X155895523Y-162953095D01*
X155943904Y-163049857D01*
D15*
X155653619Y-160502584D02*
X155653619Y-160030870D01*
X156040666Y-160333251D01*
X156040666Y-160224394D01*
X156089047Y-160157870D01*
X156137428Y-160127632D01*
X156234190Y-160103442D01*
X156476095Y-160133680D01*
X156572857Y-160182061D01*
X156621238Y-160224394D01*
X156669619Y-160303013D01*
X156669619Y-160520727D01*
X156621238Y-160587251D01*
X156572857Y-160617489D01*
X155750380Y-159752680D02*
X155702000Y-159710346D01*
X155653619Y-159631727D01*
X155653619Y-159450299D01*
X155702000Y-159383775D01*
X155750380Y-159353537D01*
X155847142Y-159329346D01*
X155943904Y-159341442D01*
X156089047Y-159395870D01*
X156669619Y-159903870D01*
X156669619Y-159432156D01*
X155653619Y-159051156D02*
X155653619Y-158543156D01*
X156669619Y-158996727D01*
X155653619Y-157926299D02*
X155653619Y-158071442D01*
X155702000Y-158150061D01*
X155750380Y-158192394D01*
X155895523Y-158283108D01*
X156089047Y-158343584D01*
X156476095Y-158391965D01*
X156572857Y-158367775D01*
X156621238Y-158337537D01*
X156669619Y-158271013D01*
X156669619Y-158125870D01*
X156621238Y-158047251D01*
X156572857Y-158004918D01*
X156476095Y-157956537D01*
X156234190Y-157926299D01*
X156137428Y-157950489D01*
X156089047Y-157980727D01*
X156040666Y-158047251D01*
X156040666Y-158192394D01*
X156089047Y-158271013D01*
X156137428Y-158313346D01*
X156234190Y-158361727D01*
X156089047Y-157472727D02*
X156040666Y-157539251D01*
X155992285Y-157569489D01*
X155895523Y-157593680D01*
X155847142Y-157587632D01*
X155750380Y-157539251D01*
X155702000Y-157496918D01*
X155653619Y-157418299D01*
X155653619Y-157273156D01*
X155702000Y-157206632D01*
X155750380Y-157176394D01*
X155847142Y-157152203D01*
X155895523Y-157158251D01*
X155992285Y-157206632D01*
X156040666Y-157248965D01*
X156089047Y-157327584D01*
X156089047Y-157472727D01*
X156137428Y-157551346D01*
X156185809Y-157593680D01*
X156282571Y-157642061D01*
X156476095Y-157666251D01*
X156572857Y-157642061D01*
X156621238Y-157611822D01*
X156669619Y-157545299D01*
X156669619Y-157400156D01*
X156621238Y-157321537D01*
X156572857Y-157279203D01*
X156476095Y-157230822D01*
X156282571Y-157206632D01*
X156185809Y-157230822D01*
X156137428Y-157261061D01*
X156089047Y-157327584D01*
X156669619Y-156928442D02*
X155653619Y-156801442D01*
X156137428Y-156861918D02*
X156137428Y-156426489D01*
X156669619Y-156493013D02*
X155653619Y-156366013D01*
X155992285Y-156118061D02*
X155992285Y-155718918D01*
X156669619Y-156202727D01*
X156669619Y-155803584D01*
D16*
X96607380Y-128238095D02*
X97416904Y-128238095D01*
X97512142Y-128190476D01*
X97559761Y-128142857D01*
X97607380Y-128047619D01*
X97607380Y-127857142D01*
X97559761Y-127761904D01*
X97512142Y-127714285D01*
X97416904Y-127666666D01*
X96607380Y-127666666D01*
X97607380Y-126666666D02*
X97607380Y-127238095D01*
X97607380Y-126952380D02*
X96607380Y-126952380D01*
X96750238Y-127047619D01*
X96845476Y-127142857D01*
X96893095Y-127238095D01*
X97035952Y-126095238D02*
X96988333Y-126190476D01*
X96940714Y-126238095D01*
X96845476Y-126285714D01*
X96797857Y-126285714D01*
X96702619Y-126238095D01*
X96655000Y-126190476D01*
X96607380Y-126095238D01*
X96607380Y-125904761D01*
X96655000Y-125809523D01*
X96702619Y-125761904D01*
X96797857Y-125714285D01*
X96845476Y-125714285D01*
X96940714Y-125761904D01*
X96988333Y-125809523D01*
X97035952Y-125904761D01*
X97035952Y-126095238D01*
X97083571Y-126190476D01*
X97131190Y-126238095D01*
X97226428Y-126285714D01*
X97416904Y-126285714D01*
X97512142Y-126238095D01*
X97559761Y-126190476D01*
X97607380Y-126095238D01*
X97607380Y-125904761D01*
X97559761Y-125809523D01*
X97512142Y-125761904D01*
X97416904Y-125714285D01*
X97226428Y-125714285D01*
X97131190Y-125761904D01*
X97083571Y-125809523D01*
X97035952Y-125904761D01*
D10*
X99652666Y-152224619D02*
X99314000Y-151740809D01*
X99072095Y-152224619D02*
X99072095Y-151208619D01*
X99459142Y-151208619D01*
X99555904Y-151257000D01*
X99604285Y-151305380D01*
X99652666Y-151402142D01*
X99652666Y-151547285D01*
X99604285Y-151644047D01*
X99555904Y-151692428D01*
X99459142Y-151740809D01*
X99072095Y-151740809D01*
X100088095Y-152224619D02*
X100088095Y-151208619D01*
X100475142Y-151208619D01*
X100571904Y-151257000D01*
X100620285Y-151305380D01*
X100668666Y-151402142D01*
X100668666Y-151547285D01*
X100620285Y-151644047D01*
X100571904Y-151692428D01*
X100475142Y-151740809D01*
X100088095Y-151740809D01*
X101539523Y-151208619D02*
X101346000Y-151208619D01*
X101249238Y-151257000D01*
X101200857Y-151305380D01*
X101104095Y-151450523D01*
X101055714Y-151644047D01*
X101055714Y-152031095D01*
X101104095Y-152127857D01*
X101152476Y-152176238D01*
X101249238Y-152224619D01*
X101442761Y-152224619D01*
X101539523Y-152176238D01*
X101587904Y-152127857D01*
X101636285Y-152031095D01*
X101636285Y-151789190D01*
X101587904Y-151692428D01*
X101539523Y-151644047D01*
X101442761Y-151595666D01*
X101249238Y-151595666D01*
X101152476Y-151644047D01*
X101104095Y-151692428D01*
X101055714Y-151789190D01*
X114852268Y-151547285D02*
X114767601Y-152224619D01*
X114682935Y-151160238D02*
X114374506Y-151885952D01*
X114940563Y-151885952D01*
X115286487Y-151208619D02*
X115896087Y-151208619D01*
X115377201Y-152224619D01*
X116418601Y-151208619D02*
X116505687Y-151208619D01*
X116586725Y-151257000D01*
X116624220Y-151305380D01*
X116655668Y-151402142D01*
X116675020Y-151595666D01*
X116644782Y-151837571D01*
X116577049Y-152031095D01*
X116521411Y-152127857D01*
X116471820Y-152176238D01*
X116378687Y-152224619D01*
X116291601Y-152224619D01*
X116210563Y-152176238D01*
X116173068Y-152127857D01*
X116141620Y-152031095D01*
X116122268Y-151837571D01*
X116152506Y-151595666D01*
X116220240Y-151402142D01*
X116275878Y-151305380D01*
X116325468Y-151257000D01*
X116418601Y-151208619D01*
M02*
